{"glyphs":{"0":{"ha":806,"x_min":76,"x_max":729,"o":"m 590 486 q 576 683 590 606 q 535 807 561 761 q 476 871 510 853 q 403 889 442 889 q 330 871 364 889 q 270 807 296 853 q 230 683 244 761 q 215 486 215 606 q 230 289 215 367 q 270 165 244 211 q 330 101 296 119 q 403 83 364 83 q 476 101 442 83 q 535 165 510 119 q 576 289 561 211 q 590 486 590 367 m 76 486 q 101 716 76 621 q 169 872 125 811 q 272 959 213 932 q 403 986 332 986 q 533 959 474 986 q 637 872 593 932 q 705 716 681 811 q 729 486 729 621 q 705 256 729 350 q 637 101 681 161 q 533 13 593 40 q 403 -14 474 -14 q 272 13 332 -14 q 169 101 213 40 q 101 256 125 161 q 76 486 76 350 z "},"1":{"ha":542,"x_min":28,"x_max":514,"o":"m 222 819 l 83 729 l 28 806 l 236 972 l 361 972 l 361 97 l 514 97 l 514 0 l 69 0 l 69 97 l 222 97 l 222 819 z "},"2":{"ha":694,"x_min":42,"x_max":632,"o":"m 632 722 q 599 593 632 653 q 515 480 565 533 q 406 378 465 426 q 297 284 347 331 q 214 192 247 238 q 181 97 181 146 l 632 97 l 632 0 l 42 0 l 42 97 q 75 224 42 167 q 158 333 108 282 q 267 432 208 385 q 376 527 326 479 q 460 626 426 575 q 493 736 493 676 q 444 844 493 799 q 306 889 394 889 q 222 878 258 889 q 161 857 186 868 q 111 826 132 843 l 97 826 l 49 910 q 117 947 76 931 q 201 974 150 963 q 319 986 251 986 q 453 967 394 986 q 551 912 511 947 q 611 828 590 876 q 632 722 632 779 z "},"3":{"ha":694,"x_min":21,"x_max":639,"o":"m 42 972 l 611 972 l 611 875 l 299 569 q 555 491 471 569 q 639 278 639 413 q 554 64 639 142 q 292 -14 469 -14 q 173 -3 224 -14 q 89 24 122 8 q 21 63 49 40 l 69 146 l 83 146 q 133 114 104 128 q 194 93 158 103 q 278 83 231 83 q 447 133 393 83 q 500 278 500 183 q 447 422 500 372 q 278 472 393 472 l 132 472 l 132 569 l 444 875 l 42 875 l 42 972 z "},"4":{"ha":750,"x_min":14,"x_max":722,"o":"m 722 333 l 722 236 l 611 236 l 611 0 l 472 0 l 472 236 l 14 236 l 14 333 l 472 972 l 611 972 l 611 333 l 722 333 m 167 333 l 472 333 l 472 694 q 474 724 472 707 q 478 756 475 740 q 483 792 481 772 l 478 792 q 458 756 468 772 q 441 724 450 740 q 424 694 432 707 l 167 333 z "},"5":{"ha":701,"x_min":35,"x_max":646,"o":"m 83 972 l 610 972 l 610 875 l 222 875 l 222 597 l 313 597 q 563 518 481 597 q 646 292 646 439 q 563 65 646 144 q 306 -14 479 -14 q 187 -3 238 -14 q 103 24 136 8 q 35 63 63 40 l 83 146 l 97 146 q 147 114 118 128 q 208 93 172 103 q 292 83 244 83 q 507 292 507 83 q 292 500 507 500 l 125 500 l 83 542 l 83 972 z "},"6":{"ha":743,"x_min":76,"x_max":688,"o":"m 76 569 q 164 887 76 788 q 403 986 251 986 q 509 974 463 986 q 588 947 556 963 q 653 910 625 931 l 604 826 l 590 826 q 543 857 569 843 q 488 878 519 868 q 417 889 456 889 q 335 872 372 889 q 272 818 299 856 q 230 719 244 781 q 215 569 215 658 q 264 597 236 585 q 321 617 288 608 q 396 625 354 625 q 610 546 532 625 q 688 319 688 467 q 609 69 688 151 q 390 -14 531 -14 q 157 69 238 -14 q 76 319 76 151 l 76 569 m 368 528 q 303 519 332 528 q 256 500 275 511 q 215 472 232 488 l 215 319 q 263 139 215 194 q 389 83 311 83 q 503 139 457 83 q 549 319 549 194 q 500 476 549 424 q 368 528 451 528 z "},"7":{"ha":611,"x_min":0,"x_max":597,"o":"m 194 125 q 216 356 194 244 q 273 563 238 467 q 353 738 308 658 q 444 875 397 818 l 0 875 l 0 972 l 597 972 l 597 875 q 503 738 550 818 q 418 563 456 658 q 357 356 381 467 q 333 125 333 244 l 333 0 l 194 0 l 194 125 z "},"8":{"ha":778,"x_min":56,"x_max":722,"o":"m 389 458 q 315 424 350 443 q 253 381 279 406 q 210 324 226 356 q 194 250 194 292 q 244 130 194 176 q 389 83 294 83 q 533 130 483 83 q 583 250 583 176 q 567 324 583 292 q 525 381 551 356 q 463 424 499 406 q 389 458 428 443 m 389 569 q 447 594 419 579 q 496 631 475 610 q 529 679 517 651 q 542 743 542 707 q 529 799 542 772 q 496 845 517 825 q 447 877 475 865 q 389 889 419 889 q 329 877 357 889 q 281 845 301 865 q 248 799 260 825 q 236 743 236 772 q 248 679 236 707 q 281 631 260 651 q 329 594 301 610 q 389 569 357 579 m 97 743 q 117 837 97 793 q 175 914 138 881 q 267 967 213 947 q 389 986 321 986 q 511 967 457 986 q 603 914 565 947 q 660 837 640 881 q 681 743 681 793 q 653 631 681 675 q 593 561 625 588 q 507 514 556 531 q 614 463 567 497 q 654 428 635 447 q 689 382 674 408 q 713 323 704 356 q 722 250 722 290 q 699 150 722 197 q 633 66 676 103 q 528 8 590 29 q 389 -14 467 -14 q 249 8 311 -14 q 144 66 188 29 q 78 150 101 103 q 56 250 56 197 q 89 382 56 331 q 163 463 122 433 q 271 514 210 497 q 183 561 221 531 q 124 631 151 588 q 97 743 97 675 z "},"9":{"ha":743,"x_min":56,"x_max":667,"o":"m 667 403 q 644 215 667 293 q 578 85 621 136 q 476 10 536 35 q 340 -14 415 -14 q 233 -3 279 -14 q 156 24 188 8 q 90 63 118 40 l 139 146 l 153 146 q 200 114 174 128 q 255 93 224 103 q 326 83 286 83 q 408 100 371 83 q 472 154 444 117 q 513 253 499 192 q 528 403 528 314 q 479 375 506 388 q 422 356 456 364 q 347 347 389 347 q 133 426 211 347 q 56 653 56 506 q 134 903 56 821 q 353 986 213 986 q 586 903 506 986 q 667 653 667 821 l 667 403 m 375 444 q 440 453 411 444 q 488 472 468 461 q 528 500 511 485 l 528 653 q 480 833 528 778 q 354 889 432 889 q 240 833 286 889 q 194 653 194 778 q 243 497 194 549 q 375 444 292 444 z "}," ":{"ha":403,"x_min":0,"x_max":0,"o":""},"!":{"ha":403,"x_min":118,"x_max":285,"o":"m 118 972 l 285 972 l 257 250 l 146 250 l 118 972 m 118 69 q 142 129 118 106 q 201 153 165 153 q 261 129 238 153 q 285 69 285 106 q 261 10 285 33 q 201 -14 238 -14 q 142 10 165 -14 q 118 69 118 33 z "},"\"":{"ha":472,"x_min":56,"x_max":417,"o":"m 56 972 l 201 972 l 174 639 l 83 639 l 56 972 m 271 972 l 417 972 l 389 639 l 299 639 l 271 972 z "},"#":{"ha":917,"x_min":28,"x_max":889,"o":"m 415 722 l 610 722 l 667 972 l 806 972 l 749 722 l 889 722 l 889 625 l 726 625 l 663 347 l 806 347 l 806 250 l 640 250 l 583 0 l 444 0 l 501 250 l 307 250 l 250 0 l 111 0 l 168 250 l 28 250 l 28 347 l 190 347 l 254 625 l 111 625 l 111 722 l 276 722 l 333 972 l 472 972 l 415 722 m 329 347 l 524 347 l 588 625 l 393 625 l 329 347 z "},"$":{"ha":688,"x_min":42,"x_max":646,"o":"m 264 -10 q 169 8 211 -4 q 100 32 128 19 q 42 63 67 47 l 90 146 l 104 146 q 161 114 129 128 q 227 93 189 103 q 313 83 265 83 q 457 130 407 83 q 507 250 507 176 q 474 341 507 306 q 390 403 440 376 q 281 455 340 431 q 172 513 222 479 q 89 597 122 547 q 56 722 56 646 q 110 885 56 818 q 264 976 164 953 l 264 1069 l 410 1069 l 410 983 q 503 966 463 978 q 571 942 543 954 q 625 910 603 926 l 576 826 l 563 826 q 513 857 542 843 q 451 878 488 868 q 368 889 415 889 q 297 876 329 889 q 242 843 265 864 q 207 794 219 822 q 194 736 194 767 q 228 645 194 681 q 311 583 261 610 q 420 531 361 556 q 529 473 479 507 q 613 390 579 439 q 646 264 646 340 q 586 84 646 156 q 410 -7 526 13 l 410 -97 l 264 -97 l 264 -10 z "},"%":{"ha":1111,"x_min":42,"x_max":1069,"o":"m 806 972 l 958 972 l 306 0 l 153 0 l 806 972 m 264 903 q 194 866 222 903 q 167 736 167 829 q 174 657 167 689 q 194 606 182 625 q 225 578 207 586 q 264 569 243 569 q 303 578 285 569 q 333 606 321 586 q 353 657 346 625 q 361 736 361 689 q 333 866 361 829 q 264 903 306 903 m 264 986 q 425 922 364 986 q 486 736 486 857 q 425 551 486 615 q 264 486 364 486 q 103 551 164 486 q 42 736 42 615 q 103 922 42 857 q 264 986 164 986 m 847 403 q 778 366 806 403 q 750 236 750 329 q 758 157 750 189 q 778 106 765 125 q 808 78 790 86 q 847 69 826 69 q 886 78 868 69 q 917 106 904 86 q 937 157 929 125 q 944 236 944 189 q 917 366 944 329 q 847 403 889 403 m 847 486 q 1008 422 947 486 q 1069 236 1069 357 q 1008 51 1069 115 q 847 -14 947 -14 q 686 51 747 -14 q 625 236 625 115 q 686 422 625 357 q 847 486 747 486 z "},"&":{"ha":854,"x_min":42,"x_max":847,"o":"m 42 250 q 58 337 42 297 q 103 410 75 376 q 168 472 132 443 q 243 528 204 501 q 183 599 208 561 q 143 674 161 631 q 125 764 125 717 q 189 925 125 864 q 368 986 253 986 q 466 970 422 986 q 540 926 510 954 q 588 860 571 899 q 604 778 604 822 q 575 672 604 719 q 510 589 546 625 q 417 514 468 547 l 625 264 q 647 346 640 300 q 653 444 653 392 l 778 444 q 758 299 778 365 q 701 174 738 232 l 847 0 l 681 0 l 611 83 q 483 11 553 36 q 333 -14 413 -14 q 211 6 265 -14 q 119 60 157 25 q 62 144 82 96 q 42 250 42 193 m 361 83 q 466 100 419 83 q 549 153 513 117 l 313 438 q 218 351 256 396 q 181 250 181 307 q 229 130 181 176 q 361 83 278 83 m 264 764 q 277 707 264 735 q 306 656 290 679 q 347 604 324 629 q 406 654 381 626 q 447 710 428 678 q 465 778 465 742 q 438 866 465 836 q 368 896 410 896 q 292 864 321 896 q 264 764 264 832 z "},"'":{"ha":257,"x_min":56,"x_max":201,"o":"m 56 972 l 201 972 l 174 639 l 83 639 l 56 972 z "},"(":{"ha":396,"x_min":76,"x_max":396,"o":"m 76 389 q 93 565 76 478 q 143 734 110 653 q 226 888 176 815 q 340 1021 275 961 l 396 965 q 264 706 313 844 q 215 389 215 567 q 264 72 215 211 q 396 -187 313 -67 l 340 -243 q 226 -110 275 -183 q 143 44 176 -37 q 93 213 110 125 q 76 389 76 300 z "},")":{"ha":396,"x_min":0,"x_max":319,"o":"m 319 389 q 303 213 319 300 q 253 44 286 125 q 170 -110 219 -37 q 56 -243 121 -183 l 0 -187 q 132 72 83 -67 q 181 389 181 211 q 132 706 181 567 q 0 965 83 844 l 56 1021 q 170 888 121 961 q 253 734 219 815 q 303 565 286 653 q 319 389 319 478 z "},"*":{"ha":569,"x_min":42,"x_max":528,"o":"m 90 889 l 236 806 l 236 972 l 333 972 l 333 806 l 479 889 l 528 806 l 382 722 l 528 639 l 479 556 l 333 639 l 333 472 l 236 472 l 236 639 l 90 556 l 42 639 l 188 722 l 42 806 l 90 889 z "},"+":{"ha":653,"x_min":42,"x_max":611,"o":"m 271 403 l 42 403 l 42 514 l 271 514 l 271 743 l 382 743 l 382 514 l 611 514 l 611 403 l 382 403 l 382 174 l 271 174 l 271 403 z "},",":{"ha":278,"x_min":56,"x_max":222,"o":"m 56 69 q 78 129 56 106 q 132 153 100 153 q 198 128 174 153 q 222 56 222 103 q 203 -49 222 -6 q 160 -122 183 -93 q 97 -181 132 -157 l 56 -132 q 93 -96 76 -115 q 120 -58 108 -79 q 132 -14 132 -37 q 78 10 100 -14 q 56 69 56 33 z "},"-":{"ha":611,"x_min":42,"x_max":569,"o":"m 42 403 l 42 514 l 569 514 l 569 403 l 42 403 z "},".":{"ha":278,"x_min":56,"x_max":222,"o":"m 56 69 q 79 129 56 106 q 139 153 103 153 q 199 129 175 153 q 222 69 222 106 q 199 10 222 33 q 139 -14 175 -14 q 79 10 103 -14 q 56 69 56 33 z "},"/":{"ha":569,"x_min":0,"x_max":569,"o":"m 431 972 l 569 972 l 139 0 l 0 0 l 431 972 z "},":":{"ha":278,"x_min":56,"x_max":222,"o":"m 56 69 q 79 129 56 106 q 139 153 103 153 q 199 129 175 153 q 222 69 222 106 q 199 10 222 33 q 139 -14 175 -14 q 79 10 103 -14 q 56 69 56 33 m 56 625 q 79 685 56 661 q 139 708 103 708 q 199 685 175 708 q 222 625 222 661 q 199 565 222 589 q 139 542 175 542 q 79 565 103 542 q 56 625 56 589 z "},";":{"ha":278,"x_min":56,"x_max":222,"o":"m 56 625 q 79 685 56 661 q 139 708 103 708 q 199 685 175 708 q 222 625 222 661 q 199 565 222 589 q 139 542 175 542 q 79 565 103 542 q 56 625 56 589 m 56 69 q 78 129 56 106 q 132 153 100 153 q 198 128 174 153 q 222 56 222 103 q 203 -49 222 -6 q 160 -122 183 -93 q 97 -181 132 -157 l 56 -132 q 93 -96 76 -115 q 120 -58 108 -79 q 132 -14 132 -37 q 78 10 100 -14 q 56 69 56 33 z "},"<":{"ha":653,"x_min":56,"x_max":597,"o":"m 597 694 l 597 563 l 208 347 l 597 132 l 597 0 l 56 299 l 56 396 l 597 694 z "},"=":{"ha":653,"x_min":49,"x_max":604,"o":"m 49 278 l 49 389 l 604 389 l 604 278 l 49 278 m 49 528 l 49 639 l 604 639 l 604 528 l 49 528 z "},">":{"ha":618,"x_min":49,"x_max":590,"o":"m 590 396 l 590 299 l 49 0 l 49 132 l 438 347 l 49 563 l 49 694 l 590 396 z "},"?":{"ha":639,"x_min":0,"x_max":583,"o":"m 168 69 q 192 129 168 106 q 251 153 215 153 q 311 129 288 153 q 335 69 335 106 q 311 10 335 33 q 251 -14 288 -14 q 192 10 215 -14 q 168 69 168 33 m 314 250 l 189 250 l 189 306 q 208 406 189 364 q 255 479 226 447 q 317 537 283 511 q 378 590 350 563 q 426 653 407 618 q 444 736 444 688 q 395 844 444 799 q 257 889 346 889 q 174 878 210 889 q 113 857 138 868 q 63 826 83 843 l 49 826 l 0 910 q 68 947 28 931 q 152 974 101 963 q 271 986 203 986 q 404 967 346 986 q 502 912 463 947 q 563 828 542 876 q 583 722 583 779 q 563 622 583 663 q 513 549 543 581 q 449 493 483 518 q 384 442 414 468 q 334 383 354 415 q 314 306 314 350 l 314 250 z "},"@":{"ha":1292,"x_min":63,"x_max":1229,"o":"m 764 563 q 728 600 747 583 q 688 627 711 615 q 639 639 665 639 q 585 626 610 639 q 541 587 560 614 q 511 516 522 560 q 500 410 500 472 q 511 303 500 347 q 541 233 522 260 q 585 193 560 206 q 639 181 610 181 q 688 190 665 181 q 728 211 711 200 q 764 243 747 225 l 764 563 m 632 -167 q 408 -122 513 -167 q 227 0 304 -78 q 106 185 150 78 q 63 417 63 292 q 107 649 63 542 q 229 833 151 756 q 414 956 307 911 q 646 1000 521 1000 q 878 956 771 1000 q 1063 833 985 911 q 1185 649 1140 756 q 1229 417 1229 542 q 1210 267 1229 331 q 1156 160 1190 203 q 1076 97 1122 118 q 979 76 1031 76 q 891 88 926 76 q 833 114 856 99 q 792 153 808 131 l 785 153 q 736 114 763 131 q 679 88 713 99 q 604 76 646 76 q 507 97 551 76 q 431 158 463 117 q 380 261 399 199 q 361 410 361 324 q 380 558 361 496 q 431 662 399 621 q 507 723 463 703 q 604 743 551 743 q 682 728 649 743 q 739 697 715 714 q 785 653 765 678 l 792 653 l 806 729 l 903 729 l 903 194 q 921 181 911 186 q 940 171 929 175 q 965 167 951 167 q 1013 179 989 167 q 1058 221 1038 192 q 1091 298 1078 250 q 1104 417 1104 346 q 1069 616 1104 526 q 974 769 1035 706 q 828 868 913 833 q 646 903 744 903 q 463 868 547 903 q 318 769 379 833 q 222 616 257 706 q 188 417 188 526 q 222 217 188 307 q 318 64 257 128 q 463 -35 379 0 q 646 -69 547 -69 q 739 -60 699 -69 q 808 -39 779 -50 q 868 -7 842 -25 l 882 -7 l 931 -90 q 854 -129 899 -112 q 761 -156 817 -144 q 632 -167 706 -167 z "},"A":{"ha":792,"x_min":21,"x_max":771,"o":"m 632 0 l 556 250 l 236 250 l 160 0 l 21 0 l 306 972 l 486 972 l 771 0 l 632 0 m 264 347 l 528 347 l 417 729 q 408 762 411 744 q 403 794 406 779 q 399 826 400 811 l 393 826 q 389 793 392 810 q 383 761 386 778 q 375 729 379 744 l 264 347 z "},"B":{"ha":799,"x_min":125,"x_max":729,"o":"m 535 514 q 632 469 589 501 q 667 437 650 456 q 699 393 685 418 q 721 336 713 368 q 729 264 729 304 q 709 156 729 204 q 647 72 689 107 q 542 19 606 38 q 389 0 478 0 l 125 0 l 125 972 l 389 972 q 522 953 464 972 q 617 903 579 935 q 675 826 656 871 q 694 729 694 781 q 669 619 694 661 q 614 554 644 578 q 535 514 578 526 m 264 556 l 389 556 q 512 599 468 556 q 556 715 556 642 q 512 832 556 789 q 389 875 468 875 l 264 875 l 264 556 m 264 458 l 264 97 l 389 97 q 542 143 493 97 q 590 278 590 189 q 542 413 590 367 q 389 458 493 458 l 264 458 z "},"C":{"ha":715,"x_min":76,"x_max":681,"o":"m 76 486 q 101 716 76 621 q 172 872 126 811 q 282 959 218 932 q 424 986 346 986 q 526 974 482 986 q 603 947 571 963 q 667 910 639 931 l 618 826 l 604 826 q 557 857 582 843 q 504 878 535 868 q 438 889 474 889 q 350 869 390 889 q 280 802 310 849 q 233 678 250 756 q 215 486 215 600 q 233 294 215 371 q 281 170 250 217 q 356 103 313 124 q 451 83 399 83 q 518 93 488 83 q 571 114 549 103 q 618 146 596 128 l 632 146 l 681 63 q 617 24 653 40 q 540 -3 585 8 q 438 -14 496 -14 q 288 13 354 -14 q 174 101 221 40 q 101 256 126 161 q 76 486 76 350 z "},"D":{"ha":813,"x_min":125,"x_max":736,"o":"m 125 0 l 125 972 l 333 972 q 508 945 432 972 q 634 860 583 918 q 710 709 685 801 q 736 486 736 617 q 710 263 736 356 q 634 113 685 171 q 508 27 583 54 q 333 0 432 0 l 125 0 m 333 97 q 445 117 396 97 q 528 182 494 136 q 579 302 561 228 q 597 486 597 376 q 579 670 597 596 q 528 790 561 744 q 445 856 494 836 q 333 875 396 875 l 264 875 l 264 97 l 333 97 z "},"E":{"ha":708,"x_min":125,"x_max":667,"o":"m 125 0 l 125 972 l 667 972 l 667 875 l 264 875 l 264 556 l 583 556 l 583 458 l 264 458 l 264 97 l 667 97 l 667 0 l 125 0 z "},"F":{"ha":694,"x_min":125,"x_max":667,"o":"m 125 0 l 125 972 l 667 972 l 667 875 l 264 875 l 264 542 l 583 542 l 583 444 l 264 444 l 264 0 l 125 0 z "},"G":{"ha":785,"x_min":76,"x_max":694,"o":"m 694 63 q 626 24 665 40 q 545 -3 593 8 q 438 -14 497 -14 q 293 15 360 -14 q 178 106 226 44 q 103 261 131 167 q 76 486 76 356 q 103 711 76 617 q 177 867 131 806 q 287 957 224 928 q 424 986 350 986 q 526 974 482 986 q 603 947 571 963 q 667 910 639 931 l 618 826 l 604 826 q 557 857 582 843 q 504 878 535 868 q 438 889 474 889 q 350 869 390 889 q 280 802 310 849 q 233 678 250 756 q 215 486 215 600 q 233 294 215 371 q 281 170 250 217 q 356 103 313 124 q 451 83 399 83 q 491 88 472 83 q 524 98 510 93 q 547 107 539 103 q 556 111 556 111 l 556 431 l 396 431 l 396 528 l 653 528 l 694 486 l 694 63 z "},"H":{"ha":875,"x_min":125,"x_max":750,"o":"m 750 972 l 750 0 l 611 0 l 611 444 l 264 444 l 264 0 l 125 0 l 125 972 l 264 972 l 264 542 l 611 542 l 611 972 l 750 972 z "},"I":{"ha":389,"x_min":125,"x_max":264,"o":"m 125 972 l 264 972 l 264 0 l 125 0 l 125 972 z "},"J":{"ha":590,"x_min":0,"x_max":472,"o":"m 174 83 q 293 126 253 83 q 333 264 333 169 l 333 972 l 472 972 l 472 264 q 401 57 472 128 q 188 -14 329 -14 q 111 -4 146 -14 q 51 17 76 6 q 0 49 22 31 l 42 139 l 56 139 q 92 111 72 124 q 129 92 108 100 q 174 83 150 83 z "},"K":{"ha":771,"x_min":125,"x_max":750,"o":"m 750 0 l 590 0 l 264 486 l 264 0 l 125 0 l 125 972 l 264 972 l 264 514 l 576 972 l 736 972 l 417 500 l 750 0 z "},"L":{"ha":681,"x_min":125,"x_max":667,"o":"m 264 972 l 264 97 l 667 97 l 667 0 l 125 0 l 125 972 l 264 972 z "},"M":{"ha":1167,"x_min":125,"x_max":1042,"o":"m 556 382 q 566 362 561 374 q 574 339 571 350 q 581 313 578 325 l 586 313 q 593 339 589 325 q 601 362 596 350 q 611 382 606 374 l 903 972 l 1042 972 l 1042 0 l 903 0 l 903 583 q 903 619 903 599 q 906 658 904 639 q 908 701 907 679 l 903 701 q 890 658 897 679 q 876 619 883 639 q 861 583 868 599 l 653 174 l 514 174 l 306 583 q 290 619 297 599 q 276 658 283 639 q 264 701 269 679 l 258 701 q 261 658 260 679 q 263 619 263 639 q 264 583 264 599 l 264 0 l 125 0 l 125 972 l 264 972 l 556 382 z "},"N":{"ha":875,"x_min":125,"x_max":750,"o":"m 306 618 q 292 653 299 633 q 278 693 285 674 q 264 736 271 714 l 258 736 q 261 693 260 714 q 263 653 263 674 q 264 618 264 633 l 264 0 l 125 0 l 125 972 l 278 972 l 569 354 q 583 318 576 339 q 597 279 590 297 q 611 236 604 257 l 617 236 q 614 279 615 257 q 612 318 613 297 q 611 354 611 339 l 611 972 l 750 972 l 750 0 l 597 0 l 306 618 z "},"O":{"ha":833,"x_min":76,"x_max":757,"o":"m 215 486 q 232 294 215 371 q 277 170 249 217 q 342 103 306 124 q 417 83 378 83 q 492 103 456 83 q 556 170 528 124 q 601 294 585 217 q 618 486 618 371 q 601 678 618 600 q 556 802 585 756 q 492 869 528 849 q 417 889 456 889 q 342 869 378 889 q 277 802 306 849 q 232 678 249 756 q 215 486 215 600 m 757 486 q 732 256 757 350 q 663 101 707 161 q 555 13 618 40 q 417 -14 492 -14 q 278 13 342 -14 q 171 101 215 40 q 101 256 126 161 q 76 486 76 350 q 101 716 76 621 q 171 872 126 811 q 278 959 215 932 q 417 986 342 986 q 555 959 492 986 q 663 872 618 932 q 732 716 707 811 q 757 486 757 621 z "},"P":{"ha":785,"x_min":125,"x_max":722,"o":"m 375 431 q 531 484 479 431 q 583 653 583 538 q 531 822 583 768 q 375 875 479 875 l 264 875 l 264 431 l 375 431 m 264 333 l 264 0 l 125 0 l 125 972 l 375 972 q 638 891 553 972 q 722 653 722 810 q 638 415 722 496 q 375 333 553 333 l 264 333 z "},"Q":{"ha":833,"x_min":76,"x_max":757,"o":"m 757 486 q 737 278 757 367 q 681 131 717 190 q 596 37 646 71 q 486 -7 546 3 q 510 -92 486 -65 q 576 -118 535 -118 q 611 -111 597 -118 q 625 -104 618 -108 l 639 -104 l 667 -194 q 635 -206 651 -200 q 601 -212 619 -210 q 563 -215 583 -215 q 405 -158 463 -215 q 347 -7 347 -101 q 238 37 288 3 q 152 131 188 71 q 97 278 117 190 q 76 486 76 367 q 101 716 76 621 q 171 872 126 811 q 278 959 215 932 q 417 986 342 986 q 555 959 492 986 q 663 872 618 932 q 732 716 707 811 q 757 486 757 621 m 215 486 q 232 294 215 371 q 277 170 249 217 q 342 103 306 124 q 417 83 378 83 q 492 103 456 83 q 556 170 528 124 q 601 294 585 217 q 618 486 618 371 q 601 678 618 600 q 556 802 585 756 q 492 869 528 849 q 417 889 456 889 q 342 869 378 889 q 277 802 306 849 q 232 678 249 756 q 215 486 215 600 z "},"R":{"ha":799,"x_min":125,"x_max":750,"o":"m 264 361 l 264 0 l 125 0 l 125 972 l 361 972 q 624 893 539 972 q 708 667 708 814 q 518 382 708 444 l 750 0 l 590 0 l 375 361 l 264 361 m 361 458 q 569 667 569 458 q 361 875 569 875 l 264 875 l 264 458 l 361 458 z "},"S":{"ha":701,"x_min":49,"x_max":653,"o":"m 354 986 q 472 974 422 986 q 557 947 522 963 q 625 910 596 931 l 576 826 l 563 826 q 513 857 542 843 q 451 878 488 868 q 368 889 415 889 q 301 876 332 889 q 249 843 271 864 q 214 794 226 822 q 201 736 201 767 q 235 645 201 681 q 318 583 268 610 q 427 531 368 556 q 536 473 486 507 q 619 390 586 439 q 653 264 653 340 q 632 150 653 201 q 571 63 611 99 q 471 6 531 26 q 333 -14 411 -14 q 213 -3 265 -14 q 124 24 160 8 q 49 63 81 40 l 97 146 l 111 146 q 168 114 136 128 q 234 93 196 103 q 319 83 272 83 q 464 130 414 83 q 514 250 514 176 q 481 341 514 306 q 397 403 447 376 q 288 455 347 431 q 179 513 229 479 q 96 597 129 547 q 63 722 63 646 q 83 828 63 779 q 140 912 103 876 q 232 967 178 947 q 354 986 286 986 z "},"T":{"ha":667,"x_min":14,"x_max":653,"o":"m 264 0 l 264 875 l 14 875 l 14 972 l 653 972 l 653 875 l 403 875 l 403 0 l 264 0 z "},"U":{"ha":861,"x_min":118,"x_max":743,"o":"m 431 83 q 557 137 510 83 q 604 306 604 190 l 604 972 l 743 972 l 743 306 q 663 67 743 149 q 431 -14 582 -14 q 199 67 279 -14 q 118 306 118 149 l 118 972 l 257 972 l 257 306 q 304 137 257 190 q 431 83 351 83 z "},"V":{"ha":764,"x_min":21,"x_max":743,"o":"m 385 146 q 389 179 386 163 q 395 211 392 194 q 403 243 399 228 l 604 972 l 743 972 l 472 0 l 292 0 l 21 972 l 160 972 l 361 243 q 368 211 365 228 q 374 179 371 194 q 379 146 376 163 l 385 146 z "},"W":{"ha":1194,"x_min":21,"x_max":1174,"o":"m 840 292 q 846 257 843 276 q 851 221 849 238 q 856 181 854 201 l 861 181 q 864 221 861 201 q 869 257 867 238 q 875 292 871 276 l 1035 972 l 1174 972 l 944 0 l 778 0 l 618 681 q 611 715 614 696 q 606 751 608 735 q 600 792 603 771 l 594 792 q 589 751 592 771 q 583 715 586 735 q 576 681 579 696 l 417 0 l 250 0 l 21 972 l 160 972 l 319 292 q 325 257 322 276 q 331 221 328 238 q 333 181 333 201 l 339 181 q 343 221 340 201 q 348 257 346 238 q 354 292 350 276 l 514 972 l 681 972 l 840 292 z "},"X":{"ha":736,"x_min":21,"x_max":715,"o":"m 340 660 q 349 640 344 650 q 357 619 354 629 q 365 597 361 608 l 371 597 q 379 619 375 608 q 386 640 382 629 q 396 660 390 650 l 556 972 l 708 972 l 458 493 l 715 0 l 563 0 l 396 326 q 386 346 390 335 q 379 367 382 357 q 371 389 375 378 l 365 389 q 357 367 361 378 q 340 326 350 346 l 174 0 l 21 0 l 278 493 l 28 972 l 181 972 l 340 660 z "},"Y":{"ha":736,"x_min":0,"x_max":736,"o":"m 590 972 l 736 972 l 438 319 l 438 0 l 299 0 l 299 319 l 0 972 l 146 972 l 340 549 q 351 521 346 535 q 358 494 356 507 q 365 465 363 479 l 371 465 q 378 494 374 479 q 385 521 381 507 q 396 549 389 535 l 590 972 z "},"Z":{"ha":674,"x_min":35,"x_max":639,"o":"m 35 0 l 35 104 l 465 875 l 35 875 l 35 972 l 632 972 l 632 868 l 201 97 l 639 97 l 639 0 l 35 0 z "},"[":{"ha":431,"x_min":125,"x_max":403,"o":"m 403 -236 l 125 -236 l 125 1014 l 403 1014 l 403 917 l 264 917 l 264 -139 l 403 -139 l 403 -236 z "},"\\":{"ha":569,"x_min":0,"x_max":569,"o":"m 569 0 l 431 0 l 0 972 l 139 972 l 569 0 z "},"]":{"ha":431,"x_min":28,"x_max":306,"o":"m 28 -139 l 167 -139 l 167 917 l 28 917 l 28 1014 l 306 1014 l 306 -236 l 28 -236 l 28 -139 z "},"^":{"ha":597,"x_min":0,"x_max":597,"o":"m 347 1000 l 597 611 l 458 611 l 299 861 l 139 611 l 0 611 l 250 1000 l 347 1000 z "},"_":{"ha":528,"x_min":0,"x_max":528,"o":"m 0 -181 l 0 -69 l 528 -69 l 528 -181 l 0 -181 z "},"`":{"ha":243,"x_min":14,"x_max":229,"o":"m 167 972 l 229 764 l 139 764 l 14 972 l 167 972 z "},"a":{"ha":708,"x_min":63,"x_max":611,"o":"m 472 444 q 433 569 472 528 q 326 611 394 611 q 267 601 294 611 q 218 579 239 590 q 174 549 193 565 l 160 549 l 111 632 q 174 669 138 653 q 246 697 204 685 q 340 708 288 708 q 450 689 400 708 q 535 634 500 669 q 591 550 571 599 q 611 444 611 501 l 611 0 l 514 0 l 500 83 l 493 83 q 444 35 474 56 q 382 1 419 15 q 292 -14 344 -14 q 122 44 182 -14 q 63 201 63 101 q 79 287 63 249 q 131 352 96 325 q 224 394 167 379 q 361 410 281 410 l 472 410 l 472 444 m 472 313 l 361 313 q 240 281 278 313 q 201 201 201 249 q 233 119 201 149 q 326 90 264 90 q 385 103 358 90 q 431 132 411 117 q 472 174 454 150 l 472 313 z "},"b":{"ha":743,"x_min":104,"x_max":674,"o":"m 243 174 q 285 132 261 150 q 331 103 304 117 q 389 90 357 90 q 444 104 418 90 q 491 149 471 118 q 523 228 511 179 q 535 347 535 276 q 522 470 535 419 q 488 552 510 521 q 438 597 467 583 q 375 611 408 611 q 322 607 346 611 q 281 597 299 603 q 243 583 260 592 l 243 174 m 243 972 l 243 667 q 288 688 263 678 q 336 701 308 694 q 396 708 364 708 q 506 686 456 708 q 594 619 557 664 q 653 506 632 574 q 674 347 674 439 q 653 188 674 256 q 598 76 632 121 q 519 8 564 31 q 424 -14 474 -14 q 333 1 371 -14 q 271 35 296 15 q 222 83 242 56 l 215 83 l 201 0 l 104 0 l 104 931 l 146 972 l 243 972 z "},"c":{"ha":632,"x_min":69,"x_max":604,"o":"m 375 611 q 308 597 339 611 q 256 552 278 583 q 221 470 233 521 q 208 347 208 419 q 257 142 208 201 q 389 83 306 83 q 448 93 421 83 q 496 114 475 103 q 542 146 521 128 l 556 146 l 604 63 q 542 24 578 40 q 469 -3 511 8 q 375 -14 428 -14 q 152 76 235 -14 q 69 347 69 165 q 90 506 69 439 q 150 619 111 574 q 242 686 189 664 q 361 708 296 708 q 456 697 414 708 q 528 669 497 685 q 590 632 564 653 l 542 549 l 528 549 q 482 579 507 565 q 434 601 461 590 q 375 611 407 611 z "},"d":{"ha":743,"x_min":69,"x_max":639,"o":"m 500 583 q 463 597 483 592 q 420 607 444 603 q 368 611 396 611 q 306 597 335 611 q 255 552 276 583 q 221 470 233 521 q 208 347 208 419 q 220 228 208 276 q 252 149 232 179 q 299 104 272 118 q 354 90 325 90 q 413 103 386 90 q 458 132 439 117 q 500 174 482 150 l 500 583 m 542 972 l 639 972 l 639 0 l 542 0 l 528 83 l 521 83 q 472 35 501 56 q 410 1 447 15 q 319 -14 372 -14 q 224 8 269 -14 q 145 76 179 31 q 90 188 111 121 q 69 347 69 256 q 90 506 69 439 q 149 619 111 574 q 237 686 186 664 q 347 708 288 708 q 406 701 379 708 q 454 688 433 694 q 500 667 479 678 l 500 931 l 542 972 z "},"e":{"ha":701,"x_min":69,"x_max":639,"o":"m 354 708 q 469 686 417 708 q 559 619 521 664 q 618 506 597 574 q 639 347 639 439 l 639 326 l 611 299 l 208 299 q 257 136 208 189 q 389 83 306 83 q 448 93 421 83 q 496 114 475 103 q 542 146 521 128 l 556 146 l 604 63 q 542 24 578 40 q 469 -3 511 8 q 375 -14 428 -14 q 152 76 235 -14 q 69 347 69 165 q 90 506 69 439 q 149 619 111 574 q 240 686 188 664 q 354 708 292 708 m 354 611 q 250 561 292 611 q 208 396 208 511 l 500 396 q 458 561 500 511 q 354 611 417 611 z "},"f":{"ha":472,"x_min":28,"x_max":549,"o":"m 361 889 q 285 858 314 889 q 257 764 257 826 l 257 694 l 444 694 l 444 597 l 257 597 l 257 0 l 118 0 l 118 597 l 28 597 l 28 694 l 118 694 l 118 764 q 134 855 118 814 q 181 925 150 896 q 253 970 211 954 q 347 986 294 986 q 428 974 392 986 q 492 947 464 963 q 549 910 524 931 l 500 826 l 486 826 q 447 857 468 843 q 407 878 429 868 q 361 889 385 889 z "},"g":{"ha":743,"x_min":69,"x_max":639,"o":"m 500 521 q 458 563 482 544 q 413 591 439 578 q 354 604 386 604 q 299 590 325 604 q 252 546 272 576 q 220 467 232 515 q 208 347 208 418 q 221 224 208 274 q 255 142 233 174 q 306 97 276 111 q 368 83 335 83 q 420 88 396 83 q 463 97 444 92 q 500 111 483 103 l 500 521 m 639 -14 q 619 -128 639 -76 q 560 -215 599 -179 q 466 -272 521 -251 q 340 -292 411 -292 q 246 -281 288 -292 q 174 -254 204 -269 q 111 -215 138 -237 l 160 -132 l 174 -132 q 218 -164 193 -150 q 267 -185 239 -175 q 326 -194 294 -194 q 458 -151 415 -194 q 500 -14 500 -108 l 500 28 q 454 7 479 15 q 406 -8 433 -1 q 347 -14 379 -14 q 237 8 288 -14 q 149 76 186 31 q 90 188 111 121 q 69 347 69 256 q 90 506 69 439 q 145 619 111 574 q 224 686 179 664 q 319 708 269 708 q 410 693 372 708 q 472 660 447 678 q 521 611 501 638 l 528 611 l 542 694 l 639 694 l 639 -14 z "},"h":{"ha":757,"x_min":104,"x_max":660,"o":"m 243 972 l 243 639 q 289 674 263 658 q 346 697 313 686 q 424 708 379 708 q 519 691 475 708 q 594 642 563 674 q 642 567 625 611 q 660 472 660 524 l 660 0 l 521 0 l 521 472 q 484 567 521 531 q 389 604 447 604 q 331 591 357 604 q 285 563 304 578 q 243 521 261 544 l 243 0 l 104 0 l 104 931 l 146 972 l 243 972 z "},"i":{"ha":347,"x_min":90,"x_max":257,"o":"m 243 694 l 243 0 l 104 0 l 104 694 l 243 694 m 257 889 q 233 829 257 853 q 174 806 210 806 q 114 829 138 806 q 90 889 90 853 q 114 949 90 925 q 174 972 138 972 q 233 949 210 972 q 257 889 257 925 z "},"j":{"ha":347,"x_min":-125,"x_max":257,"o":"m 257 889 q 233 829 257 853 q 174 806 210 806 q 114 829 138 806 q 90 889 90 853 q 114 949 90 925 q 174 972 138 972 q 233 949 210 972 q 257 889 257 925 m 0 -181 q 76 -149 47 -181 q 104 -56 104 -118 l 104 694 l 243 694 l 243 -56 q 227 -147 243 -106 q 181 -217 211 -187 q 108 -262 150 -246 q 14 -278 65 -278 q -44 -272 -18 -278 q -87 -257 -69 -265 q -125 -236 -110 -249 l -90 -146 l -76 -146 q -54 -164 -67 -157 q -29 -176 -43 -171 q 0 -181 -15 -181 z "},"k":{"ha":667,"x_min":104,"x_max":653,"o":"m 243 972 l 243 375 l 479 694 l 639 694 l 389 361 l 653 0 l 493 0 l 243 347 l 243 0 l 104 0 l 104 931 l 146 972 l 243 972 z "},"l":{"ha":347,"x_min":104,"x_max":243,"o":"m 104 931 l 146 972 l 243 972 l 243 0 l 104 0 l 104 931 z "},"m":{"ha":1118,"x_min":104,"x_max":1021,"o":"m 590 611 q 647 660 615 638 q 713 693 675 678 q 799 708 751 708 q 886 691 846 708 q 956 642 926 674 q 1003 567 986 611 q 1021 472 1021 524 l 1021 0 l 882 0 l 882 472 q 847 567 882 531 q 764 604 811 604 q 714 593 738 604 q 672 569 690 582 q 632 535 650 554 l 632 0 l 493 0 l 493 472 q 458 567 493 531 q 375 604 422 604 q 325 591 349 604 q 283 563 301 578 q 243 521 261 544 l 243 0 l 104 0 l 104 694 l 201 694 l 215 611 l 222 611 q 272 660 244 638 q 331 693 296 678 q 410 708 365 708 q 493 693 458 708 q 550 660 528 678 q 590 611 575 638 z "},"n":{"ha":757,"x_min":104,"x_max":660,"o":"m 389 604 q 331 591 357 604 q 285 563 304 578 q 243 521 261 544 l 243 0 l 104 0 l 104 694 l 201 694 l 215 611 l 222 611 q 271 660 242 638 q 333 693 296 678 q 424 708 371 708 q 519 691 475 708 q 594 642 563 674 q 642 567 625 611 q 660 472 660 524 l 660 0 l 521 0 l 521 472 q 484 567 521 531 q 389 604 447 604 z "},"o":{"ha":736,"x_min":69,"x_max":667,"o":"m 667 347 q 645 188 667 256 q 585 76 624 121 q 491 8 546 31 q 368 -14 436 -14 q 151 76 232 -14 q 69 347 69 165 q 151 619 69 529 q 368 708 232 708 q 491 686 436 708 q 585 619 546 664 q 645 506 624 574 q 667 347 667 439 m 528 347 q 515 470 528 419 q 481 552 503 521 q 431 597 460 583 q 368 611 401 611 q 306 597 335 611 q 255 552 276 583 q 221 470 233 521 q 208 347 208 419 q 221 224 208 274 q 255 142 233 174 q 306 97 276 111 q 368 83 335 83 q 431 97 401 83 q 481 142 460 111 q 515 224 503 174 q 528 347 528 274 z "},"p":{"ha":743,"x_min":104,"x_max":674,"o":"m 243 111 q 281 97 260 103 q 322 88 299 92 q 375 83 346 83 q 438 97 408 83 q 488 142 467 111 q 522 224 510 174 q 535 347 535 274 q 523 467 535 418 q 491 546 511 515 q 444 590 471 576 q 389 604 418 604 q 331 591 357 604 q 285 563 304 578 q 243 521 261 544 l 243 111 m 201 -278 l 104 -278 l 104 694 l 201 694 l 215 611 l 222 611 q 271 660 242 638 q 333 693 296 678 q 424 708 371 708 q 519 686 474 708 q 598 619 564 664 q 653 506 632 574 q 674 347 674 439 q 653 188 674 256 q 594 76 632 121 q 506 8 557 31 q 396 -14 456 -14 q 336 -8 364 -14 q 288 7 308 -1 q 243 28 263 15 l 243 -236 l 201 -278 z "},"q":{"ha":743,"x_min":69,"x_max":639,"o":"m 500 521 q 458 563 482 544 q 413 591 439 578 q 354 604 386 604 q 299 590 325 604 q 252 546 272 576 q 220 467 232 515 q 208 347 208 418 q 221 224 208 274 q 255 142 233 174 q 306 97 276 111 q 368 83 335 83 q 420 88 396 83 q 463 97 444 92 q 500 111 483 103 l 500 521 m 500 -236 l 500 28 q 454 7 479 15 q 406 -8 433 -1 q 347 -14 379 -14 q 237 8 288 -14 q 149 76 186 31 q 90 188 111 121 q 69 347 69 256 q 90 506 69 439 q 145 619 111 574 q 224 686 179 664 q 319 708 269 708 q 410 693 372 708 q 472 660 447 678 q 521 611 501 638 l 528 611 l 542 694 l 639 694 l 639 -278 l 542 -278 l 500 -236 z "},"r":{"ha":507,"x_min":104,"x_max":507,"o":"m 382 597 q 328 584 353 597 q 283 556 303 571 q 243 514 261 538 l 243 0 l 104 0 l 104 694 l 201 694 l 215 611 l 222 611 q 269 660 242 638 q 330 693 293 678 q 417 708 367 708 q 451 706 435 708 q 481 701 468 704 q 507 694 496 697 l 486 583 l 472 583 q 443 590 458 586 q 413 595 429 593 q 382 597 397 597 z "},"s":{"ha":639,"x_min":49,"x_max":590,"o":"m 306 -14 q 194 -3 243 -14 q 114 24 146 8 q 49 63 76 40 l 97 146 l 111 146 q 160 114 132 128 q 217 93 183 103 q 292 83 250 83 q 416 111 381 83 q 451 181 451 139 q 423 241 451 218 q 351 281 394 264 q 257 313 307 297 q 163 351 207 328 q 91 411 119 375 q 63 507 63 447 q 126 652 63 596 q 326 708 190 708 q 429 697 385 708 q 506 669 474 685 q 569 632 542 653 l 521 549 l 507 549 q 460 579 485 565 q 407 601 438 590 q 340 611 376 611 q 234 584 267 611 q 201 521 201 557 q 230 460 201 483 q 302 421 258 438 q 396 389 346 404 q 490 350 446 374 q 562 290 533 326 q 590 194 590 253 q 574 109 590 147 q 524 44 558 71 q 435 1 489 17 q 306 -14 381 -14 z "},"t":{"ha":556,"x_min":28,"x_max":556,"o":"m 271 208 q 299 115 271 146 q 375 83 328 83 q 419 92 399 83 q 457 111 440 100 q 493 139 476 124 l 507 139 l 556 56 q 500 21 531 36 q 438 -3 474 7 q 361 -14 403 -14 q 267 2 308 -14 q 194 47 225 18 q 148 117 164 76 q 132 208 132 158 l 132 597 l 28 597 l 28 681 l 208 861 l 271 861 l 271 694 l 444 694 l 444 597 l 271 597 l 271 208 z "},"u":{"ha":764,"x_min":104,"x_max":660,"o":"m 375 90 q 433 103 407 90 q 479 132 460 117 q 521 174 503 150 l 521 694 l 660 694 l 660 0 l 563 0 l 549 83 l 542 83 q 493 35 522 56 q 431 1 468 15 q 340 -14 393 -14 q 244 3 288 -14 q 170 52 201 21 q 122 126 139 83 q 104 222 104 169 l 104 694 l 243 694 l 243 222 q 280 127 243 164 q 375 90 317 90 z "},"v":{"ha":653,"x_min":21,"x_max":632,"o":"m 243 0 l 21 694 l 160 694 l 306 236 q 314 204 311 221 q 319 172 317 188 q 324 139 322 156 l 329 139 q 333 172 331 156 q 339 204 336 188 q 347 236 342 221 l 493 694 l 632 694 l 410 0 l 243 0 z "},"w":{"ha":986,"x_min":21,"x_max":965,"o":"m 576 694 l 688 271 q 694 239 692 256 q 699 210 696 222 q 703 181 701 194 l 708 181 q 711 210 708 194 q 722 271 714 238 l 833 694 l 965 694 l 785 0 l 632 0 l 514 438 q 507 467 510 450 q 501 499 504 483 q 496 535 499 515 l 490 535 q 485 499 488 515 q 478 467 482 483 q 472 438 475 450 l 354 0 l 201 0 l 21 694 l 153 694 l 264 271 q 270 239 268 256 q 275 210 272 222 q 278 181 276 194 l 283 181 q 286 210 283 194 q 292 239 289 222 q 299 271 294 256 l 410 694 l 576 694 z "},"x":{"ha":639,"x_min":21,"x_max":618,"o":"m 317 257 q 310 238 314 247 q 292 201 303 219 l 174 0 l 21 0 l 236 354 l 28 694 l 181 694 l 292 500 q 301 482 296 492 q 308 464 306 472 q 317 444 313 454 l 322 444 q 331 464 326 454 q 338 482 333 472 q 347 500 342 492 l 458 694 l 611 694 l 403 354 l 618 0 l 465 0 l 347 201 q 329 238 336 219 q 322 257 325 247 l 317 257 z "},"y":{"ha":660,"x_min":21,"x_max":639,"o":"m 174 -194 q 238 -167 210 -194 q 278 -97 267 -139 l 306 0 l 250 0 l 21 694 l 160 694 l 313 236 q 323 201 318 221 q 332 165 328 182 q 342 125 338 146 l 347 125 q 356 165 350 146 q 365 201 360 182 q 374 236 369 221 l 500 694 l 639 694 l 417 -97 q 335 -236 393 -181 q 188 -292 276 -292 q 130 -285 156 -292 q 86 -271 104 -279 q 49 -250 64 -262 l 83 -160 l 97 -160 q 119 -178 107 -171 q 144 -190 131 -185 q 174 -194 158 -194 z "},"z":{"ha":611,"x_min":49,"x_max":563,"o":"m 49 0 l 49 104 l 389 597 l 49 597 l 49 694 l 556 694 l 556 590 l 215 97 l 563 97 l 563 0 l 49 0 z "},"{":{"ha":451,"x_min":56,"x_max":438,"o":"m 56 438 q 134 467 108 438 q 160 569 160 496 l 160 819 q 219 958 160 903 q 389 1014 279 1014 l 438 1014 l 438 917 l 389 917 q 323 892 347 917 q 299 819 299 867 l 299 569 q 281 471 299 507 q 243 417 264 435 q 188 389 218 394 q 243 361 218 382 q 281 306 264 342 q 299 208 299 271 l 299 -42 q 323 -114 299 -89 q 389 -139 347 -139 l 438 -139 l 438 -236 l 389 -236 q 219 -181 279 -236 q 160 -42 160 -125 l 160 208 q 134 311 160 282 q 56 340 108 340 l 56 438 z "},"|":{"ha":389,"x_min":125,"x_max":264,"o":"m 264 972 l 264 -278 l 125 -278 l 125 972 l 264 972 z "},"}":{"ha":451,"x_min":14,"x_max":396,"o":"m 396 340 q 317 311 343 340 q 292 208 292 282 l 292 -42 q 232 -181 292 -125 q 63 -236 172 -236 l 14 -236 l 14 -139 l 63 -139 q 128 -114 104 -139 q 153 -42 153 -89 l 153 208 q 170 306 153 271 q 208 361 188 342 q 264 389 233 382 q 208 417 233 394 q 170 471 188 435 q 153 569 153 507 l 153 819 q 128 892 153 867 q 63 917 104 917 l 14 917 l 14 1014 l 63 1014 q 232 958 172 1014 q 292 819 292 903 l 292 569 q 317 467 292 496 q 396 438 343 438 l 396 340 z "},"~":{"ha":681,"x_min":35,"x_max":646,"o":"m 222 431 q 180 419 199 431 q 149 392 161 407 q 130 366 136 378 q 124 354 124 354 l 111 354 l 35 424 q 60 471 43 447 q 100 513 76 494 q 155 544 124 532 q 222 556 186 556 q 294 542 264 556 q 351 510 325 528 q 401 479 376 493 q 458 465 426 465 q 501 477 482 465 q 532 503 519 489 q 551 530 544 518 q 557 542 557 542 l 569 542 l 646 472 q 621 425 638 449 q 581 383 604 401 q 526 352 557 364 q 458 340 494 340 q 386 354 417 340 q 330 385 356 368 q 278 417 304 403 q 222 431 253 431 z "}," ":{"ha":403,"x_min":0,"x_max":0,"o":""},"¡":{"ha":403,"x_min":118,"x_max":285,"o":"m 146 444 l 257 444 l 285 -278 l 118 -278 l 146 444 m 118 625 q 142 685 118 661 q 201 708 165 708 q 261 685 238 708 q 285 625 285 661 q 261 565 285 589 q 201 542 238 542 q 142 565 165 542 q 118 625 118 589 z "},"¢":{"ha":632,"x_min":69,"x_max":604,"o":"m 431 778 l 431 701 q 497 683 467 694 q 547 660 526 671 q 590 632 572 646 l 542 549 l 528 549 q 482 579 507 565 q 434 601 461 590 q 375 611 407 611 q 308 597 339 611 q 256 552 278 583 q 221 470 233 521 q 208 347 208 419 q 257 142 208 201 q 389 83 306 83 q 448 93 421 83 q 496 114 475 103 q 542 146 521 128 l 556 146 l 604 63 q 557 32 583 47 q 502 8 533 19 q 431 -10 471 -4 l 431 -97 l 292 -97 l 292 -4 q 128 106 188 19 q 69 347 69 192 q 130 592 69 504 q 292 701 190 679 l 292 778 l 431 778 z "},"£":{"ha":660,"x_min":35,"x_max":646,"o":"m 382 986 q 483 974 440 986 q 554 947 525 963 q 611 910 588 931 l 563 826 l 549 826 q 508 857 532 843 q 460 878 489 868 q 396 889 432 889 q 313 851 349 889 q 278 750 278 813 l 278 556 l 465 556 l 465 458 l 278 458 l 278 347 q 263 220 278 268 q 229 144 247 172 q 181 97 207 113 l 646 97 l 646 0 l 35 0 l 35 97 q 86 139 63 108 q 122 215 106 165 q 139 347 139 264 l 139 458 l 49 458 l 49 556 l 139 556 l 139 750 q 158 843 139 800 q 208 918 176 886 q 285 968 240 950 q 382 986 329 986 z "},"¤":{"ha":799,"x_min":28,"x_max":736,"o":"m 28 319 l 139 319 l 139 375 l 28 375 l 28 458 l 139 458 l 139 972 l 389 972 q 651 893 567 972 q 736 667 736 814 q 651 453 736 531 q 389 375 567 375 l 278 375 l 278 319 l 625 319 l 625 236 l 278 236 l 278 0 l 139 0 l 139 236 l 28 236 l 28 319 m 389 458 q 597 667 597 458 q 389 875 597 875 l 278 875 l 278 458 l 389 458 z "},"¥":{"ha":736,"x_min":0,"x_max":736,"o":"m 438 250 l 438 0 l 299 0 l 299 250 l 90 250 l 90 347 l 286 347 l 251 424 l 90 424 l 90 521 l 207 521 l 0 972 l 146 972 l 340 549 q 351 521 346 535 q 358 494 356 507 q 365 465 363 479 l 371 465 q 378 494 374 479 q 385 521 381 507 q 396 549 389 535 l 590 972 l 736 972 l 529 521 l 646 521 l 646 424 l 485 424 l 450 347 l 646 347 l 646 250 l 438 250 z "},"¦":{"ha":389,"x_min":125,"x_max":264,"o":"m 125 -278 l 125 250 l 264 250 l 264 -278 l 125 -278 m 264 444 l 125 444 l 125 972 l 264 972 l 264 444 z "},"§":{"ha":708,"x_min":63,"x_max":646,"o":"m 333 -292 q 222 -281 271 -292 q 142 -254 174 -269 q 76 -215 104 -237 l 125 -132 l 139 -132 q 188 -164 160 -150 q 244 -185 211 -175 q 319 -194 278 -194 q 451 -156 408 -194 q 493 -56 493 -118 q 461 23 493 -7 q 381 76 429 53 q 278 119 333 99 q 174 172 222 140 q 94 249 126 203 q 63 368 63 294 q 89 487 63 435 q 167 571 115 539 q 101 640 126 599 q 76 743 76 681 q 149 919 76 853 q 368 986 221 986 q 471 974 426 986 q 547 947 515 963 q 611 910 583 931 l 563 826 l 549 826 q 501 857 526 843 q 449 878 479 868 q 382 889 418 889 q 257 852 299 889 q 215 757 215 815 q 247 678 215 708 q 327 626 279 649 q 431 582 375 603 q 534 530 486 561 q 614 452 582 499 q 646 333 646 406 q 544 128 646 193 q 608 60 583 100 q 632 -42 632 19 q 558 -224 632 -157 q 333 -292 485 -292 m 292 507 q 226 458 250 492 q 201 382 201 424 q 220 314 201 343 q 270 263 239 285 q 342 224 301 240 q 424 194 382 207 q 490 244 465 210 q 514 319 514 278 q 494 388 514 358 q 444 439 475 417 q 373 478 413 461 q 292 507 333 494 z "},"¨":{"ha":424,"x_min":14,"x_max":410,"o":"m 167 861 q 145 806 167 828 q 90 785 124 785 q 35 806 57 785 q 14 861 14 828 q 35 916 14 894 q 90 938 57 938 q 145 916 124 938 q 167 861 167 894 m 410 861 q 388 806 410 828 q 333 785 367 785 q 278 806 300 785 q 257 861 257 828 q 278 916 257 894 q 333 938 300 938 q 388 916 367 938 q 410 861 410 894 z "},"©":{"ha":1194,"x_min":56,"x_max":1139,"o":"m 597 1014 q 817 974 717 1014 q 988 865 917 935 q 1099 697 1060 794 q 1139 486 1139 600 q 1099 274 1139 371 q 988 108 1060 178 q 817 -2 917 38 q 597 -42 717 -42 q 378 -2 478 -42 q 206 108 278 38 q 95 274 135 178 q 56 486 56 371 q 95 697 56 600 q 206 865 135 794 q 378 974 278 935 q 597 1014 478 1014 m 597 917 q 433 885 508 917 q 301 795 357 853 q 213 658 244 738 q 181 486 181 579 q 213 313 181 392 q 301 177 244 235 q 433 88 357 119 q 597 56 508 56 q 762 88 686 56 q 894 177 838 119 q 982 313 950 235 q 1014 486 1014 392 q 982 658 1014 579 q 894 795 950 738 q 762 885 838 853 q 597 917 686 917 m 347 486 q 366 623 347 564 q 419 721 385 682 q 500 779 453 760 q 604 799 547 799 q 686 788 649 799 q 750 764 724 776 q 806 729 781 749 l 764 660 l 751 660 q 711 683 733 672 q 668 701 692 693 q 618 708 644 708 q 514 657 556 708 q 472 486 472 606 q 515 315 472 367 q 632 264 558 264 q 682 271 658 264 q 725 288 706 278 q 765 313 747 299 l 778 313 l 819 243 q 764 208 794 224 q 700 184 738 194 q 618 174 663 174 q 419 251 492 174 q 347 486 347 329 z "},"ª":{"ha":500,"x_min":49,"x_max":451,"o":"m 326 819 q 302 879 326 856 q 236 903 278 903 q 190 896 210 903 q 158 882 171 889 q 132 861 143 872 l 118 861 l 82 924 q 128 954 101 940 q 183 976 150 965 q 257 986 215 986 q 401 940 351 986 q 451 819 451 893 l 451 500 l 356 500 l 347 556 l 340 556 q 310 521 328 536 q 271 497 294 507 q 217 486 247 486 q 93 528 138 486 q 49 632 49 569 q 99 742 49 700 q 264 785 149 785 l 326 785 l 326 819 m 326 701 l 264 701 q 195 683 217 701 q 174 632 174 664 q 192 588 174 606 q 243 569 211 569 q 276 576 261 569 q 303 590 292 582 q 326 611 317 599 l 326 701 z "},"«":{"ha":660,"x_min":14,"x_max":632,"o":"m 403 83 l 313 0 l 14 347 l 313 694 l 403 611 l 181 347 l 403 83 m 542 646 l 632 563 l 451 347 l 632 132 l 542 49 l 285 347 l 542 646 z "},"¬":{"ha":639,"x_min":42,"x_max":597,"o":"m 472 458 l 42 458 l 42 569 l 597 569 l 597 333 l 472 333 l 472 458 z "},"­":{"ha":611,"x_min":42,"x_max":569,"o":"m 42 403 l 42 514 l 569 514 l 569 403 l 42 403 z "},"®":{"ha":1194,"x_min":56,"x_max":1139,"o":"m 597 1014 q 817 974 717 1014 q 988 865 917 935 q 1099 697 1060 794 q 1139 486 1139 600 q 1099 274 1139 371 q 988 108 1060 178 q 817 -2 917 38 q 597 -42 717 -42 q 378 -2 478 -42 q 206 108 278 38 q 95 274 135 178 q 56 486 56 371 q 95 697 56 600 q 206 865 135 794 q 378 974 278 935 q 597 1014 478 1014 m 597 917 q 433 885 508 917 q 301 795 357 853 q 213 658 244 738 q 181 486 181 579 q 213 313 181 392 q 301 177 244 235 q 433 88 357 119 q 597 56 508 56 q 762 88 686 56 q 894 177 838 119 q 982 313 950 235 q 1014 486 1014 392 q 982 658 1014 579 q 894 795 950 738 q 762 885 838 853 q 597 917 686 917 m 592 785 q 782 732 722 785 q 842 590 842 679 q 806 477 842 522 q 717 417 769 432 l 856 188 l 724 188 l 599 396 l 514 396 l 514 188 l 389 188 l 389 785 l 592 785 m 514 694 l 514 486 l 592 486 q 688 512 660 486 q 717 590 717 538 q 688 669 717 643 q 592 694 660 694 l 514 694 z "},"¯":{"ha":431,"x_min":28,"x_max":403,"o":"m 403 917 l 403 819 l 28 819 l 28 917 l 403 917 z "},"°":{"ha":528,"x_min":28,"x_max":500,"o":"m 500 750 q 483 654 500 697 q 434 580 465 611 q 359 531 403 549 q 264 514 315 514 q 168 531 211 514 q 94 580 125 549 q 45 654 63 611 q 28 750 28 697 q 45 845 28 801 q 94 920 63 889 q 168 969 125 951 q 264 986 211 986 q 359 969 315 986 q 434 920 403 951 q 483 845 465 889 q 500 750 500 801 m 375 750 q 343 860 375 824 q 264 896 311 896 q 185 860 217 896 q 153 750 153 824 q 185 640 153 676 q 264 604 217 604 q 343 640 311 604 q 375 750 375 676 z "},"±":{"ha":681,"x_min":56,"x_max":625,"o":"m 56 132 l 56 243 l 285 243 l 285 431 l 56 431 l 56 542 l 285 542 l 285 771 l 396 771 l 396 542 l 625 542 l 625 431 l 396 431 l 396 243 l 625 243 l 625 132 l 56 132 z "},"²":{"ha":458,"x_min":49,"x_max":410,"o":"m 410 826 q 392 758 410 786 q 349 710 375 731 q 292 676 322 690 q 235 648 261 661 q 191 619 208 635 q 174 583 174 604 l 410 583 l 410 500 l 49 500 l 49 556 q 66 631 49 600 q 110 685 83 663 q 167 722 136 707 q 224 753 197 738 q 267 785 250 768 q 285 826 285 801 q 206 903 285 903 q 161 896 181 903 q 129 882 142 889 q 104 861 114 872 l 90 861 l 54 924 q 100 954 74 940 q 155 976 122 965 q 229 986 188 986 q 361 940 313 986 q 410 826 410 894 z "},"³":{"ha":446,"x_min":28,"x_max":397,"o":"m 397 639 q 347 531 397 576 q 203 486 297 486 q 128 496 161 486 q 74 517 96 506 q 28 549 47 531 l 64 611 l 78 611 q 104 590 89 599 q 136 576 117 582 q 182 569 156 569 q 251 588 229 569 q 272 639 272 607 q 250 690 272 671 q 175 708 228 708 l 83 708 l 83 778 l 250 889 l 50 889 l 50 972 l 375 972 l 375 882 l 222 792 q 351 749 306 792 q 397 639 397 707 z "},"´":{"ha":243,"x_min":14,"x_max":229,"o":"m 229 972 l 104 764 l 14 764 l 76 972 l 229 972 z "},"µ":{"ha":764,"x_min":104,"x_max":660,"o":"m 104 694 l 243 694 l 243 222 q 280 127 243 164 q 375 90 317 90 q 433 101 407 90 q 479 125 460 111 q 521 160 503 140 l 521 694 l 660 694 l 660 0 l 563 0 l 549 69 l 542 69 q 490 28 518 46 q 433 -1 467 13 q 361 -14 400 -14 q 313 -8 335 -14 q 276 7 292 -1 q 243 28 258 15 l 243 -236 l 201 -278 l 104 -278 l 104 694 z "},"¶":{"ha":785,"x_min":35,"x_max":771,"o":"m 313 403 q 205 425 256 403 q 117 485 154 447 q 57 576 79 524 q 35 688 35 628 q 57 799 35 747 q 117 890 79 851 q 205 950 154 928 q 313 972 256 972 l 771 972 l 771 875 l 660 875 l 660 -278 l 535 -278 l 535 875 l 438 875 l 438 -278 l 313 -278 l 313 403 z "},"·":{"ha":403,"x_min":118,"x_max":285,"o":"m 118 486 q 142 546 118 522 q 201 569 165 569 q 261 546 238 569 q 285 486 285 522 q 261 426 285 450 q 201 403 238 403 q 142 426 165 403 q 118 486 118 450 z "},"¸":{"ha":271,"x_min":14,"x_max":257,"o":"m 132 -42 q 224 -74 190 -42 q 257 -153 257 -106 q 222 -232 257 -200 q 125 -264 188 -264 q 78 -260 99 -264 q 43 -250 58 -256 q 14 -236 26 -244 l 36 -181 l 49 -181 q 66 -191 47 -181 q 111 -201 85 -201 q 152 -187 138 -201 q 167 -153 167 -174 q 151 -118 167 -132 q 104 -104 136 -104 l 49 -104 l 49 28 l 132 28 l 132 -42 z "},"¹":{"ha":451,"x_min":49,"x_max":403,"o":"m 174 847 l 90 799 l 49 861 l 181 972 l 299 972 l 299 583 l 403 583 l 403 500 l 69 500 l 69 583 l 174 583 l 174 847 z "},"º":{"ha":542,"x_min":49,"x_max":493,"o":"m 271 903 q 201 866 229 903 q 174 736 174 829 q 181 657 174 689 q 201 606 189 625 q 232 578 214 586 q 271 569 250 569 q 310 578 292 569 q 340 606 328 586 q 360 657 353 625 q 368 736 368 689 q 340 866 368 829 q 271 903 313 903 m 271 986 q 432 922 371 986 q 493 736 493 857 q 432 551 493 615 q 271 486 371 486 q 110 551 171 486 q 49 736 49 615 q 110 922 49 857 q 271 986 171 986 z "},"»":{"ha":660,"x_min":28,"x_max":646,"o":"m 479 347 l 257 611 l 347 694 l 646 347 l 347 0 l 257 83 l 479 347 m 375 347 l 118 49 l 28 132 l 208 347 l 28 563 l 118 646 l 375 347 z "},"¼":{"ha":1056,"x_min":49,"x_max":1007,"o":"m 799 972 l 951 972 l 299 0 l 146 0 l 799 972 m 174 847 l 90 799 l 49 861 l 181 972 l 299 972 l 299 583 l 403 583 l 403 500 l 69 500 l 69 583 l 174 583 l 174 847 m 1007 181 l 1007 97 l 938 97 l 938 0 l 813 0 l 813 97 l 576 97 l 576 181 l 813 472 l 938 472 l 938 181 l 1007 181 m 688 181 l 813 181 l 813 306 q 817 343 813 324 q 821 365 818 354 l 815 365 q 807 342 813 353 q 798 322 803 332 q 789 306 793 311 l 688 181 z "},"½":{"ha":1042,"x_min":49,"x_max":993,"o":"m 799 972 l 951 972 l 299 0 l 146 0 l 799 972 m 174 847 l 90 799 l 49 861 l 181 972 l 299 972 l 299 583 l 403 583 l 403 500 l 69 500 l 69 583 l 174 583 l 174 847 m 993 326 q 976 258 993 286 q 932 210 958 231 q 875 176 906 190 q 818 148 844 161 q 774 119 792 135 q 757 83 757 104 l 993 83 l 993 0 l 632 0 l 632 56 q 649 131 632 100 q 693 185 667 163 q 750 222 719 207 q 807 253 781 238 q 851 285 833 268 q 868 326 868 301 q 789 403 868 403 q 744 396 764 403 q 713 382 725 389 q 688 361 697 372 l 674 361 l 638 424 q 683 454 657 440 q 738 476 706 465 q 813 486 771 486 q 944 440 896 486 q 993 326 993 394 z "},"¾":{"ha":1042,"x_min":49,"x_max":993,"o":"m 785 972 l 938 972 l 285 0 l 132 0 l 785 972 m 993 181 l 993 97 l 924 97 l 924 0 l 799 0 l 799 97 l 563 97 l 563 181 l 799 472 l 924 472 l 924 181 l 993 181 m 674 181 l 799 181 l 799 306 q 803 343 799 324 q 807 365 804 354 l 801 365 q 793 342 799 353 q 784 322 789 332 q 775 306 779 311 l 674 181 m 418 639 q 368 531 418 576 q 224 486 318 486 q 149 496 182 486 q 94 517 117 506 q 49 549 68 531 l 85 611 l 99 611 q 125 590 110 599 q 157 576 138 582 q 203 569 176 569 q 272 588 250 569 q 293 639 293 607 q 271 690 293 671 q 196 708 249 708 l 104 708 l 104 778 l 271 889 l 71 889 l 71 972 l 396 972 l 396 882 l 243 792 q 372 749 326 792 q 418 639 418 707 z "},"¿":{"ha":639,"x_min":56,"x_max":639,"o":"m 471 625 q 447 565 471 589 q 388 542 424 542 q 328 565 351 542 q 304 625 304 589 q 328 685 304 661 q 388 708 351 708 q 447 685 424 708 q 471 625 471 661 m 325 444 l 450 444 l 450 389 q 431 289 450 331 q 384 215 413 247 q 322 158 356 183 q 260 104 289 132 q 213 42 232 76 q 194 -42 194 7 q 244 -149 194 -104 q 382 -194 293 -194 q 465 -185 429 -194 q 526 -164 501 -175 q 576 -132 556 -150 l 590 -132 l 639 -215 q 571 -254 610 -237 q 486 -281 536 -269 q 368 -292 436 -292 q 235 -272 293 -292 q 137 -217 176 -253 q 76 -133 97 -182 q 56 -28 56 -85 q 76 72 56 31 q 126 145 96 114 q 190 201 156 176 q 255 253 225 226 q 305 311 285 279 q 325 389 325 343 l 325 444 z "},"À":{"ha":792,"x_min":21,"x_max":771,"o":"m 21 0 m 632 0 l 556 250 l 236 250 l 160 0 l 21 0 l 306 972 l 486 972 l 771 0 l 632 0 m 264 347 l 528 347 l 417 729 q 408 762 411 744 q 403 794 406 779 q 399 826 400 811 l 393 826 q 389 793 392 810 q 383 761 386 778 q 375 729 379 744 l 264 347 m 385 1250 l 447 1042 l 357 1042 l 232 1250 l 385 1250 z "},"Á":{"ha":792,"x_min":21,"x_max":771,"o":"m 21 0 m 632 0 l 556 250 l 236 250 l 160 0 l 21 0 l 306 972 l 486 972 l 771 0 l 632 0 m 264 347 l 528 347 l 417 729 q 408 762 411 744 q 403 794 406 779 q 399 826 400 811 l 393 826 q 389 793 392 810 q 383 761 386 778 q 375 729 379 744 l 264 347 m 544 1250 l 419 1042 l 329 1042 l 392 1250 l 544 1250 z "},"Â":{"ha":792,"x_min":21,"x_max":771,"o":"m 21 0 m 632 0 l 556 250 l 236 250 l 160 0 l 21 0 l 306 972 l 486 972 l 771 0 l 632 0 m 264 347 l 528 347 l 417 729 q 408 762 411 744 q 403 794 406 779 q 399 826 400 811 l 393 826 q 389 793 392 810 q 383 761 386 778 q 375 729 379 744 l 264 347 m 444 1222 l 590 1042 l 500 1042 l 396 1132 l 292 1042 l 201 1042 l 347 1222 l 444 1222 z "},"Ã":{"ha":792,"x_min":21,"x_max":771,"o":"m 21 0 m 632 0 l 556 250 l 236 250 l 160 0 l 21 0 l 306 972 l 486 972 l 771 0 l 632 0 m 264 347 l 528 347 l 417 729 q 408 762 411 744 q 403 794 406 779 q 399 826 400 811 l 393 826 q 389 793 392 810 q 383 761 386 778 q 375 729 379 744 l 264 347 m 522 1194 l 578 1160 q 533 1077 563 1113 q 453 1042 504 1042 q 410 1051 426 1042 q 380 1073 393 1061 q 355 1094 367 1085 q 328 1104 343 1104 q 300 1095 313 1104 q 279 1076 288 1086 q 267 1057 271 1065 q 264 1049 264 1049 l 251 1049 l 196 1083 q 215 1128 204 1107 q 240 1166 225 1150 q 275 1192 256 1182 q 321 1201 294 1201 q 364 1192 347 1201 q 394 1170 381 1182 q 419 1149 407 1158 q 446 1139 431 1139 q 474 1147 461 1139 q 494 1166 486 1156 q 506 1185 503 1176 q 510 1194 510 1194 l 522 1194 z "},"Ä":{"ha":792,"x_min":21,"x_max":771,"o":"m 21 0 m 632 0 l 556 250 l 236 250 l 160 0 l 21 0 l 306 972 l 486 972 l 771 0 l 632 0 m 264 347 l 528 347 l 417 729 q 408 762 411 744 q 403 794 406 779 q 399 826 400 811 l 393 826 q 389 793 392 810 q 383 761 386 778 q 375 729 379 744 l 264 347 m 347 1125 q 326 1070 347 1092 q 271 1049 304 1049 q 216 1070 238 1049 q 194 1125 194 1092 q 216 1180 194 1158 q 271 1201 238 1201 q 326 1180 304 1201 q 347 1125 347 1158 m 590 1125 q 569 1070 590 1092 q 514 1049 547 1049 q 459 1070 481 1049 q 438 1125 438 1092 q 459 1180 438 1158 q 514 1201 481 1201 q 569 1180 547 1201 q 590 1125 590 1158 z "},"Å":{"ha":792,"x_min":21,"x_max":771,"o":"m 21 0 m 632 0 l 556 250 l 236 250 l 160 0 l 21 0 l 306 972 l 486 972 l 771 0 l 632 0 m 264 347 l 528 347 l 417 729 q 408 762 411 744 q 403 794 406 779 q 399 826 400 811 l 393 826 q 389 793 392 810 q 383 761 386 778 q 375 729 379 744 l 264 347 m 396 1222 q 358 1207 375 1222 q 340 1160 340 1192 q 358 1113 340 1128 q 396 1097 375 1097 q 434 1113 417 1097 q 451 1160 451 1128 q 434 1207 451 1192 q 396 1222 417 1222 m 396 1292 q 497 1255 458 1292 q 535 1160 535 1218 q 497 1065 535 1101 q 396 1028 458 1028 q 295 1065 333 1028 q 257 1160 257 1101 q 295 1255 257 1218 q 396 1292 333 1292 z "},"Æ":{"ha":1132,"x_min":-28,"x_max":1090,"o":"m 549 0 l 549 278 l 229 278 l 111 0 l -28 0 l 382 972 l 1090 972 l 1090 875 l 688 875 l 688 556 l 1007 556 l 1007 458 l 688 458 l 688 97 l 1090 97 l 1090 0 l 549 0 m 271 375 l 549 375 l 549 875 l 479 875 l 271 375 z "},"Ç":{"ha":715,"x_min":76,"x_max":681,"o":"m 76 0 m 76 486 q 101 716 76 621 q 172 872 126 811 q 282 959 218 932 q 424 986 346 986 q 526 974 482 986 q 603 947 571 963 q 667 910 639 931 l 618 826 l 604 826 q 557 857 582 843 q 504 878 535 868 q 438 889 474 889 q 350 869 390 889 q 280 802 310 849 q 233 678 250 756 q 215 486 215 600 q 233 294 215 371 q 281 170 250 217 q 356 103 313 124 q 451 83 399 83 q 518 93 488 83 q 571 114 549 103 q 618 146 596 128 l 632 146 l 681 63 q 617 24 653 40 q 540 -3 585 8 q 438 -14 496 -14 q 288 13 354 -14 q 174 101 221 40 q 101 256 126 161 q 76 486 76 350 m 438 -42 q 529 -74 496 -42 q 563 -153 563 -106 q 528 -232 563 -200 q 431 -264 493 -264 q 384 -260 404 -264 q 349 -250 364 -256 q 319 -236 332 -244 l 342 -181 l 354 -181 q 372 -191 353 -181 q 417 -201 390 -201 q 458 -187 443 -201 q 472 -153 472 -174 q 457 -118 472 -132 q 410 -104 442 -104 l 354 -104 l 354 28 l 438 28 l 438 -42 z "},"È":{"ha":708,"x_min":125,"x_max":667,"o":"m 125 0 m 125 0 l 125 972 l 667 972 l 667 875 l 264 875 l 264 556 l 583 556 l 583 458 l 264 458 l 264 97 l 667 97 l 667 0 l 125 0 m 403 1250 l 465 1042 l 375 1042 l 250 1250 l 403 1250 z "},"É":{"ha":708,"x_min":125,"x_max":667,"o":"m 125 0 m 125 0 l 125 972 l 667 972 l 667 875 l 264 875 l 264 556 l 583 556 l 583 458 l 264 458 l 264 97 l 667 97 l 667 0 l 125 0 m 535 1250 l 410 1042 l 319 1042 l 382 1250 l 535 1250 z "},"Ê":{"ha":708,"x_min":125,"x_max":667,"o":"m 125 0 m 125 0 l 125 972 l 667 972 l 667 875 l 264 875 l 264 556 l 583 556 l 583 458 l 264 458 l 264 97 l 667 97 l 667 0 l 125 0 m 447 1236 l 593 1056 l 503 1056 l 399 1146 l 294 1056 l 204 1056 l 350 1236 l 447 1236 z "},"Ë":{"ha":708,"x_min":125,"x_max":667,"o":"m 125 0 m 125 0 l 125 972 l 667 972 l 667 875 l 264 875 l 264 556 l 583 556 l 583 458 l 264 458 l 264 97 l 667 97 l 667 0 l 125 0 m 350 1139 q 328 1084 350 1106 q 274 1063 307 1063 q 219 1084 240 1063 q 197 1139 197 1106 q 219 1194 197 1172 q 274 1215 240 1215 q 328 1194 307 1215 q 350 1139 350 1172 m 593 1139 q 572 1084 593 1106 q 517 1063 550 1063 q 462 1084 483 1063 q 440 1139 440 1106 q 462 1194 440 1172 q 517 1215 483 1215 q 572 1194 550 1215 q 593 1139 593 1172 z "},"Ì":{"ha":386,"x_min":28,"x_max":263,"o":"m 28 0 m 124 972 l 263 972 l 263 0 l 124 0 l 124 972 m 181 1250 l 243 1042 l 153 1042 l 28 1250 l 181 1250 z "},"Í":{"ha":385,"x_min":125,"x_max":357,"o":"m 125 0 m 125 972 l 264 972 l 264 0 l 125 0 l 125 972 m 357 1250 l 232 1042 l 142 1042 l 204 1250 l 357 1250 z "},"Î":{"ha":375,"x_min":-6,"x_max":383,"o":"m 0 0 m 119 972 l 258 972 l 258 0 l 119 0 l 119 972 m 238 1236 l 383 1056 l 293 1056 l 189 1146 l 85 1056 l -6 1056 l 140 1236 l 238 1236 z "},"Ï":{"ha":361,"x_min":-19,"x_max":376,"o":"m 0 0 m 113 972 l 251 972 l 251 0 l 113 0 l 113 972 m 133 1139 q 112 1084 133 1106 q 57 1063 90 1063 q 2 1084 24 1063 q -19 1139 -19 1106 q 2 1194 -19 1172 q 57 1215 24 1215 q 112 1194 90 1215 q 133 1139 133 1172 m 376 1139 q 355 1084 376 1106 q 300 1063 333 1063 q 245 1084 267 1063 q 224 1139 224 1106 q 245 1194 224 1172 q 300 1215 267 1215 q 355 1194 333 1215 q 376 1139 376 1172 z "},"Ð":{"ha":813,"x_min":49,"x_max":736,"o":"m 125 0 l 125 444 l 49 444 l 49 556 l 125 556 l 125 972 l 333 972 q 508 945 432 972 q 634 860 583 918 q 710 709 685 801 q 736 486 736 617 q 710 263 736 356 q 634 113 685 171 q 508 27 583 54 q 333 0 432 0 l 125 0 m 333 97 q 445 117 396 97 q 528 182 494 136 q 579 302 561 228 q 597 486 597 376 q 579 670 597 596 q 528 790 561 744 q 445 856 494 836 q 333 875 396 875 l 264 875 l 264 556 l 424 556 l 424 444 l 264 444 l 264 97 l 333 97 z "},"Ñ":{"ha":875,"x_min":125,"x_max":750,"o":"m 125 0 m 306 618 q 292 653 299 633 q 278 693 285 674 q 264 736 271 714 l 258 736 q 261 693 260 714 q 263 653 263 674 q 264 618 264 633 l 264 0 l 125 0 l 125 972 l 278 972 l 569 354 q 583 318 576 339 q 597 279 590 297 q 611 236 604 257 l 617 236 q 614 279 615 257 q 612 318 613 297 q 611 354 611 339 l 611 972 l 750 972 l 750 0 l 597 0 l 306 618 m 564 1194 l 619 1160 q 575 1077 604 1113 q 494 1042 546 1042 q 451 1051 468 1042 q 422 1073 435 1061 q 397 1094 408 1085 q 369 1104 385 1104 q 342 1095 354 1104 q 321 1076 329 1086 q 309 1057 313 1065 q 306 1049 306 1049 l 293 1049 l 238 1083 q 256 1128 246 1107 q 282 1166 267 1150 q 317 1192 297 1182 q 363 1201 336 1201 q 406 1192 389 1201 q 435 1170 422 1182 q 460 1149 449 1158 q 488 1139 472 1139 q 515 1147 503 1139 q 536 1166 528 1156 q 548 1185 544 1176 q 551 1194 551 1194 l 564 1194 z "},"Ò":{"ha":833,"x_min":76,"x_max":757,"o":"m 76 0 m 215 486 q 232 294 215 371 q 277 170 249 217 q 342 103 306 124 q 417 83 378 83 q 492 103 456 83 q 556 170 528 124 q 601 294 585 217 q 618 486 618 371 q 601 678 618 600 q 556 802 585 756 q 492 869 528 849 q 417 889 456 889 q 342 869 378 889 q 277 802 306 849 q 232 678 249 756 q 215 486 215 600 m 757 486 q 732 256 757 350 q 663 101 707 161 q 555 13 618 40 q 417 -14 492 -14 q 278 13 342 -14 q 171 101 215 40 q 101 256 126 161 q 76 486 76 350 q 101 716 76 621 q 171 872 126 811 q 278 959 215 932 q 417 986 342 986 q 555 959 492 986 q 663 872 618 932 q 732 716 707 811 q 757 486 757 621 m 419 1250 l 482 1042 l 392 1042 l 267 1250 l 419 1250 z "},"Ó":{"ha":833,"x_min":76,"x_max":757,"o":"m 76 0 m 215 486 q 232 294 215 371 q 277 170 249 217 q 342 103 306 124 q 417 83 378 83 q 492 103 456 83 q 556 170 528 124 q 601 294 585 217 q 618 486 618 371 q 601 678 618 600 q 556 802 585 756 q 492 869 528 849 q 417 889 456 889 q 342 869 378 889 q 277 802 306 849 q 232 678 249 756 q 215 486 215 600 m 757 486 q 732 256 757 350 q 663 101 707 161 q 555 13 618 40 q 417 -14 492 -14 q 278 13 342 -14 q 171 101 215 40 q 101 256 126 161 q 76 486 76 350 q 101 716 76 621 q 171 872 126 811 q 278 959 215 932 q 417 986 342 986 q 555 959 492 986 q 663 872 618 932 q 732 716 707 811 q 757 486 757 621 m 565 1250 l 440 1042 l 350 1042 l 413 1250 l 565 1250 z "},"Ô":{"ha":833,"x_min":76,"x_max":757,"o":"m 76 0 m 215 486 q 232 294 215 371 q 277 170 249 217 q 342 103 306 124 q 417 83 378 83 q 492 103 456 83 q 556 170 528 124 q 601 294 585 217 q 618 486 618 371 q 601 678 618 600 q 556 802 585 756 q 492 869 528 849 q 417 889 456 889 q 342 869 378 889 q 277 802 306 849 q 232 678 249 756 q 215 486 215 600 m 757 486 q 732 256 757 350 q 663 101 707 161 q 555 13 618 40 q 417 -14 492 -14 q 278 13 342 -14 q 171 101 215 40 q 101 256 126 161 q 76 486 76 350 q 101 716 76 621 q 171 872 126 811 q 278 959 215 932 q 417 986 342 986 q 555 959 492 986 q 663 872 618 932 q 732 716 707 811 q 757 486 757 621 m 465 1236 l 611 1056 l 521 1056 l 417 1146 l 313 1056 l 222 1056 l 368 1236 l 465 1236 z "},"Õ":{"ha":833,"x_min":76,"x_max":757,"o":"m 76 0 m 215 486 q 232 294 215 371 q 277 170 249 217 q 342 103 306 124 q 417 83 378 83 q 492 103 456 83 q 556 170 528 124 q 601 294 585 217 q 618 486 618 371 q 601 678 618 600 q 556 802 585 756 q 492 869 528 849 q 417 889 456 889 q 342 869 378 889 q 277 802 306 849 q 232 678 249 756 q 215 486 215 600 m 757 486 q 732 256 757 350 q 663 101 707 161 q 555 13 618 40 q 417 -14 492 -14 q 278 13 342 -14 q 171 101 215 40 q 101 256 126 161 q 76 486 76 350 q 101 716 76 621 q 171 872 126 811 q 278 959 215 932 q 417 986 342 986 q 555 959 492 986 q 663 872 618 932 q 732 716 707 811 q 757 486 757 621 m 543 1208 l 599 1174 q 554 1091 583 1126 q 474 1056 525 1056 q 431 1065 447 1056 q 401 1087 414 1075 q 376 1108 388 1099 q 349 1118 364 1118 q 321 1109 333 1118 q 300 1090 308 1100 q 288 1071 292 1079 q 285 1063 285 1063 l 272 1063 l 217 1097 q 235 1142 225 1121 q 261 1180 246 1164 q 296 1206 276 1196 q 342 1215 315 1215 q 385 1206 368 1215 q 415 1184 401 1196 q 440 1163 428 1172 q 467 1153 451 1153 q 494 1161 482 1153 q 515 1180 507 1169 q 527 1199 524 1190 q 531 1208 531 1208 l 543 1208 z "},"Ö":{"ha":833,"x_min":76,"x_max":757,"o":"m 76 0 m 215 486 q 232 294 215 371 q 277 170 249 217 q 342 103 306 124 q 417 83 378 83 q 492 103 456 83 q 556 170 528 124 q 601 294 585 217 q 618 486 618 371 q 601 678 618 600 q 556 802 585 756 q 492 869 528 849 q 417 889 456 889 q 342 869 378 889 q 277 802 306 849 q 232 678 249 756 q 215 486 215 600 m 757 486 q 732 256 757 350 q 663 101 707 161 q 555 13 618 40 q 417 -14 492 -14 q 278 13 342 -14 q 171 101 215 40 q 101 256 126 161 q 76 486 76 350 q 101 716 76 621 q 171 872 126 811 q 278 959 215 932 q 417 986 342 986 q 555 959 492 986 q 663 872 618 932 q 732 716 707 811 q 757 486 757 621 m 368 1139 q 347 1084 368 1106 q 292 1063 325 1063 q 237 1084 258 1063 q 215 1139 215 1106 q 237 1194 215 1172 q 292 1215 258 1215 q 347 1194 325 1215 q 368 1139 368 1172 m 611 1139 q 590 1084 611 1106 q 535 1063 568 1063 q 480 1084 501 1063 q 458 1139 458 1106 q 480 1194 458 1172 q 535 1215 501 1215 q 590 1194 568 1215 q 611 1139 611 1172 z "},"×":{"ha":607,"x_min":63,"x_max":544,"o":"m 304 379 l 142 218 l 63 296 l 225 458 l 63 621 l 142 699 l 304 538 l 465 699 l 544 621 l 382 458 l 544 296 l 465 218 l 304 379 z "},"Ø":{"ha":833,"x_min":76,"x_max":757,"o":"m 154 124 q 97 274 117 185 q 76 486 76 363 q 101 716 76 621 q 171 872 126 811 q 278 959 215 932 q 417 986 342 986 q 611 924 532 986 l 639 972 l 750 972 l 679 847 q 737 698 717 788 q 757 486 757 608 q 732 256 757 350 q 663 101 707 161 q 555 13 618 40 q 417 -14 492 -14 q 311 1 360 -14 q 222 49 263 17 l 194 0 l 83 0 l 154 124 m 215 486 q 221 366 215 419 q 238 269 226 313 l 549 814 q 487 872 521 854 q 417 889 453 889 q 342 869 378 889 q 277 802 306 849 q 232 678 249 756 q 215 486 215 600 m 618 486 q 613 606 618 553 q 596 701 607 660 l 285 157 q 347 100 313 117 q 417 83 381 83 q 492 103 456 83 q 556 170 528 124 q 601 294 585 217 q 618 486 618 371 z "},"Ù":{"ha":861,"x_min":118,"x_max":743,"o":"m 118 0 m 431 83 q 557 137 510 83 q 604 306 604 190 l 604 972 l 743 972 l 743 306 q 663 67 743 149 q 431 -14 582 -14 q 199 67 279 -14 q 118 306 118 149 l 118 972 l 257 972 l 257 306 q 304 137 257 190 q 431 83 351 83 m 433 1222 l 496 1014 l 406 1014 l 281 1222 l 433 1222 z "},"Ú":{"ha":861,"x_min":118,"x_max":743,"o":"m 118 0 m 431 83 q 557 137 510 83 q 604 306 604 190 l 604 972 l 743 972 l 743 306 q 663 67 743 149 q 431 -14 582 -14 q 199 67 279 -14 q 118 306 118 149 l 118 972 l 257 972 l 257 306 q 304 137 257 190 q 431 83 351 83 m 593 1222 l 468 1014 l 378 1014 l 440 1222 l 593 1222 z "},"Û":{"ha":861,"x_min":118,"x_max":743,"o":"m 118 0 m 431 83 q 557 137 510 83 q 604 306 604 190 l 604 972 l 743 972 l 743 306 q 663 67 743 149 q 431 -14 582 -14 q 199 67 279 -14 q 118 306 118 149 l 118 972 l 257 972 l 257 306 q 304 137 257 190 q 431 83 351 83 m 479 1236 l 625 1056 l 535 1056 l 431 1146 l 326 1056 l 236 1056 l 382 1236 l 479 1236 z "},"Ü":{"ha":861,"x_min":118,"x_max":743,"o":"m 118 0 m 431 83 q 557 137 510 83 q 604 306 604 190 l 604 972 l 743 972 l 743 306 q 663 67 743 149 q 431 -14 582 -14 q 199 67 279 -14 q 118 306 118 149 l 118 972 l 257 972 l 257 306 q 304 137 257 190 q 431 83 351 83 m 382 1139 q 360 1084 382 1106 q 306 1063 339 1063 q 251 1084 272 1063 q 229 1139 229 1106 q 251 1194 229 1172 q 306 1215 272 1215 q 360 1194 339 1215 q 382 1139 382 1172 m 625 1139 q 603 1084 625 1106 q 549 1063 582 1063 q 494 1084 515 1063 q 472 1139 472 1106 q 494 1194 472 1172 q 549 1215 515 1215 q 603 1194 582 1215 q 625 1139 625 1172 z "},"Ý":{"ha":736,"x_min":0,"x_max":736,"o":"m 0 0 m 590 972 l 736 972 l 438 319 l 438 0 l 299 0 l 299 319 l 0 972 l 146 972 l 340 549 q 351 521 346 535 q 358 494 356 507 q 365 465 363 479 l 371 465 q 378 494 374 479 q 385 521 381 507 q 396 549 389 535 l 590 972 m 531 1222 l 406 1014 l 315 1014 l 378 1222 l 531 1222 z "},"Þ":{"ha":854,"x_min":125,"x_max":792,"o":"m 264 792 l 264 181 l 389 181 q 581 258 510 181 q 653 486 653 335 q 581 715 653 638 q 389 792 510 792 l 264 792 m 264 889 l 389 889 q 688 785 583 889 q 792 486 792 681 q 688 188 792 292 q 389 83 583 83 l 264 83 l 264 -28 l 125 -28 l 125 1000 l 264 1000 l 264 889 z "},"ß":{"ha":861,"x_min":49,"x_max":813,"o":"m 528 83 q 635 123 596 83 q 674 236 674 163 q 656 306 674 276 q 610 362 638 336 q 552 413 583 388 q 494 467 521 438 q 449 535 467 497 q 431 625 431 572 q 437 671 431 651 q 451 708 443 690 q 466 746 460 726 q 472 792 472 765 q 445 861 472 833 q 382 889 418 889 q 306 858 335 889 q 278 764 278 826 l 278 0 l 139 0 l 139 583 l 49 583 l 49 681 l 139 681 l 139 764 q 155 855 139 814 q 201 925 171 896 q 274 970 232 954 q 368 986 315 986 q 550 931 489 986 q 611 792 611 875 q 602 740 611 760 q 583 703 593 719 q 564 669 572 686 q 556 625 556 651 q 574 561 556 589 q 622 509 593 533 q 684 461 651 485 q 746 408 717 438 q 794 340 775 378 q 813 250 813 301 q 740 58 813 129 q 542 -14 668 -14 q 477 -8 506 -14 q 429 7 449 -1 q 389 28 406 15 l 424 118 l 438 118 q 461 100 447 107 q 490 88 472 93 q 528 83 507 83 z "},"à":{"ha":708,"x_min":63,"x_max":611,"o":"m 63 0 m 472 444 q 433 569 472 528 q 326 611 394 611 q 267 601 294 611 q 218 579 239 590 q 174 549 193 565 l 160 549 l 111 632 q 174 669 138 653 q 246 697 204 685 q 340 708 288 708 q 450 689 400 708 q 535 634 500 669 q 591 550 571 599 q 611 444 611 501 l 611 0 l 514 0 l 500 83 l 493 83 q 444 35 474 56 q 382 1 419 15 q 292 -14 344 -14 q 122 44 182 -14 q 63 201 63 101 q 79 287 63 249 q 131 352 96 325 q 224 394 167 379 q 361 410 281 410 l 472 410 l 472 444 m 472 313 l 361 313 q 240 281 278 313 q 201 201 201 249 q 233 119 201 149 q 326 90 264 90 q 385 103 358 90 q 431 132 411 117 q 472 174 454 150 l 472 313 m 343 972 l 406 764 l 315 764 l 190 972 l 343 972 z "},"á":{"ha":708,"x_min":63,"x_max":611,"o":"m 63 0 m 472 444 q 433 569 472 528 q 326 611 394 611 q 267 601 294 611 q 218 579 239 590 q 174 549 193 565 l 160 549 l 111 632 q 174 669 138 653 q 246 697 204 685 q 340 708 288 708 q 450 689 400 708 q 535 634 500 669 q 591 550 571 599 q 611 444 611 501 l 611 0 l 514 0 l 500 83 l 493 83 q 444 35 474 56 q 382 1 419 15 q 292 -14 344 -14 q 122 44 182 -14 q 63 201 63 101 q 79 287 63 249 q 131 352 96 325 q 224 394 167 379 q 361 410 281 410 l 472 410 l 472 444 m 472 313 l 361 313 q 240 281 278 313 q 201 201 201 249 q 233 119 201 149 q 326 90 264 90 q 385 103 358 90 q 431 132 411 117 q 472 174 454 150 l 472 313 m 503 972 l 378 764 l 288 764 l 350 972 l 503 972 z "},"â":{"ha":708,"x_min":63,"x_max":611,"o":"m 63 0 m 472 444 q 433 569 472 528 q 326 611 394 611 q 267 601 294 611 q 218 579 239 590 q 174 549 193 565 l 160 549 l 111 632 q 174 669 138 653 q 246 697 204 685 q 340 708 288 708 q 450 689 400 708 q 535 634 500 669 q 591 550 571 599 q 611 444 611 501 l 611 0 l 514 0 l 500 83 l 493 83 q 444 35 474 56 q 382 1 419 15 q 292 -14 344 -14 q 122 44 182 -14 q 63 201 63 101 q 79 287 63 249 q 131 352 96 325 q 224 394 167 379 q 361 410 281 410 l 472 410 l 472 444 m 472 313 l 361 313 q 240 281 278 313 q 201 201 201 249 q 233 119 201 149 q 326 90 264 90 q 385 103 358 90 q 431 132 411 117 q 472 174 454 150 l 472 313 m 403 958 l 549 778 l 458 778 l 354 868 l 250 778 l 160 778 l 306 958 l 403 958 z "},"ã":{"ha":708,"x_min":63,"x_max":611,"o":"m 63 0 m 472 444 q 433 569 472 528 q 326 611 394 611 q 267 601 294 611 q 218 579 239 590 q 174 549 193 565 l 160 549 l 111 632 q 174 669 138 653 q 246 697 204 685 q 340 708 288 708 q 450 689 400 708 q 535 634 500 669 q 591 550 571 599 q 611 444 611 501 l 611 0 l 514 0 l 500 83 l 493 83 q 444 35 474 56 q 382 1 419 15 q 292 -14 344 -14 q 122 44 182 -14 q 63 201 63 101 q 79 287 63 249 q 131 352 96 325 q 224 394 167 379 q 361 410 281 410 l 472 410 l 472 444 m 472 313 l 361 313 q 240 281 278 313 q 201 201 201 249 q 233 119 201 149 q 326 90 264 90 q 385 103 358 90 q 431 132 411 117 q 472 174 454 150 l 472 313 m 481 932 l 536 897 q 492 815 521 850 q 411 779 463 779 q 368 789 385 779 q 338 810 351 799 q 313 832 325 822 q 286 842 301 842 q 258 833 271 842 q 238 813 246 824 q 226 794 229 803 q 222 786 222 786 l 210 786 l 154 821 q 173 866 163 844 q 199 903 183 888 q 233 929 214 919 q 279 939 253 939 q 322 929 306 939 q 352 908 339 919 q 377 886 365 896 q 404 876 389 876 q 432 885 419 876 q 453 903 444 893 q 465 923 461 914 q 468 932 468 932 l 481 932 z "},"ä":{"ha":708,"x_min":63,"x_max":611,"o":"m 63 0 m 472 444 q 433 569 472 528 q 326 611 394 611 q 267 601 294 611 q 218 579 239 590 q 174 549 193 565 l 160 549 l 111 632 q 174 669 138 653 q 246 697 204 685 q 340 708 288 708 q 450 689 400 708 q 535 634 500 669 q 591 550 571 599 q 611 444 611 501 l 611 0 l 514 0 l 500 83 l 493 83 q 444 35 474 56 q 382 1 419 15 q 292 -14 344 -14 q 122 44 182 -14 q 63 201 63 101 q 79 287 63 249 q 131 352 96 325 q 224 394 167 379 q 361 410 281 410 l 472 410 l 472 444 m 472 313 l 361 313 q 240 281 278 313 q 201 201 201 249 q 233 119 201 149 q 326 90 264 90 q 385 103 358 90 q 431 132 411 117 q 472 174 454 150 l 472 313 m 306 861 q 284 806 306 828 q 229 785 263 785 q 174 806 196 785 q 153 861 153 828 q 174 916 153 894 q 229 938 196 938 q 284 916 263 938 q 306 861 306 894 m 549 861 q 527 806 549 828 q 472 785 506 785 q 417 806 439 785 q 396 861 396 828 q 417 916 396 894 q 472 938 439 938 q 527 916 506 938 q 549 861 549 894 z "},"å":{"ha":708,"x_min":63,"x_max":611,"o":"m 63 0 m 472 444 q 433 569 472 528 q 326 611 394 611 q 267 601 294 611 q 218 579 239 590 q 174 549 193 565 l 160 549 l 111 632 q 174 669 138 653 q 246 697 204 685 q 340 708 288 708 q 450 689 400 708 q 535 634 500 669 q 591 550 571 599 q 611 444 611 501 l 611 0 l 514 0 l 500 83 l 493 83 q 444 35 474 56 q 382 1 419 15 q 292 -14 344 -14 q 122 44 182 -14 q 63 201 63 101 q 79 287 63 249 q 131 352 96 325 q 224 394 167 379 q 361 410 281 410 l 472 410 l 472 444 m 472 313 l 361 313 q 240 281 278 313 q 201 201 201 249 q 233 119 201 149 q 326 90 264 90 q 385 103 358 90 q 431 132 411 117 q 472 174 454 150 l 472 313 m 354 972 q 316 957 333 972 q 299 910 299 942 q 316 863 299 878 q 354 847 333 847 q 392 863 375 847 q 410 910 410 878 q 392 957 410 942 q 354 972 375 972 m 354 1042 q 455 1005 417 1042 q 493 910 493 968 q 455 815 493 851 q 354 778 417 778 q 253 815 292 778 q 215 910 215 851 q 253 1005 215 968 q 354 1042 292 1042 z "},"æ":{"ha":1090,"x_min":63,"x_max":1028,"o":"m 750 708 q 860 686 810 708 q 949 619 911 664 q 1007 506 986 574 q 1028 347 1028 439 l 1028 326 l 1000 299 l 611 299 q 658 136 611 189 q 778 83 704 83 q 837 93 810 83 q 885 114 864 103 q 931 146 910 128 l 944 146 l 993 63 q 931 24 967 40 q 858 -3 900 8 q 764 -14 817 -14 q 637 13 696 -14 q 538 97 578 40 q 472 42 508 67 q 395 3 440 21 q 292 -14 350 -14 q 122 44 182 -14 q 63 201 63 101 q 79 287 63 249 q 131 352 96 325 q 224 394 167 379 q 361 410 281 410 l 472 410 l 472 444 q 433 569 472 528 q 326 611 394 611 q 267 601 294 611 q 218 579 239 590 q 174 549 193 565 l 160 549 l 111 632 q 174 669 138 653 q 246 697 204 685 q 340 708 288 708 q 471 680 419 708 q 549 604 522 651 q 636 680 585 651 q 750 708 688 708 m 750 611 q 696 599 721 611 q 652 560 671 586 q 622 494 633 535 q 611 396 611 453 l 889 396 q 878 494 889 453 q 848 560 867 535 q 804 599 829 586 q 750 611 779 611 m 472 313 l 361 313 q 240 281 278 313 q 201 201 201 249 q 233 119 201 149 q 326 90 264 90 q 385 103 358 90 q 431 132 411 117 q 472 174 454 150 l 472 313 z "},"ç":{"ha":632,"x_min":69,"x_max":604,"o":"m 69 0 m 375 611 q 308 597 339 611 q 256 552 278 583 q 221 470 233 521 q 208 347 208 419 q 257 142 208 201 q 389 83 306 83 q 448 93 421 83 q 496 114 475 103 q 542 146 521 128 l 556 146 l 604 63 q 542 24 578 40 q 469 -3 511 8 q 375 -14 428 -14 q 152 76 235 -14 q 69 347 69 165 q 90 506 69 439 q 150 619 111 574 q 242 686 189 664 q 361 708 296 708 q 456 697 414 708 q 528 669 497 685 q 590 632 564 653 l 542 549 l 528 549 q 482 579 507 565 q 434 601 461 590 q 375 611 407 611 m 385 -42 q 476 -74 443 -42 q 510 -153 510 -106 q 475 -232 510 -200 q 378 -264 440 -264 q 331 -260 351 -264 q 296 -250 311 -256 q 267 -236 279 -244 l 289 -181 l 301 -181 q 319 -191 300 -181 q 364 -201 338 -201 q 405 -187 390 -201 q 419 -153 419 -174 q 404 -118 419 -132 q 357 -104 389 -104 l 301 -104 l 301 28 l 385 28 l 385 -42 z "},"è":{"ha":701,"x_min":69,"x_max":639,"o":"m 69 0 m 354 708 q 469 686 417 708 q 559 619 521 664 q 618 506 597 574 q 639 347 639 439 l 639 326 l 611 299 l 208 299 q 257 136 208 189 q 389 83 306 83 q 448 93 421 83 q 496 114 475 103 q 542 146 521 128 l 556 146 l 604 63 q 542 24 578 40 q 469 -3 511 8 q 375 -14 428 -14 q 152 76 235 -14 q 69 347 69 165 q 90 506 69 439 q 149 619 111 574 q 240 686 188 664 q 354 708 292 708 m 354 611 q 250 561 292 611 q 208 396 208 511 l 500 396 q 458 561 500 511 q 354 611 417 611 m 340 972 l 403 764 l 313 764 l 188 972 l 340 972 z "},"é":{"ha":701,"x_min":69,"x_max":639,"o":"m 69 0 m 354 708 q 469 686 417 708 q 559 619 521 664 q 618 506 597 574 q 639 347 639 439 l 639 326 l 611 299 l 208 299 q 257 136 208 189 q 389 83 306 83 q 448 93 421 83 q 496 114 475 103 q 542 146 521 128 l 556 146 l 604 63 q 542 24 578 40 q 469 -3 511 8 q 375 -14 428 -14 q 152 76 235 -14 q 69 347 69 165 q 90 506 69 439 q 149 619 111 574 q 240 686 188 664 q 354 708 292 708 m 354 611 q 250 561 292 611 q 208 396 208 511 l 500 396 q 458 561 500 511 q 354 611 417 611 m 514 972 l 389 764 l 299 764 l 361 972 l 514 972 z "},"ê":{"ha":701,"x_min":69,"x_max":639,"o":"m 69 0 m 354 708 q 469 686 417 708 q 559 619 521 664 q 618 506 597 574 q 639 347 639 439 l 639 326 l 611 299 l 208 299 q 257 136 208 189 q 389 83 306 83 q 448 93 421 83 q 496 114 475 103 q 542 146 521 128 l 556 146 l 604 63 q 542 24 578 40 q 469 -3 511 8 q 375 -14 428 -14 q 152 76 235 -14 q 69 347 69 165 q 90 506 69 439 q 149 619 111 574 q 240 686 188 664 q 354 708 292 708 m 354 611 q 250 561 292 611 q 208 396 208 511 l 500 396 q 458 561 500 511 q 354 611 417 611 m 399 958 l 544 778 l 454 778 l 350 868 l 246 778 l 156 778 l 301 958 l 399 958 z "},"ë":{"ha":701,"x_min":69,"x_max":639,"o":"m 69 0 m 354 708 q 469 686 417 708 q 559 619 521 664 q 618 506 597 574 q 639 347 639 439 l 639 326 l 611 299 l 208 299 q 257 136 208 189 q 389 83 306 83 q 448 93 421 83 q 496 114 475 103 q 542 146 521 128 l 556 146 l 604 63 q 542 24 578 40 q 469 -3 511 8 q 375 -14 428 -14 q 152 76 235 -14 q 69 347 69 165 q 90 506 69 439 q 149 619 111 574 q 240 686 188 664 q 354 708 292 708 m 354 611 q 250 561 292 611 q 208 396 208 511 l 500 396 q 458 561 500 511 q 354 611 417 611 m 301 861 q 280 806 301 828 q 225 785 258 785 q 170 806 192 785 q 149 861 149 828 q 170 916 149 894 q 225 938 192 938 q 280 916 258 938 q 301 861 301 894 m 544 861 q 523 806 544 828 q 468 785 501 785 q 413 806 435 785 q 392 861 392 828 q 413 916 392 894 q 468 938 435 938 q 523 916 501 938 q 544 861 544 894 z "},"ì":{"ha":358,"x_min":21,"x_max":254,"o":"m 254 694 l 254 0 l 115 0 l 115 694 l 254 694 m 174 972 l 236 764 l 146 764 l 21 972 l 174 972 z "},"í":{"ha":357,"x_min":104,"x_max":336,"o":"m 243 694 l 243 0 l 104 0 l 104 694 l 243 694 m 336 972 l 211 764 l 121 764 l 183 972 l 336 972 z "},"î":{"ha":361,"x_min":-14,"x_max":375,"o":"m 250 694 l 250 0 l 111 0 l 111 694 l 250 694 m 229 958 l 375 778 l 285 778 l 181 868 l 76 778 l -14 778 l 132 958 l 229 958 z "},"ï":{"ha":361,"x_min":-21,"x_max":375,"o":"m 250 694 l 250 0 l 111 0 l 111 694 l 250 694 m 132 861 q 110 806 132 828 q 56 785 89 785 q 1 806 22 785 q -21 861 -21 828 q 1 916 -21 894 q 56 938 22 938 q 110 916 89 938 q 132 861 132 894 m 375 861 q 353 806 375 828 q 299 785 332 785 q 244 806 265 785 q 222 861 222 828 q 244 916 222 894 q 299 938 265 938 q 353 916 332 938 q 375 861 375 894 z "},"ð":{"ha":715,"x_min":56,"x_max":639,"o":"m 329 815 q 294 825 313 821 q 257 833 276 829 l 181 847 l 194 944 l 278 931 q 326 921 303 926 q 372 908 350 915 l 411 990 l 500 950 l 461 868 q 594 715 549 815 q 639 451 639 615 l 639 313 q 618 174 639 235 q 558 71 597 113 q 466 8 519 29 q 347 -14 413 -14 q 228 8 282 -14 q 136 71 175 29 q 76 174 97 113 q 56 313 56 235 q 76 451 56 390 q 132 554 97 513 q 213 617 167 596 q 313 639 260 639 q 438 617 386 639 q 521 542 489 594 q 496 680 521 622 q 417 774 471 738 l 375 686 l 288 728 l 329 815 m 347 535 q 240 481 285 535 q 194 313 194 426 q 240 138 194 193 q 347 83 285 83 q 455 138 410 83 q 500 313 500 193 q 455 481 500 426 q 347 535 410 535 z "},"ñ":{"ha":757,"x_min":104,"x_max":660,"o":"m 104 0 m 389 604 q 331 591 357 604 q 285 563 304 578 q 243 521 261 544 l 243 0 l 104 0 l 104 694 l 201 694 l 215 611 l 222 611 q 271 660 242 638 q 333 693 296 678 q 424 708 371 708 q 519 691 475 708 q 594 642 563 674 q 642 567 625 611 q 660 472 660 524 l 660 0 l 521 0 l 521 472 q 484 567 521 531 q 389 604 447 604 m 518 946 l 574 911 q 529 828 558 864 q 449 793 500 793 q 406 803 422 793 q 376 824 389 813 q 351 846 363 836 q 324 856 339 856 q 296 847 308 856 q 275 827 283 838 q 263 808 267 817 q 260 800 260 800 l 247 800 l 192 835 q 210 880 200 858 q 236 917 221 901 q 271 943 251 933 q 317 953 290 953 q 360 943 343 953 q 390 922 376 933 q 415 900 403 910 q 442 890 426 890 q 469 899 457 890 q 490 917 482 907 q 502 937 499 928 q 506 946 506 946 l 518 946 z "},"ò":{"ha":736,"x_min":69,"x_max":667,"o":"m 69 0 m 667 347 q 645 188 667 256 q 585 76 624 121 q 491 8 546 31 q 368 -14 436 -14 q 151 76 232 -14 q 69 347 69 165 q 151 619 69 529 q 368 708 232 708 q 491 686 436 708 q 585 619 546 664 q 645 506 624 574 q 667 347 667 439 m 528 347 q 515 470 528 419 q 481 552 503 521 q 431 597 460 583 q 368 611 401 611 q 306 597 335 611 q 255 552 276 583 q 221 470 233 521 q 208 347 208 419 q 221 224 208 274 q 255 142 233 174 q 306 97 276 111 q 368 83 335 83 q 431 97 401 83 q 481 142 460 111 q 515 224 503 174 q 528 347 528 274 m 357 972 l 419 764 l 329 764 l 204 972 l 357 972 z "},"ó":{"ha":736,"x_min":69,"x_max":667,"o":"m 69 0 m 667 347 q 645 188 667 256 q 585 76 624 121 q 491 8 546 31 q 368 -14 436 -14 q 151 76 232 -14 q 69 347 69 165 q 151 619 69 529 q 368 708 232 708 q 491 686 436 708 q 585 619 546 664 q 645 506 624 574 q 667 347 667 439 m 528 347 q 515 470 528 419 q 481 552 503 521 q 431 597 460 583 q 368 611 401 611 q 306 597 335 611 q 255 552 276 583 q 221 470 233 521 q 208 347 208 419 q 221 224 208 274 q 255 142 233 174 q 306 97 276 111 q 368 83 335 83 q 431 97 401 83 q 481 142 460 111 q 515 224 503 174 q 528 347 528 274 m 531 972 l 406 764 l 315 764 l 378 972 l 531 972 z "},"ô":{"ha":736,"x_min":69,"x_max":667,"o":"m 69 0 m 667 347 q 645 188 667 256 q 585 76 624 121 q 491 8 546 31 q 368 -14 436 -14 q 151 76 232 -14 q 69 347 69 165 q 151 619 69 529 q 368 708 232 708 q 491 686 436 708 q 585 619 546 664 q 645 506 624 574 q 667 347 667 439 m 528 347 q 515 470 528 419 q 481 552 503 521 q 431 597 460 583 q 368 611 401 611 q 306 597 335 611 q 255 552 276 583 q 221 470 233 521 q 208 347 208 419 q 221 224 208 274 q 255 142 233 174 q 306 97 276 111 q 368 83 335 83 q 431 97 401 83 q 481 142 460 111 q 515 224 503 174 q 528 347 528 274 m 417 958 l 563 778 l 472 778 l 368 868 l 264 778 l 174 778 l 319 958 l 417 958 z "},"õ":{"ha":736,"x_min":69,"x_max":667,"o":"m 69 0 m 667 347 q 645 188 667 256 q 585 76 624 121 q 491 8 546 31 q 368 -14 436 -14 q 151 76 232 -14 q 69 347 69 165 q 151 619 69 529 q 368 708 232 708 q 491 686 436 708 q 585 619 546 664 q 645 506 624 574 q 667 347 667 439 m 528 347 q 515 470 528 419 q 481 552 503 521 q 431 597 460 583 q 368 611 401 611 q 306 597 335 611 q 255 552 276 583 q 221 470 233 521 q 208 347 208 419 q 221 224 208 274 q 255 142 233 174 q 306 97 276 111 q 368 83 335 83 q 431 97 401 83 q 481 142 460 111 q 515 224 503 174 q 528 347 528 274 m 494 932 l 550 897 q 506 815 535 850 q 425 779 476 779 q 382 789 399 779 q 352 810 365 799 q 327 832 339 822 q 300 842 315 842 q 272 833 285 842 q 251 813 260 824 q 240 794 243 803 q 236 786 236 786 l 224 786 l 168 821 q 187 866 176 844 q 213 903 197 888 q 247 929 228 919 q 293 939 267 939 q 336 929 319 939 q 366 908 353 919 q 391 886 379 896 q 418 876 403 876 q 446 885 433 876 q 467 903 458 893 q 478 923 475 914 q 482 932 482 932 l 494 932 z "},"ö":{"ha":736,"x_min":69,"x_max":667,"o":"m 69 0 m 667 347 q 645 188 667 256 q 585 76 624 121 q 491 8 546 31 q 368 -14 436 -14 q 151 76 232 -14 q 69 347 69 165 q 151 619 69 529 q 368 708 232 708 q 491 686 436 708 q 585 619 546 664 q 645 506 624 574 q 667 347 667 439 m 528 347 q 515 470 528 419 q 481 552 503 521 q 431 597 460 583 q 368 611 401 611 q 306 597 335 611 q 255 552 276 583 q 221 470 233 521 q 208 347 208 419 q 221 224 208 274 q 255 142 233 174 q 306 97 276 111 q 368 83 335 83 q 431 97 401 83 q 481 142 460 111 q 515 224 503 174 q 528 347 528 274 m 319 861 q 298 806 319 828 q 243 785 276 785 q 188 806 210 785 q 167 861 167 828 q 188 916 167 894 q 243 938 210 938 q 298 916 276 938 q 319 861 319 894 m 563 861 q 541 806 563 828 q 486 785 519 785 q 431 806 453 785 q 410 861 410 828 q 431 916 410 894 q 486 938 453 938 q 541 916 519 938 q 563 861 563 894 z "},"÷":{"ha":653,"x_min":42,"x_max":611,"o":"m 42 403 l 42 514 l 611 514 l 611 403 l 42 403 m 243 222 q 267 282 243 258 q 326 306 290 306 q 386 282 363 306 q 410 222 410 258 q 386 163 410 186 q 326 139 363 139 q 267 163 290 139 q 243 222 243 186 m 243 694 q 267 754 243 731 q 326 778 290 778 q 386 754 363 778 q 410 694 410 731 q 386 635 410 658 q 326 611 363 611 q 267 635 290 611 q 243 694 243 658 z "},"ø":{"ha":736,"x_min":69,"x_max":667,"o":"m 667 347 q 645 188 667 256 q 585 76 624 121 q 491 8 546 31 q 368 -14 436 -14 q 211 25 281 -14 l 194 0 l 83 0 l 140 88 q 69 347 69 179 q 151 619 69 529 q 368 708 232 708 q 525 669 460 708 l 542 694 l 653 694 l 594 607 q 648 498 629 563 q 667 347 667 433 m 528 347 q 513 482 528 425 l 272 119 q 316 92 292 100 q 368 83 340 83 q 431 97 401 83 q 481 142 460 111 q 515 224 503 174 q 528 347 528 274 m 208 347 q 224 213 208 269 l 463 575 q 368 611 425 611 q 306 597 335 611 q 255 552 276 583 q 221 470 233 521 q 208 347 208 419 z "},"ù":{"ha":764,"x_min":104,"x_max":660,"o":"m 104 0 m 375 90 q 433 103 407 90 q 479 132 460 117 q 521 174 503 150 l 521 694 l 660 694 l 660 0 l 563 0 l 549 83 l 542 83 q 493 35 522 56 q 431 1 468 15 q 340 -14 393 -14 q 244 3 288 -14 q 170 52 201 21 q 122 126 139 83 q 104 222 104 169 l 104 694 l 243 694 l 243 222 q 280 127 243 164 q 375 90 317 90 m 385 960 l 447 751 l 357 751 l 232 960 l 385 960 z "},"ú":{"ha":764,"x_min":104,"x_max":660,"o":"m 104 0 m 375 90 q 433 103 407 90 q 479 132 460 117 q 521 174 503 150 l 521 694 l 660 694 l 660 0 l 563 0 l 549 83 l 542 83 q 493 35 522 56 q 431 1 468 15 q 340 -14 393 -14 q 244 3 288 -14 q 170 52 201 21 q 122 126 139 83 q 104 222 104 169 l 104 694 l 243 694 l 243 222 q 280 127 243 164 q 375 90 317 90 m 544 960 l 419 751 l 329 751 l 392 960 l 544 960 z "},"û":{"ha":764,"x_min":104,"x_max":660,"o":"m 104 0 m 375 90 q 433 103 407 90 q 479 132 460 117 q 521 174 503 150 l 521 694 l 660 694 l 660 0 l 563 0 l 549 83 l 542 83 q 493 35 522 56 q 431 1 468 15 q 340 -14 393 -14 q 244 3 288 -14 q 170 52 201 21 q 122 126 139 83 q 104 222 104 169 l 104 694 l 243 694 l 243 222 q 280 127 243 164 q 375 90 317 90 m 431 958 l 576 778 l 486 778 l 382 868 l 278 778 l 188 778 l 333 958 l 431 958 z "},"ü":{"ha":764,"x_min":104,"x_max":660,"o":"m 104 0 m 375 90 q 433 103 407 90 q 479 132 460 117 q 521 174 503 150 l 521 694 l 660 694 l 660 0 l 563 0 l 549 83 l 542 83 q 493 35 522 56 q 431 1 468 15 q 340 -14 393 -14 q 244 3 288 -14 q 170 52 201 21 q 122 126 139 83 q 104 222 104 169 l 104 694 l 243 694 l 243 222 q 280 127 243 164 q 375 90 317 90 m 333 861 q 312 806 333 828 q 257 785 290 785 q 202 806 224 785 q 181 861 181 828 q 202 916 181 894 q 257 938 224 938 q 312 916 290 938 q 333 861 333 894 m 576 861 q 555 806 576 828 q 500 785 533 785 q 445 806 467 785 q 424 861 424 828 q 445 916 424 894 q 500 938 467 938 q 555 916 533 938 q 576 861 576 894 z "},"ý":{"ha":660,"x_min":21,"x_max":639,"o":"m 21 0 m 174 -194 q 238 -167 210 -194 q 278 -97 267 -139 l 306 0 l 250 0 l 21 694 l 160 694 l 313 236 q 323 201 318 221 q 332 165 328 182 q 342 125 338 146 l 347 125 q 356 165 350 146 q 365 201 360 182 q 374 236 369 221 l 500 694 l 639 694 l 417 -97 q 335 -236 393 -181 q 188 -292 276 -292 q 130 -285 156 -292 q 86 -271 104 -279 q 49 -250 64 -262 l 83 -160 l 97 -160 q 119 -178 107 -171 q 144 -190 131 -185 q 174 -194 158 -194 m 493 960 l 368 751 l 278 751 l 340 960 l 493 960 z "},"þ":{"ha":750,"x_min":111,"x_max":681,"o":"m 542 347 q 529 470 542 419 q 495 552 517 521 q 444 597 474 583 q 382 611 415 611 q 329 607 353 611 q 288 597 306 603 q 250 583 267 592 l 250 111 q 288 97 267 103 q 329 88 306 92 q 382 83 353 83 q 444 97 415 83 q 495 142 474 111 q 529 224 517 174 q 542 347 542 274 m 250 667 q 294 688 269 678 q 343 701 315 694 q 403 708 371 708 q 513 686 463 708 q 601 619 564 664 q 660 506 639 574 q 681 347 681 439 q 660 188 681 256 q 601 76 639 121 q 513 8 564 31 q 403 -14 463 -14 q 343 -8 371 -14 q 294 7 315 -1 q 250 28 269 15 l 250 -278 l 111 -278 l 111 931 l 153 972 l 250 972 l 250 667 z "},"ÿ":{"ha":660,"x_min":21,"x_max":639,"o":"m 21 0 m 174 -194 q 238 -167 210 -194 q 278 -97 267 -139 l 306 0 l 250 0 l 21 694 l 160 694 l 313 236 q 323 201 318 221 q 332 165 328 182 q 342 125 338 146 l 347 125 q 356 165 350 146 q 365 201 360 182 q 374 236 369 221 l 500 694 l 639 694 l 417 -97 q 335 -236 393 -181 q 188 -292 276 -292 q 130 -285 156 -292 q 86 -271 104 -279 q 49 -250 64 -262 l 83 -160 l 97 -160 q 119 -178 107 -171 q 144 -190 131 -185 q 174 -194 158 -194 m 281 861 q 259 806 281 828 q 204 785 238 785 q 149 806 171 785 q 128 861 128 828 q 149 916 128 894 q 204 938 171 938 q 259 916 238 938 q 281 861 281 894 m 524 861 q 502 806 524 828 q 447 785 481 785 q 392 806 414 785 q 371 861 371 828 q 392 916 371 894 q 447 938 414 938 q 502 916 481 938 q 524 861 524 894 z "},"Ā":{"ha":792,"x_min":21,"x_max":771,"o":"m 21 0 m 632 0 l 556 250 l 236 250 l 160 0 l 21 0 l 306 972 l 486 972 l 771 0 l 632 0 m 264 347 l 528 347 l 417 729 q 408 762 411 744 q 403 794 406 779 q 399 826 400 811 l 393 826 q 389 793 392 810 q 383 761 386 778 q 375 729 379 744 l 264 347 m 583 1181 l 583 1083 l 208 1083 l 208 1181 l 583 1181 z "},"ā":{"ha":708,"x_min":63,"x_max":611,"o":"m 63 0 m 472 444 q 433 569 472 528 q 326 611 394 611 q 267 601 294 611 q 218 579 239 590 q 174 549 193 565 l 160 549 l 111 632 q 174 669 138 653 q 246 697 204 685 q 340 708 288 708 q 450 689 400 708 q 535 634 500 669 q 591 550 571 599 q 611 444 611 501 l 611 0 l 514 0 l 500 83 l 493 83 q 444 35 474 56 q 382 1 419 15 q 292 -14 344 -14 q 122 44 182 -14 q 63 201 63 101 q 79 287 63 249 q 131 352 96 325 q 224 394 167 379 q 361 410 281 410 l 472 410 l 472 444 m 472 313 l 361 313 q 240 281 278 313 q 201 201 201 249 q 233 119 201 149 q 326 90 264 90 q 385 103 358 90 q 431 132 411 117 q 472 174 454 150 l 472 313 m 556 917 l 556 819 l 181 819 l 181 917 l 556 917 z "},"Ă":{"ha":792,"x_min":21,"x_max":771,"o":"m 21 0 m 632 0 l 556 250 l 236 250 l 160 0 l 21 0 l 306 972 l 486 972 l 771 0 l 632 0 m 264 347 l 528 347 l 417 729 q 408 762 411 744 q 403 794 406 779 q 399 826 400 811 l 393 826 q 389 793 392 810 q 383 761 386 778 q 375 729 379 744 l 264 347 m 396 1139 q 458 1161 438 1139 q 479 1236 479 1183 l 604 1236 q 552 1104 604 1153 q 396 1056 500 1056 q 240 1104 292 1056 q 188 1236 188 1153 l 313 1236 q 333 1161 313 1183 q 396 1139 354 1139 z "},"ă":{"ha":708,"x_min":63,"x_max":611,"o":"m 63 0 m 472 444 q 433 569 472 528 q 326 611 394 611 q 267 601 294 611 q 218 579 239 590 q 174 549 193 565 l 160 549 l 111 632 q 174 669 138 653 q 246 697 204 685 q 340 708 288 708 q 450 689 400 708 q 535 634 500 669 q 591 550 571 599 q 611 444 611 501 l 611 0 l 514 0 l 500 83 l 493 83 q 444 35 474 56 q 382 1 419 15 q 292 -14 344 -14 q 122 44 182 -14 q 63 201 63 101 q 79 287 63 249 q 131 352 96 325 q 224 394 167 379 q 361 410 281 410 l 472 410 l 472 444 m 472 313 l 361 313 q 240 281 278 313 q 201 201 201 249 q 233 119 201 149 q 326 90 264 90 q 385 103 358 90 q 431 132 411 117 q 472 174 454 150 l 472 313 m 354 849 q 417 871 396 849 q 438 946 438 893 l 563 946 q 510 814 563 863 q 354 765 458 765 q 198 814 250 765 q 146 946 146 863 l 271 946 q 292 871 271 893 q 354 849 313 849 z "},"Ą":{"ha":799,"x_min":21,"x_max":840,"o":"m 21 0 m 632 0 l 556 250 l 236 250 l 160 0 l 21 0 l 306 972 l 486 972 l 771 0 l 632 0 m 264 347 l 528 347 l 417 729 q 408 762 411 744 q 403 794 406 779 q 399 826 400 811 l 393 826 q 389 793 392 810 q 383 761 386 778 q 375 729 379 744 l 264 347 m 750 -139 q 780 -134 765 -139 q 805 -124 794 -129 q 822 -113 815 -118 q 828 -108 828 -108 l 840 -108 l 840 -181 q 811 -199 828 -192 q 776 -210 796 -206 q 729 -215 756 -215 q 635 -187 667 -215 q 604 -111 604 -158 q 615 -67 604 -87 q 639 -32 625 -47 q 674 0 654 -15 l 771 0 q 736 -26 751 -11 q 712 -56 722 -39 q 701 -90 701 -72 q 715 -125 701 -111 q 750 -139 729 -139 z "},"ą":{"ha":701,"x_min":63,"x_max":688,"o":"m 63 0 m 472 444 q 433 569 472 528 q 326 611 394 611 q 267 601 294 611 q 218 579 239 590 q 174 549 193 565 l 160 549 l 111 632 q 174 669 138 653 q 246 697 204 685 q 340 708 288 708 q 450 689 400 708 q 535 634 500 669 q 591 550 571 599 q 611 444 611 501 l 611 0 l 514 0 l 500 83 l 493 83 q 444 35 474 56 q 382 1 419 15 q 292 -14 344 -14 q 122 44 182 -14 q 63 201 63 101 q 79 287 63 249 q 131 352 96 325 q 224 394 167 379 q 361 410 281 410 l 472 410 l 472 444 m 472 313 l 361 313 q 240 281 278 313 q 201 201 201 249 q 233 119 201 149 q 326 90 264 90 q 385 103 358 90 q 431 132 411 117 q 472 174 454 150 l 472 313 m 597 -139 q 627 -134 613 -139 q 652 -124 642 -129 q 669 -113 663 -118 q 675 -108 675 -108 l 688 -108 l 688 -181 q 658 -199 675 -192 q 623 -210 643 -206 q 576 -215 603 -215 q 483 -187 514 -215 q 451 -111 451 -158 q 462 -67 451 -87 q 486 -32 472 -47 q 521 0 501 -15 l 618 0 q 583 -26 599 -11 q 559 -56 569 -39 q 549 -90 549 -72 q 563 -125 549 -111 q 597 -139 576 -139 z "},"Ć":{"ha":715,"x_min":76,"x_max":681,"o":"m 76 0 m 76 486 q 101 716 76 621 q 172 872 126 811 q 282 959 218 932 q 424 986 346 986 q 526 974 482 986 q 603 947 571 963 q 667 910 639 931 l 618 826 l 604 826 q 557 857 582 843 q 504 878 535 868 q 438 889 474 889 q 350 869 390 889 q 280 802 310 849 q 233 678 250 756 q 215 486 215 600 q 233 294 215 371 q 281 170 250 217 q 356 103 313 124 q 451 83 399 83 q 518 93 488 83 q 571 114 549 103 q 618 146 596 128 l 632 146 l 681 63 q 617 24 653 40 q 540 -3 585 8 q 438 -14 496 -14 q 288 13 354 -14 q 174 101 221 40 q 101 256 126 161 q 76 486 76 350 m 590 1250 l 465 1042 l 375 1042 l 438 1250 l 590 1250 z "},"ć":{"ha":632,"x_min":69,"x_max":604,"o":"m 69 0 m 375 611 q 308 597 339 611 q 256 552 278 583 q 221 470 233 521 q 208 347 208 419 q 257 142 208 201 q 389 83 306 83 q 448 93 421 83 q 496 114 475 103 q 542 146 521 128 l 556 146 l 604 63 q 542 24 578 40 q 469 -3 511 8 q 375 -14 428 -14 q 152 76 235 -14 q 69 347 69 165 q 90 506 69 439 q 150 619 111 574 q 242 686 189 664 q 361 708 296 708 q 456 697 414 708 q 528 669 497 685 q 590 632 564 653 l 542 549 l 528 549 q 482 579 507 565 q 434 601 461 590 q 375 611 407 611 m 510 972 l 385 764 l 294 764 l 357 972 l 510 972 z "},"Č":{"ha":715,"x_min":76,"x_max":681,"o":"m 76 0 m 76 486 q 101 716 76 621 q 172 872 126 811 q 282 959 218 932 q 424 986 346 986 q 526 974 482 986 q 603 947 571 963 q 667 910 639 931 l 618 826 l 604 826 q 557 857 582 843 q 504 878 535 868 q 438 889 474 889 q 350 869 390 889 q 280 802 310 849 q 233 678 250 756 q 215 486 215 600 q 233 294 215 371 q 281 170 250 217 q 356 103 313 124 q 451 83 399 83 q 518 93 488 83 q 571 114 549 103 q 618 146 596 128 l 632 146 l 681 63 q 617 24 653 40 q 540 -3 585 8 q 438 -14 496 -14 q 288 13 354 -14 q 174 101 221 40 q 101 256 126 161 q 76 486 76 350 m 378 1056 l 232 1236 l 322 1236 l 426 1146 l 531 1236 l 621 1236 l 475 1056 l 378 1056 z "},"č":{"ha":632,"x_min":69,"x_max":604,"o":"m 69 0 m 375 611 q 308 597 339 611 q 256 552 278 583 q 221 470 233 521 q 208 347 208 419 q 257 142 208 201 q 389 83 306 83 q 448 93 421 83 q 496 114 475 103 q 542 146 521 128 l 556 146 l 604 63 q 542 24 578 40 q 469 -3 511 8 q 375 -14 428 -14 q 152 76 235 -14 q 69 347 69 165 q 90 506 69 439 q 150 619 111 574 q 242 686 189 664 q 361 708 296 708 q 456 697 414 708 q 528 669 497 685 q 590 632 564 653 l 542 549 l 528 549 q 482 579 507 565 q 434 601 461 590 q 375 611 407 611 m 299 778 l 153 958 l 243 958 l 347 868 l 451 958 l 542 958 l 396 778 l 299 778 z "},"Ď":{"ha":813,"x_min":125,"x_max":736,"o":"m 125 0 m 125 0 l 125 972 l 333 972 q 508 945 432 972 q 634 860 583 918 q 710 709 685 801 q 736 486 736 617 q 710 263 736 356 q 634 113 685 171 q 508 27 583 54 q 333 0 432 0 l 125 0 m 333 97 q 445 117 396 97 q 528 182 494 136 q 579 302 561 228 q 597 486 597 376 q 579 670 597 596 q 528 790 561 744 q 445 856 494 836 q 333 875 396 875 l 264 875 l 264 97 l 333 97 m 322 1056 l 176 1236 l 267 1236 l 371 1146 l 475 1236 l 565 1236 l 419 1056 l 322 1056 z "},"ď":{"ha":896,"x_min":69,"x_max":882,"o":"m 729 896 q 751 950 729 928 q 799 972 772 972 q 858 948 835 972 q 882 883 882 924 q 865 788 882 828 q 826 722 847 749 q 771 672 801 692 l 729 715 q 764 746 749 729 q 788 780 776 761 q 799 819 799 799 q 751 842 772 819 q 729 896 729 864 m 500 583 q 463 597 483 592 q 420 607 444 603 q 368 611 396 611 q 306 597 335 611 q 255 552 276 583 q 221 470 233 521 q 208 347 208 419 q 220 228 208 276 q 252 149 232 179 q 299 104 272 118 q 354 90 325 90 q 413 103 386 90 q 458 132 439 117 q 500 174 482 150 l 500 583 m 542 972 l 639 972 l 639 0 l 542 0 l 528 83 l 521 83 q 472 35 501 56 q 410 1 447 15 q 319 -14 372 -14 q 224 8 269 -14 q 145 76 179 31 q 90 188 111 121 q 69 347 69 256 q 90 506 69 439 q 149 619 111 574 q 237 686 186 664 q 347 708 288 708 q 406 701 379 708 q 454 688 433 694 q 500 667 479 678 l 500 931 l 542 972 z "},"Đ":{"ha":813,"x_min":49,"x_max":736,"o":"m 125 0 l 125 444 l 49 444 l 49 556 l 125 556 l 125 972 l 333 972 q 508 945 432 972 q 634 860 583 918 q 710 709 685 801 q 736 486 736 617 q 710 263 736 356 q 634 113 685 171 q 508 27 583 54 q 333 0 432 0 l 125 0 m 333 97 q 445 117 396 97 q 528 182 494 136 q 579 302 561 228 q 597 486 597 376 q 579 670 597 596 q 528 790 561 744 q 445 856 494 836 q 333 875 396 875 l 264 875 l 264 556 l 424 556 l 424 444 l 264 444 l 264 97 l 333 97 z "},"đ":{"ha":757,"x_min":69,"x_max":729,"o":"m 542 972 l 639 972 l 639 833 l 729 833 l 729 736 l 639 736 l 639 0 l 542 0 l 528 83 l 521 83 q 472 35 501 56 q 410 1 447 15 q 319 -14 372 -14 q 224 8 269 -14 q 145 72 179 29 q 90 176 111 114 q 69 319 69 239 q 90 463 69 400 q 149 567 111 525 q 237 631 186 610 q 347 653 288 653 q 406 646 379 653 q 454 632 433 639 q 500 611 479 622 l 500 736 l 354 736 l 354 833 l 500 833 l 500 931 l 542 972 m 500 528 q 463 542 483 536 q 420 551 444 547 q 368 556 396 556 q 254 500 300 556 q 208 319 208 444 q 220 217 208 260 q 252 145 232 174 q 299 103 272 117 q 354 90 325 90 q 413 103 386 90 q 458 132 439 117 q 500 174 482 150 l 500 528 z "},"Ē":{"ha":708,"x_min":125,"x_max":667,"o":"m 125 0 m 125 0 l 125 972 l 667 972 l 667 875 l 264 875 l 264 556 l 583 556 l 583 458 l 264 458 l 264 97 l 667 97 l 667 0 l 125 0 m 586 1194 l 586 1097 l 211 1097 l 211 1194 l 586 1194 z "},"ē":{"ha":701,"x_min":69,"x_max":639,"o":"m 69 0 m 354 708 q 469 686 417 708 q 559 619 521 664 q 618 506 597 574 q 639 347 639 439 l 639 326 l 611 299 l 208 299 q 257 136 208 189 q 389 83 306 83 q 448 93 421 83 q 496 114 475 103 q 542 146 521 128 l 556 146 l 604 63 q 542 24 578 40 q 469 -3 511 8 q 375 -14 428 -14 q 152 76 235 -14 q 69 347 69 165 q 90 506 69 439 q 149 619 111 574 q 240 686 188 664 q 354 708 292 708 m 354 611 q 250 561 292 611 q 208 396 208 511 l 500 396 q 458 561 500 511 q 354 611 417 611 m 551 917 l 551 819 l 176 819 l 176 917 l 551 917 z "},"Ė":{"ha":708,"x_min":125,"x_max":667,"o":"m 125 0 m 125 0 l 125 972 l 667 972 l 667 875 l 264 875 l 264 556 l 583 556 l 583 458 l 264 458 l 264 97 l 667 97 l 667 0 l 125 0 m 496 1139 q 472 1079 496 1103 q 413 1056 449 1056 q 353 1079 376 1056 q 329 1139 329 1103 q 353 1199 329 1175 q 413 1222 376 1222 q 472 1199 449 1222 q 496 1139 496 1175 z "},"ė":{"ha":701,"x_min":69,"x_max":639,"o":"m 69 0 m 354 708 q 469 686 417 708 q 559 619 521 664 q 618 506 597 574 q 639 347 639 439 l 639 326 l 611 299 l 208 299 q 257 136 208 189 q 389 83 306 83 q 448 93 421 83 q 496 114 475 103 q 542 146 521 128 l 556 146 l 604 63 q 542 24 578 40 q 469 -3 511 8 q 375 -14 428 -14 q 152 76 235 -14 q 69 347 69 165 q 90 506 69 439 q 149 619 111 574 q 240 686 188 664 q 354 708 292 708 m 354 611 q 250 561 292 611 q 208 396 208 511 l 500 396 q 458 561 500 511 q 354 611 417 611 m 433 861 q 410 801 433 825 q 350 778 386 778 q 290 801 314 778 q 267 861 267 825 q 290 921 267 897 q 350 944 314 944 q 410 921 386 944 q 433 861 433 897 z "},"Ę":{"ha":708,"x_min":125,"x_max":667,"o":"m 125 0 m 125 0 l 125 972 l 667 972 l 667 875 l 264 875 l 264 556 l 583 556 l 583 458 l 264 458 l 264 97 l 667 97 l 667 0 l 125 0 m 451 -139 q 481 -134 467 -139 q 506 -124 496 -129 q 523 -113 517 -118 q 529 -108 529 -108 l 542 -108 l 542 -181 q 513 -199 529 -192 q 477 -210 497 -206 q 431 -215 457 -215 q 337 -187 368 -215 q 306 -111 306 -158 q 316 -67 306 -87 q 340 -32 326 -47 q 375 0 356 -15 l 472 0 q 438 -26 453 -11 q 413 -56 424 -39 q 403 -90 403 -72 q 417 -125 403 -111 q 451 -139 431 -139 z "},"ę":{"ha":701,"x_min":69,"x_max":639,"o":"m 69 0 m 354 708 q 469 686 417 708 q 559 619 521 664 q 618 506 597 574 q 639 347 639 439 l 639 326 l 611 299 l 208 299 q 257 136 208 189 q 389 83 306 83 q 448 93 421 83 q 496 114 475 103 q 542 146 521 128 l 556 146 l 604 63 q 542 24 578 40 q 469 -3 511 8 q 375 -14 428 -14 q 152 76 235 -14 q 69 347 69 165 q 90 506 69 439 q 149 619 111 574 q 240 686 188 664 q 354 708 292 708 m 354 611 q 250 561 292 611 q 208 396 208 511 l 500 396 q 458 561 500 511 q 354 611 417 611 m 410 -139 q 440 -134 425 -139 q 465 -124 454 -129 q 481 -113 475 -118 q 488 -108 488 -108 l 500 -108 l 500 -181 q 471 -199 488 -192 q 435 -210 456 -206 q 389 -215 415 -215 q 295 -187 326 -215 q 264 -111 264 -158 q 274 -67 264 -87 q 299 -32 285 -47 q 333 0 314 -15 l 431 0 q 396 -26 411 -11 q 372 -56 382 -39 q 361 -90 361 -72 q 375 -125 361 -111 q 410 -139 389 -139 z "},"Ě":{"ha":708,"x_min":125,"x_max":667,"o":"m 125 0 m 125 0 l 125 972 l 667 972 l 667 875 l 264 875 l 264 556 l 583 556 l 583 458 l 264 458 l 264 97 l 667 97 l 667 0 l 125 0 m 364 1056 l 218 1236 l 308 1236 l 413 1146 l 517 1236 l 607 1236 l 461 1056 l 364 1056 z "},"ě":{"ha":701,"x_min":69,"x_max":639,"o":"m 69 0 m 354 708 q 469 686 417 708 q 559 619 521 664 q 618 506 597 574 q 639 347 639 439 l 639 326 l 611 299 l 208 299 q 257 136 208 189 q 389 83 306 83 q 448 93 421 83 q 496 114 475 103 q 542 146 521 128 l 556 146 l 604 63 q 542 24 578 40 q 469 -3 511 8 q 375 -14 428 -14 q 152 76 235 -14 q 69 347 69 165 q 90 506 69 439 q 149 619 111 574 q 240 686 188 664 q 354 708 292 708 m 354 611 q 250 561 292 611 q 208 396 208 511 l 500 396 q 458 561 500 511 q 354 611 417 611 m 301 778 l 156 958 l 246 958 l 350 868 l 454 958 l 544 958 l 399 778 l 301 778 z "},"Ğ":{"ha":785,"x_min":76,"x_max":694,"o":"m 76 0 m 694 63 q 626 24 665 40 q 545 -3 593 8 q 438 -14 497 -14 q 293 15 360 -14 q 178 106 226 44 q 103 261 131 167 q 76 486 76 356 q 103 711 76 617 q 177 867 131 806 q 287 957 224 928 q 424 986 350 986 q 526 974 482 986 q 603 947 571 963 q 667 910 639 931 l 618 826 l 604 826 q 557 857 582 843 q 504 878 535 868 q 438 889 474 889 q 350 869 390 889 q 280 802 310 849 q 233 678 250 756 q 215 486 215 600 q 233 294 215 371 q 281 170 250 217 q 356 103 313 124 q 451 83 399 83 q 491 88 472 83 q 524 98 510 93 q 547 107 539 103 q 556 111 556 111 l 556 431 l 396 431 l 396 528 l 653 528 l 694 486 l 694 63 m 413 1125 q 475 1147 454 1125 q 496 1222 496 1169 l 621 1222 q 569 1090 621 1139 q 413 1042 517 1042 q 256 1090 308 1042 q 204 1222 204 1139 l 329 1222 q 350 1147 329 1169 q 413 1125 371 1125 z "},"ğ":{"ha":743,"x_min":69,"x_max":639,"o":"m 69 0 m 500 521 q 458 563 482 544 q 413 591 439 578 q 354 604 386 604 q 299 590 325 604 q 252 546 272 576 q 220 467 232 515 q 208 347 208 418 q 221 224 208 274 q 255 142 233 174 q 306 97 276 111 q 368 83 335 83 q 420 88 396 83 q 463 97 444 92 q 500 111 483 103 l 500 521 m 639 -14 q 619 -128 639 -76 q 560 -215 599 -179 q 466 -272 521 -251 q 340 -292 411 -292 q 246 -281 288 -292 q 174 -254 204 -269 q 111 -215 138 -237 l 160 -132 l 174 -132 q 218 -164 193 -150 q 267 -185 239 -175 q 326 -194 294 -194 q 458 -151 415 -194 q 500 -14 500 -108 l 500 28 q 454 7 479 15 q 406 -8 433 -1 q 347 -14 379 -14 q 237 8 288 -14 q 149 76 186 31 q 90 188 111 121 q 69 347 69 256 q 90 506 69 439 q 145 619 111 574 q 224 686 179 664 q 319 708 269 708 q 410 693 372 708 q 472 660 447 678 q 521 611 501 638 l 528 611 l 542 694 l 639 694 l 639 -14 m 371 861 q 433 883 413 861 q 454 958 454 906 l 579 958 q 527 826 579 875 q 371 778 475 778 q 215 826 267 778 q 163 958 163 875 l 288 958 q 308 883 288 906 q 371 861 329 861 z "},"Ģ":{"ha":785,"x_min":76,"x_max":694,"o":"m 76 0 m 694 63 q 626 24 665 40 q 545 -3 593 8 q 438 -14 497 -14 q 293 15 360 -14 q 178 106 226 44 q 103 261 131 167 q 76 486 76 356 q 103 711 76 617 q 177 867 131 806 q 287 957 224 928 q 424 986 350 986 q 526 974 482 986 q 603 947 571 963 q 667 910 639 931 l 618 826 l 604 826 q 557 857 582 843 q 504 878 535 868 q 438 889 474 889 q 350 869 390 889 q 280 802 310 849 q 233 678 250 756 q 215 486 215 600 q 233 294 215 371 q 281 170 250 217 q 356 103 313 124 q 451 83 399 83 q 491 88 472 83 q 524 98 510 93 q 547 107 539 103 q 556 111 556 111 l 556 431 l 396 431 l 396 528 l 653 528 l 694 486 l 694 63 m 350 -144 q 372 -90 350 -112 q 419 -68 393 -68 q 479 -92 456 -68 q 503 -157 503 -117 q 485 -252 503 -212 q 447 -318 468 -292 q 392 -368 422 -349 l 350 -325 q 385 -294 369 -311 q 408 -260 397 -279 q 419 -221 419 -242 q 372 -199 393 -221 q 350 -144 350 -176 z "},"ģ":{"ha":743,"x_min":69,"x_max":639,"o":"m 69 0 m 500 521 q 458 563 482 544 q 413 591 439 578 q 354 604 386 604 q 299 590 325 604 q 252 546 272 576 q 220 467 232 515 q 208 347 208 418 q 221 224 208 274 q 255 142 233 174 q 306 97 276 111 q 368 83 335 83 q 420 88 396 83 q 463 97 444 92 q 500 111 483 103 l 500 521 m 639 -14 q 619 -128 639 -76 q 560 -215 599 -179 q 466 -272 521 -251 q 340 -292 411 -292 q 246 -281 288 -292 q 174 -254 204 -269 q 111 -215 138 -237 l 160 -132 l 174 -132 q 218 -164 193 -150 q 267 -185 239 -175 q 326 -194 294 -194 q 458 -151 415 -194 q 500 -14 500 -108 l 500 28 q 454 7 479 15 q 406 -8 433 -1 q 347 -14 379 -14 q 237 8 288 -14 q 149 76 186 31 q 90 188 111 121 q 69 347 69 256 q 90 506 69 439 q 145 619 111 574 q 224 686 179 664 q 319 708 269 708 q 410 693 372 708 q 472 660 447 678 q 521 611 501 638 l 528 611 l 542 694 l 639 694 l 639 -14 m 431 868 q 409 814 431 836 q 361 792 388 792 q 301 816 325 792 q 278 881 278 840 q 295 976 278 936 q 333 1042 313 1015 q 389 1092 358 1072 l 431 1049 q 396 1018 411 1035 q 372 984 383 1003 q 361 944 361 965 q 409 922 388 944 q 431 868 431 900 z "},"ħ":{"ha":778,"x_min":35,"x_max":681,"o":"m 125 819 l 125 931 l 167 972 l 264 972 l 264 819 l 451 819 l 451 722 l 264 722 l 264 556 q 310 590 283 575 q 367 614 333 603 q 444 625 400 625 q 540 608 496 625 q 615 559 583 590 q 663 484 646 528 q 681 389 681 440 l 681 0 l 542 0 l 542 389 q 505 484 542 447 q 410 521 468 521 q 351 508 378 521 q 306 479 325 494 q 264 438 282 461 l 264 0 l 125 0 l 125 722 l 35 722 l 35 819 l 125 819 z "},"Ĩ":{"ha":347,"x_min":-25,"x_max":357,"o":"m 0 0 m 106 972 l 244 972 l 244 0 l 106 0 l 106 972 m 301 1236 l 357 1201 q 313 1119 342 1154 q 232 1083 283 1083 q 189 1093 206 1083 q 159 1115 172 1103 q 134 1136 146 1126 q 107 1146 122 1146 q 79 1137 92 1146 q 58 1117 67 1128 q 47 1099 50 1107 q 43 1090 43 1090 l 31 1090 l -25 1125 q -6 1170 -17 1149 q 19 1208 4 1192 q 54 1233 35 1224 q 100 1243 74 1243 q 143 1233 126 1243 q 173 1212 160 1224 q 198 1190 186 1200 q 225 1181 210 1181 q 253 1189 240 1181 q 274 1208 265 1197 q 285 1227 282 1218 q 289 1236 289 1236 l 301 1236 z "},"ĩ":{"ha":333,"x_min":-32,"x_max":350,"o":"m 0 0 m 238 694 l 238 0 l 99 0 l 99 694 l 238 694 m 294 958 l 350 924 q 306 841 335 876 q 225 806 276 806 q 182 815 199 806 q 152 837 165 825 q 127 858 139 849 q 100 868 115 868 q 72 859 85 868 q 51 840 60 850 q 40 821 43 829 q 36 813 36 813 l 24 813 l -32 847 q -13 892 -24 871 q 13 930 -3 914 q 47 956 28 946 q 93 965 67 965 q 136 956 119 965 q 166 934 153 946 q 191 913 179 922 q 218 903 203 903 q 246 911 233 903 q 267 930 258 919 q 278 949 275 940 q 282 958 282 958 l 294 958 z "},"Ī":{"ha":361,"x_min":-6,"x_max":369,"o":"m 0 0 m 113 972 l 251 972 l 251 0 l 113 0 l 113 972 m 369 1181 l 369 1083 l -6 1083 l -6 1181 l 369 1181 z "},"ī":{"ha":347,"x_min":-14,"x_max":361,"o":"m 243 694 l 243 0 l 104 0 l 104 694 l 243 694 m 361 903 l 361 806 l -14 806 l -14 903 l 361 903 z "},"Į":{"ha":375,"x_min":90,"x_max":326,"o":"m 90 0 m 119 972 l 258 972 l 258 0 l 119 0 l 119 972 m 236 -139 q 266 -134 251 -139 q 291 -124 281 -129 q 308 -113 301 -118 q 314 -108 314 -108 l 326 -108 l 326 -181 q 297 -199 314 -192 q 262 -210 282 -206 q 215 -215 242 -215 q 122 -187 153 -215 q 90 -111 90 -158 q 101 -67 90 -87 q 125 -32 111 -47 q 160 0 140 -15 l 257 0 q 222 -26 238 -11 q 198 -56 208 -39 q 188 -90 188 -72 q 201 -125 188 -111 q 236 -139 215 -139 z "},"į":{"ha":340,"x_min":76,"x_max":313,"o":"m 76 0 m 243 694 l 243 0 l 104 0 l 104 694 l 243 694 m 257 889 q 233 829 257 853 q 174 806 210 806 q 114 829 138 806 q 90 889 90 853 q 114 949 90 925 q 174 972 138 972 q 233 949 210 972 q 257 889 257 925 m 222 -139 q 252 -134 238 -139 q 277 -124 267 -129 q 294 -113 288 -118 q 300 -108 300 -108 l 313 -108 l 313 -181 q 283 -199 300 -192 q 248 -210 268 -206 q 201 -215 228 -215 q 108 -187 139 -215 q 76 -111 76 -158 q 87 -67 76 -87 q 111 -32 97 -47 q 146 0 126 -15 l 243 0 q 208 -26 224 -11 q 184 -56 194 -39 q 174 -90 174 -72 q 188 -125 174 -111 q 222 -139 201 -139 z "},"İ":{"ha":361,"x_min":97,"x_max":264,"o":"m 97 0 m 113 972 l 251 972 l 251 0 l 113 0 l 113 972 m 264 1139 q 240 1079 264 1103 q 181 1056 217 1056 q 121 1079 144 1056 q 97 1139 97 1103 q 121 1199 97 1175 q 181 1222 144 1222 q 240 1199 217 1222 q 264 1139 264 1175 z "},"ı":{"ha":347,"x_min":104,"x_max":243,"o":"m 243 694 l 243 0 l 104 0 l 104 694 l 243 694 z "},"ĳ":{"ha":701,"x_min":90,"x_max":611,"o":"m 354 -181 q 430 -149 401 -181 q 458 -56 458 -118 l 458 597 l 243 597 l 243 0 l 104 0 l 104 694 l 597 694 l 597 -56 q 581 -147 597 -106 q 535 -217 565 -187 q 462 -262 504 -246 q 368 -278 419 -278 q 310 -272 336 -278 q 267 -257 285 -265 q 229 -236 244 -249 l 264 -146 l 278 -146 q 300 -164 288 -157 q 325 -176 311 -171 q 354 -181 339 -181 m 611 889 q 588 829 611 853 q 528 806 564 806 q 468 829 492 806 q 444 889 444 853 q 468 949 444 925 q 528 972 492 972 q 588 949 564 972 q 611 889 611 925 m 257 889 q 233 829 257 853 q 174 806 210 806 q 114 829 138 806 q 90 889 90 853 q 114 949 90 925 q 174 972 138 972 q 233 949 210 972 q 257 889 257 925 z "},"Ĵ":{"ha":569,"x_min":0,"x_max":590,"o":"m 0 0 m 174 83 q 293 126 253 83 q 333 264 333 169 l 333 972 l 472 972 l 472 264 q 401 57 472 128 q 188 -14 329 -14 q 111 -4 146 -14 q 51 17 76 6 q 0 49 22 31 l 42 139 l 56 139 q 92 111 72 124 q 129 92 108 100 q 174 83 150 83 m 444 1208 l 590 1028 l 500 1028 l 396 1118 l 292 1028 l 201 1028 l 347 1208 l 444 1208 z "},"ĵ":{"ha":372,"x_min":-97,"x_max":386,"o":"m 28 -181 q 103 -149 75 -181 q 132 -56 132 -118 l 132 694 l 271 694 l 271 -56 q 255 -147 271 -106 q 208 -217 239 -187 q 135 -262 178 -246 q 42 -278 93 -278 q -16 -272 10 -278 q -60 -257 -42 -265 q -97 -236 -82 -249 l -62 -146 l -49 -146 q -26 -164 -39 -157 q -1 -176 -15 -171 q 28 -181 13 -181 m 240 944 l 386 764 l 296 764 l 192 854 l 88 764 l -3 764 l 143 944 l 240 944 z "},"Ķ":{"ha":771,"x_min":125,"x_max":750,"o":"m 125 0 m 750 0 l 590 0 l 264 486 l 264 0 l 125 0 l 125 972 l 264 972 l 264 514 l 576 972 l 736 972 l 417 500 l 750 0 m 329 -90 q 351 -36 329 -58 q 399 -14 372 -14 q 458 -38 435 -14 q 482 -103 482 -62 q 465 -198 482 -158 q 426 -264 447 -237 q 371 -314 401 -294 l 329 -271 q 364 -240 349 -257 q 388 -206 376 -225 q 399 -167 399 -187 q 351 -144 372 -167 q 329 -90 329 -122 z "},"ķ":{"ha":667,"x_min":104,"x_max":653,"o":"m 104 0 m 243 972 l 243 375 l 479 694 l 639 694 l 389 361 l 653 0 l 493 0 l 243 347 l 243 0 l 104 0 l 104 931 l 146 972 l 243 972 m 274 -90 q 295 -36 274 -58 q 343 -14 317 -14 q 403 -38 379 -14 q 426 -103 426 -62 q 409 -198 426 -158 q 371 -264 392 -237 q 315 -314 346 -294 l 274 -271 q 308 -240 293 -257 q 332 -206 321 -225 q 343 -167 343 -187 q 295 -144 317 -167 q 274 -90 274 -122 z "},"ĸ":{"ha":667,"x_min":104,"x_max":653,"o":"m 243 694 l 243 375 l 479 694 l 639 694 l 389 361 l 653 0 l 493 0 l 243 347 l 243 0 l 104 0 l 104 653 l 146 694 l 243 694 z "},"Ĺ":{"ha":681,"x_min":125,"x_max":667,"o":"m 125 0 m 264 972 l 264 97 l 667 97 l 667 0 l 125 0 l 125 972 l 264 972 m 382 1250 l 257 1042 l 167 1042 l 229 1250 l 382 1250 z "},"ĺ":{"ha":350,"x_min":104,"x_max":350,"o":"m 104 0 m 104 931 l 146 972 l 243 972 l 243 0 l 104 0 l 104 931 m 350 1250 l 225 1042 l 135 1042 l 197 1250 l 350 1250 z "},"Ļ":{"ha":681,"x_min":125,"x_max":667,"o":"m 125 0 m 264 972 l 264 97 l 667 97 l 667 0 l 125 0 l 125 972 l 264 972 m 322 -144 q 344 -90 322 -112 q 392 -68 365 -68 q 451 -92 428 -68 q 475 -157 475 -117 q 458 -252 475 -212 q 419 -318 440 -292 q 364 -368 394 -349 l 322 -325 q 357 -294 342 -311 q 381 -260 369 -279 q 392 -221 392 -242 q 344 -199 365 -221 q 322 -144 322 -176 z "},"ļ":{"ha":347,"x_min":97,"x_max":250,"o":"m 97 0 m 104 931 l 146 972 l 243 972 l 243 0 l 104 0 l 104 931 m 97 -144 q 119 -90 97 -112 q 167 -68 140 -68 q 226 -92 203 -68 q 250 -157 250 -117 q 233 -252 250 -212 q 194 -318 215 -292 q 139 -368 169 -349 l 97 -325 q 132 -294 117 -311 q 156 -260 144 -279 q 167 -221 167 -242 q 119 -199 140 -221 q 97 -144 97 -176 z "},"Ľ":{"ha":681,"x_min":125,"x_max":667,"o":"m 368 896 q 390 950 368 928 q 438 972 411 972 q 497 948 474 972 q 521 883 521 924 q 503 788 521 828 q 465 722 486 749 q 410 672 440 692 l 368 715 q 403 746 388 729 q 426 780 415 761 q 438 819 438 799 q 390 842 411 819 q 368 896 368 864 m 264 972 l 264 97 l 667 97 l 667 0 l 125 0 l 125 972 l 264 972 z "},"ľ":{"ha":507,"x_min":104,"x_max":493,"o":"m 340 896 q 362 950 340 928 q 410 972 383 972 q 469 948 446 972 q 493 883 493 924 q 476 788 493 828 q 438 722 458 749 q 382 672 413 692 l 340 715 q 375 746 360 729 q 399 780 388 761 q 410 819 410 799 q 362 842 383 819 q 340 896 340 864 m 104 931 l 146 972 l 243 972 l 243 0 l 104 0 l 104 931 z "},"ŀ":{"ha":500,"x_min":104,"x_max":486,"o":"m 104 0 m 104 931 l 146 972 l 243 972 l 243 0 l 104 0 l 104 931 m 319 486 q 343 546 319 522 q 403 569 367 569 q 463 546 439 569 q 486 486 486 522 q 463 426 486 450 q 403 403 439 403 q 343 426 367 403 q 319 486 319 450 z "},"Ł":{"ha":656,"x_min":21,"x_max":642,"o":"m 253 972 l 253 632 l 410 750 l 410 597 l 253 479 l 253 97 l 642 97 l 642 0 l 114 0 l 114 375 l 21 306 l 21 458 l 114 528 l 114 972 l 253 972 z "},"ł":{"ha":403,"x_min":35,"x_max":368,"o":"m 118 374 l 35 306 l 35 458 l 118 526 l 118 931 l 160 972 l 257 972 l 257 638 l 368 736 l 368 583 l 257 485 l 257 0 l 118 0 l 118 374 z "},"Ń":{"ha":875,"x_min":125,"x_max":750,"o":"m 125 0 m 306 618 q 292 653 299 633 q 278 693 285 674 q 264 736 271 714 l 258 736 q 261 693 260 714 q 263 653 263 674 q 264 618 264 633 l 264 0 l 125 0 l 125 972 l 278 972 l 569 354 q 583 318 576 339 q 597 279 590 297 q 611 236 604 257 l 617 236 q 614 279 615 257 q 612 318 613 297 q 611 354 611 339 l 611 972 l 750 972 l 750 0 l 597 0 l 306 618 m 586 1236 l 461 1028 l 371 1028 l 433 1236 l 586 1236 z "},"ń":{"ha":757,"x_min":104,"x_max":660,"o":"m 104 0 m 389 604 q 331 591 357 604 q 285 563 304 578 q 243 521 261 544 l 243 0 l 104 0 l 104 694 l 201 694 l 215 611 l 222 611 q 271 660 242 638 q 333 693 296 678 q 424 708 371 708 q 519 691 475 708 q 594 642 563 674 q 642 567 625 611 q 660 472 660 524 l 660 0 l 521 0 l 521 472 q 484 567 521 531 q 389 604 447 604 m 542 972 l 417 764 l 326 764 l 389 972 l 542 972 z "},"Ņ":{"ha":875,"x_min":125,"x_max":750,"o":"m 125 0 m 306 618 q 292 653 299 633 q 278 693 285 674 q 264 736 271 714 l 258 736 q 261 693 260 714 q 263 653 263 674 q 264 618 264 633 l 264 0 l 125 0 l 125 972 l 278 972 l 569 354 q 583 318 576 339 q 597 279 590 297 q 611 236 604 257 l 617 236 q 614 279 615 257 q 612 318 613 297 q 611 354 611 339 l 611 972 l 750 972 l 750 0 l 597 0 l 306 618 m 361 -90 q 383 -36 361 -58 q 431 -14 404 -14 q 490 -38 467 -14 q 514 -103 514 -62 q 497 -198 514 -158 q 458 -264 479 -237 q 403 -314 433 -294 l 361 -271 q 396 -240 381 -257 q 419 -206 408 -225 q 431 -167 431 -187 q 383 -144 404 -167 q 361 -90 361 -122 z "},"ņ":{"ha":757,"x_min":104,"x_max":660,"o":"m 104 0 m 389 604 q 331 591 357 604 q 285 563 304 578 q 243 521 261 544 l 243 0 l 104 0 l 104 694 l 201 694 l 215 611 l 222 611 q 271 660 242 638 q 333 693 296 678 q 424 708 371 708 q 519 691 475 708 q 594 642 563 674 q 642 567 625 611 q 660 472 660 524 l 660 0 l 521 0 l 521 472 q 484 567 521 531 q 389 604 447 604 m 308 -90 q 330 -36 308 -58 q 378 -14 351 -14 q 438 -38 414 -14 q 461 -103 461 -62 q 444 -198 461 -158 q 406 -264 426 -237 q 350 -314 381 -294 l 308 -271 q 343 -240 328 -257 q 367 -206 356 -225 q 378 -167 378 -187 q 330 -144 351 -167 q 308 -90 308 -122 z "},"Ň":{"ha":875,"x_min":125,"x_max":750,"o":"m 125 0 m 306 618 q 292 653 299 633 q 278 693 285 674 q 264 736 271 714 l 258 736 q 261 693 260 714 q 263 653 263 674 q 264 618 264 633 l 264 0 l 125 0 l 125 972 l 278 972 l 569 354 q 583 318 576 339 q 597 279 590 297 q 611 236 604 257 l 617 236 q 614 279 615 257 q 612 318 613 297 q 611 354 611 339 l 611 972 l 750 972 l 750 0 l 597 0 l 306 618 m 389 1042 l 243 1222 l 333 1222 l 438 1132 l 542 1222 l 632 1222 l 486 1042 l 389 1042 z "},"ň":{"ha":757,"x_min":104,"x_max":660,"o":"m 104 0 m 389 604 q 331 591 357 604 q 285 563 304 578 q 243 521 261 544 l 243 0 l 104 0 l 104 694 l 201 694 l 215 611 l 222 611 q 271 660 242 638 q 333 693 296 678 q 424 708 371 708 q 519 691 475 708 q 594 642 563 674 q 642 567 625 611 q 660 472 660 524 l 660 0 l 521 0 l 521 472 q 484 567 521 531 q 389 604 447 604 m 329 778 l 183 958 l 274 958 l 378 868 l 482 958 l 572 958 l 426 778 l 329 778 z "},"Ō":{"ha":833,"x_min":76,"x_max":757,"o":"m 76 0 m 215 486 q 232 294 215 371 q 277 170 249 217 q 342 103 306 124 q 417 83 378 83 q 492 103 456 83 q 556 170 528 124 q 601 294 585 217 q 618 486 618 371 q 601 678 618 600 q 556 802 585 756 q 492 869 528 849 q 417 889 456 889 q 342 869 378 889 q 277 802 306 849 q 232 678 249 756 q 215 486 215 600 m 757 486 q 732 256 757 350 q 663 101 707 161 q 555 13 618 40 q 417 -14 492 -14 q 278 13 342 -14 q 171 101 215 40 q 101 256 126 161 q 76 486 76 350 q 101 716 76 621 q 171 872 126 811 q 278 959 215 932 q 417 986 342 986 q 555 959 492 986 q 663 872 618 932 q 732 716 707 811 q 757 486 757 621 m 604 1194 l 604 1097 l 229 1097 l 229 1194 l 604 1194 z "},"ō":{"ha":736,"x_min":69,"x_max":667,"o":"m 69 0 m 667 347 q 645 188 667 256 q 585 76 624 121 q 491 8 546 31 q 368 -14 436 -14 q 151 76 232 -14 q 69 347 69 165 q 151 619 69 529 q 368 708 232 708 q 491 686 436 708 q 585 619 546 664 q 645 506 624 574 q 667 347 667 439 m 528 347 q 515 470 528 419 q 481 552 503 521 q 431 597 460 583 q 368 611 401 611 q 306 597 335 611 q 255 552 276 583 q 221 470 233 521 q 208 347 208 419 q 221 224 208 274 q 255 142 233 174 q 306 97 276 111 q 368 83 335 83 q 431 97 401 83 q 481 142 460 111 q 515 224 503 174 q 528 347 528 274 m 556 917 l 556 819 l 181 819 l 181 917 l 556 917 z "},"Ő":{"ha":833,"x_min":76,"x_max":757,"o":"m 76 0 m 215 486 q 232 294 215 371 q 277 170 249 217 q 342 103 306 124 q 417 83 378 83 q 492 103 456 83 q 556 170 528 124 q 601 294 585 217 q 618 486 618 371 q 601 678 618 600 q 556 802 585 756 q 492 869 528 849 q 417 889 456 889 q 342 869 378 889 q 277 802 306 849 q 232 678 249 756 q 215 486 215 600 m 757 486 q 732 256 757 350 q 663 101 707 161 q 555 13 618 40 q 417 -14 492 -14 q 278 13 342 -14 q 171 101 215 40 q 101 256 126 161 q 76 486 76 350 q 101 716 76 621 q 171 872 126 811 q 278 959 215 932 q 417 986 342 986 q 555 959 492 986 q 663 872 618 932 q 732 716 707 811 q 757 486 757 621 m 475 1250 l 357 1042 l 281 1042 l 343 1250 l 475 1250 m 663 1250 l 544 1042 l 468 1042 l 531 1250 l 663 1250 z "},"ő":{"ha":736,"x_min":69,"x_max":667,"o":"m 69 0 m 667 347 q 645 188 667 256 q 585 76 624 121 q 491 8 546 31 q 368 -14 436 -14 q 151 76 232 -14 q 69 347 69 165 q 151 619 69 529 q 368 708 232 708 q 491 686 436 708 q 585 619 546 664 q 645 506 624 574 q 667 347 667 439 m 528 347 q 515 470 528 419 q 481 552 503 521 q 431 597 460 583 q 368 611 401 611 q 306 597 335 611 q 255 552 276 583 q 221 470 233 521 q 208 347 208 419 q 221 224 208 274 q 255 142 233 174 q 306 97 276 111 q 368 83 335 83 q 431 97 401 83 q 481 142 460 111 q 515 224 503 174 q 528 347 528 274 m 413 972 l 294 764 l 218 764 l 281 972 l 413 972 m 600 972 l 482 764 l 406 764 l 468 972 l 600 972 z "},"Œ":{"ha":1132,"x_min":76,"x_max":1090,"o":"m 479 0 q 305 27 381 0 q 178 113 229 54 q 102 263 128 171 q 76 486 76 356 q 102 709 76 617 q 178 860 128 801 q 305 945 229 918 q 479 972 381 972 l 1090 972 l 1090 875 l 688 875 l 688 556 l 1007 556 l 1007 458 l 688 458 l 688 97 l 1090 97 l 1090 0 l 479 0 m 549 97 l 549 875 l 479 875 q 367 856 417 875 q 285 790 318 836 q 233 670 251 744 q 215 486 215 596 q 233 302 215 376 q 285 182 251 228 q 367 117 318 136 q 479 97 417 97 l 549 97 z "},"œ":{"ha":1139,"x_min":69,"x_max":1076,"o":"m 583 597 q 673 676 619 644 q 799 708 726 708 q 909 686 858 708 q 997 619 960 664 q 1056 506 1035 574 q 1076 347 1076 439 l 1076 326 l 1049 299 l 660 299 q 706 136 660 189 q 826 83 753 83 q 885 93 858 83 q 933 114 913 103 q 979 146 958 128 l 993 146 l 1042 63 q 979 24 1015 40 q 907 -3 949 8 q 813 -14 865 -14 q 685 13 744 -14 q 585 97 625 40 q 494 13 547 40 q 361 -14 440 -14 q 242 8 296 -14 q 150 76 189 31 q 90 188 111 121 q 69 347 69 256 q 90 506 69 439 q 150 619 111 574 q 242 686 189 664 q 361 708 296 708 q 494 676 440 708 q 583 597 547 644 m 361 83 q 419 97 392 83 q 467 139 446 110 q 500 215 488 168 q 514 332 513 263 l 514 347 l 514 361 q 500 477 513 429 q 467 555 488 525 q 419 598 446 585 q 361 611 392 611 q 301 597 329 611 q 253 552 274 583 q 220 470 232 521 q 208 347 208 419 q 220 224 208 274 q 253 142 232 174 q 301 97 274 111 q 361 83 329 83 m 799 611 q 744 599 769 611 q 701 560 719 586 q 671 494 682 535 q 660 396 660 453 l 938 396 q 926 494 938 453 q 897 560 915 535 q 853 599 878 586 q 799 611 828 611 z "},"Ŕ":{"ha":799,"x_min":125,"x_max":750,"o":"m 125 0 m 264 361 l 264 0 l 125 0 l 125 972 l 361 972 q 624 893 539 972 q 708 667 708 814 q 518 382 708 444 l 750 0 l 590 0 l 375 361 l 264 361 m 361 458 q 569 667 569 458 q 361 875 569 875 l 264 875 l 264 458 l 361 458 m 542 1250 l 417 1042 l 326 1042 l 389 1250 l 542 1250 z "},"ŕ":{"ha":507,"x_min":104,"x_max":507,"o":"m 104 0 m 382 597 q 328 584 353 597 q 283 556 303 571 q 243 514 261 538 l 243 0 l 104 0 l 104 694 l 201 694 l 215 611 l 222 611 q 269 660 242 638 q 330 693 293 678 q 417 708 367 708 q 451 706 435 708 q 481 701 468 704 q 507 694 496 697 l 486 583 l 472 583 q 443 590 458 586 q 413 595 429 593 q 382 597 397 597 m 454 972 l 329 764 l 239 764 l 301 972 l 454 972 z "},"Ŗ":{"ha":799,"x_min":125,"x_max":750,"o":"m 125 0 m 264 361 l 264 0 l 125 0 l 125 972 l 361 972 q 624 893 539 972 q 708 667 708 814 q 518 382 708 444 l 750 0 l 590 0 l 375 361 l 264 361 m 361 458 q 569 667 569 458 q 361 875 569 875 l 264 875 l 264 458 l 361 458 m 329 -90 q 351 -36 329 -58 q 399 -14 372 -14 q 458 -38 435 -14 q 482 -103 482 -62 q 465 -198 482 -158 q 426 -264 447 -237 q 371 -314 401 -294 l 329 -271 q 364 -240 349 -257 q 388 -206 376 -225 q 399 -167 399 -187 q 351 -144 372 -167 q 329 -90 329 -122 z "},"ŗ":{"ha":507,"x_min":97,"x_max":507,"o":"m 97 0 m 382 597 q 328 584 353 597 q 283 556 303 571 q 243 514 261 538 l 243 0 l 104 0 l 104 694 l 201 694 l 215 611 l 222 611 q 269 660 242 638 q 330 693 293 678 q 417 708 367 708 q 451 706 435 708 q 481 701 468 704 q 507 694 496 697 l 486 583 l 472 583 q 443 590 458 586 q 413 595 429 593 q 382 597 397 597 m 97 -144 q 119 -90 97 -112 q 167 -68 140 -68 q 226 -92 203 -68 q 250 -157 250 -117 q 233 -252 250 -212 q 194 -318 215 -292 q 139 -368 169 -349 l 97 -325 q 132 -294 117 -311 q 156 -260 144 -279 q 167 -221 167 -242 q 119 -199 140 -221 q 97 -144 97 -176 z "},"Ř":{"ha":799,"x_min":125,"x_max":750,"o":"m 125 0 m 264 361 l 264 0 l 125 0 l 125 972 l 361 972 q 624 893 539 972 q 708 667 708 814 q 518 382 708 444 l 750 0 l 590 0 l 375 361 l 264 361 m 361 458 q 569 667 569 458 q 361 875 569 875 l 264 875 l 264 458 l 361 458 m 329 1056 l 183 1236 l 274 1236 l 378 1146 l 482 1236 l 572 1236 l 426 1056 l 329 1056 z "},"ř":{"ha":528,"x_min":104,"x_max":514,"o":"m 104 0 m 382 597 q 328 584 353 597 q 283 556 303 571 q 243 514 261 538 l 243 0 l 104 0 l 104 694 l 201 694 l 215 611 l 222 611 q 269 660 242 638 q 330 693 293 678 q 417 708 367 708 q 451 706 435 708 q 481 701 468 704 q 507 694 496 697 l 486 583 l 472 583 q 443 590 458 586 q 413 595 429 593 q 382 597 397 597 m 271 778 l 125 958 l 215 958 l 319 868 l 424 958 l 514 958 l 368 778 l 271 778 z "},"Ś":{"ha":701,"x_min":49,"x_max":653,"o":"m 49 0 m 354 986 q 472 974 422 986 q 557 947 522 963 q 625 910 596 931 l 576 826 l 563 826 q 513 857 542 843 q 451 878 488 868 q 368 889 415 889 q 301 876 332 889 q 249 843 271 864 q 214 794 226 822 q 201 736 201 767 q 235 645 201 681 q 318 583 268 610 q 427 531 368 556 q 536 473 486 507 q 619 390 586 439 q 653 264 653 340 q 632 150 653 201 q 571 63 611 99 q 471 6 531 26 q 333 -14 411 -14 q 213 -3 265 -14 q 124 24 160 8 q 49 63 81 40 l 97 146 l 111 146 q 168 114 136 128 q 234 93 196 103 q 319 83 272 83 q 464 130 414 83 q 514 250 514 176 q 481 341 514 306 q 397 403 447 376 q 288 455 347 431 q 179 513 229 479 q 96 597 129 547 q 63 722 63 646 q 83 828 63 779 q 140 912 103 876 q 232 967 178 947 q 354 986 286 986 m 514 1250 l 389 1042 l 299 1042 l 361 1250 l 514 1250 z "},"ś":{"ha":639,"x_min":49,"x_max":590,"o":"m 49 0 m 306 -14 q 194 -3 243 -14 q 114 24 146 8 q 49 63 76 40 l 97 146 l 111 146 q 160 114 132 128 q 217 93 183 103 q 292 83 250 83 q 416 111 381 83 q 451 181 451 139 q 423 241 451 218 q 351 281 394 264 q 257 313 307 297 q 163 351 207 328 q 91 411 119 375 q 63 507 63 447 q 126 652 63 596 q 326 708 190 708 q 429 697 385 708 q 506 669 474 685 q 569 632 542 653 l 521 549 l 507 549 q 460 579 485 565 q 407 601 438 590 q 340 611 376 611 q 234 584 267 611 q 201 521 201 557 q 230 460 201 483 q 302 421 258 438 q 396 389 346 404 q 490 350 446 374 q 562 290 533 326 q 590 194 590 253 q 574 109 590 147 q 524 44 558 71 q 435 1 489 17 q 306 -14 381 -14 m 468 972 l 343 764 l 253 764 l 315 972 l 468 972 z "},"Ş":{"ha":701,"x_min":49,"x_max":653,"o":"m 49 0 m 354 986 q 472 974 422 986 q 557 947 522 963 q 625 910 596 931 l 576 826 l 563 826 q 513 857 542 843 q 451 878 488 868 q 368 889 415 889 q 301 876 332 889 q 249 843 271 864 q 214 794 226 822 q 201 736 201 767 q 235 645 201 681 q 318 583 268 610 q 427 531 368 556 q 536 473 486 507 q 619 390 586 439 q 653 264 653 340 q 632 150 653 201 q 571 63 611 99 q 471 6 531 26 q 333 -14 411 -14 q 213 -3 265 -14 q 124 24 160 8 q 49 63 81 40 l 97 146 l 111 146 q 168 114 136 128 q 234 93 196 103 q 319 83 272 83 q 464 130 414 83 q 514 250 514 176 q 481 341 514 306 q 397 403 447 376 q 288 455 347 431 q 179 513 229 479 q 96 597 129 547 q 63 722 63 646 q 83 828 63 779 q 140 912 103 876 q 232 967 178 947 q 354 986 286 986 m 361 -42 q 453 -74 419 -42 q 486 -153 486 -106 q 451 -232 486 -200 q 354 -264 417 -264 q 308 -260 328 -264 q 272 -250 288 -256 q 243 -236 256 -244 l 265 -181 l 278 -181 q 295 -191 276 -181 q 340 -201 314 -201 q 381 -187 367 -201 q 396 -153 396 -174 q 381 -118 396 -132 q 333 -104 365 -104 l 278 -104 l 278 28 l 361 28 l 361 -42 z "},"ş":{"ha":639,"x_min":49,"x_max":590,"o":"m 49 0 m 306 -14 q 194 -3 243 -14 q 114 24 146 8 q 49 63 76 40 l 97 146 l 111 146 q 160 114 132 128 q 217 93 183 103 q 292 83 250 83 q 416 111 381 83 q 451 181 451 139 q 423 241 451 218 q 351 281 394 264 q 257 313 307 297 q 163 351 207 328 q 91 411 119 375 q 63 507 63 447 q 126 652 63 596 q 326 708 190 708 q 429 697 385 708 q 506 669 474 685 q 569 632 542 653 l 521 549 l 507 549 q 460 579 485 565 q 407 601 438 590 q 340 611 376 611 q 234 584 267 611 q 201 521 201 557 q 230 460 201 483 q 302 421 258 438 q 396 389 346 404 q 490 350 446 374 q 562 290 533 326 q 590 194 590 253 q 574 109 590 147 q 524 44 558 71 q 435 1 489 17 q 306 -14 381 -14 m 343 -42 q 435 -74 401 -42 q 468 -153 468 -106 q 433 -232 468 -200 q 336 -264 399 -264 q 290 -260 310 -264 q 254 -250 269 -256 q 225 -236 238 -244 l 247 -181 l 260 -181 q 277 -191 258 -181 q 322 -201 296 -201 q 363 -187 349 -201 q 378 -153 378 -174 q 363 -118 378 -132 q 315 -104 347 -104 l 260 -104 l 260 28 l 343 28 l 343 -42 z "},"Š":{"ha":701,"x_min":49,"x_max":653,"o":"m 49 0 m 354 986 q 472 974 422 986 q 557 947 522 963 q 625 910 596 931 l 576 826 l 563 826 q 513 857 542 843 q 451 878 488 868 q 368 889 415 889 q 301 876 332 889 q 249 843 271 864 q 214 794 226 822 q 201 736 201 767 q 235 645 201 681 q 318 583 268 610 q 427 531 368 556 q 536 473 486 507 q 619 390 586 439 q 653 264 653 340 q 632 150 653 201 q 571 63 611 99 q 471 6 531 26 q 333 -14 411 -14 q 213 -3 265 -14 q 124 24 160 8 q 49 63 81 40 l 97 146 l 111 146 q 168 114 136 128 q 234 93 196 103 q 319 83 272 83 q 464 130 414 83 q 514 250 514 176 q 481 341 514 306 q 397 403 447 376 q 288 455 347 431 q 179 513 229 479 q 96 597 129 547 q 63 722 63 646 q 83 828 63 779 q 140 912 103 876 q 232 967 178 947 q 354 986 286 986 m 301 1056 l 156 1236 l 246 1236 l 350 1146 l 454 1236 l 544 1236 l 399 1056 l 301 1056 z "},"š":{"ha":639,"x_min":49,"x_max":590,"o":"m 49 0 m 306 -14 q 194 -3 243 -14 q 114 24 146 8 q 49 63 76 40 l 97 146 l 111 146 q 160 114 132 128 q 217 93 183 103 q 292 83 250 83 q 416 111 381 83 q 451 181 451 139 q 423 241 451 218 q 351 281 394 264 q 257 313 307 297 q 163 351 207 328 q 91 411 119 375 q 63 507 63 447 q 126 652 63 596 q 326 708 190 708 q 429 697 385 708 q 506 669 474 685 q 569 632 542 653 l 521 549 l 507 549 q 460 579 485 565 q 407 601 438 590 q 340 611 376 611 q 234 584 267 611 q 201 521 201 557 q 230 460 201 483 q 302 421 258 438 q 396 389 346 404 q 490 350 446 374 q 562 290 533 326 q 590 194 590 253 q 574 109 590 147 q 524 44 558 71 q 435 1 489 17 q 306 -14 381 -14 m 271 778 l 125 958 l 215 958 l 319 868 l 424 958 l 514 958 l 368 778 l 271 778 z "},"Ţ":{"ha":667,"x_min":14,"x_max":653,"o":"m 14 0 m 264 0 l 264 875 l 14 875 l 14 972 l 653 972 l 653 875 l 403 875 l 403 0 l 264 0 m 257 -158 q 278 -104 257 -126 q 326 -82 300 -82 q 386 -106 363 -82 q 410 -171 410 -131 q 392 -266 410 -226 q 354 -332 375 -306 q 299 -382 329 -362 l 257 -339 q 292 -308 276 -325 q 315 -274 304 -293 q 326 -235 326 -256 q 278 -212 300 -235 q 257 -158 257 -190 z "},"ţ":{"ha":556,"x_min":28,"x_max":556,"o":"m 28 0 m 271 208 q 299 115 271 146 q 375 83 328 83 q 419 92 399 83 q 457 111 440 100 q 493 139 476 124 l 507 139 l 556 56 q 500 21 531 36 q 438 -3 474 7 q 361 -14 403 -14 q 267 2 308 -14 q 194 47 225 18 q 148 117 164 76 q 132 208 132 158 l 132 597 l 28 597 l 28 681 l 208 861 l 271 861 l 271 694 l 444 694 l 444 597 l 271 597 l 271 208 m 264 -158 q 285 -104 264 -126 q 333 -82 307 -82 q 393 -106 369 -82 q 417 -171 417 -131 q 399 -266 417 -226 q 361 -332 382 -306 q 306 -382 336 -362 l 264 -339 q 299 -308 283 -325 q 322 -274 311 -293 q 333 -235 333 -256 q 285 -212 307 -235 q 264 -158 264 -190 z "},"Ť":{"ha":667,"x_min":14,"x_max":653,"o":"m 14 0 m 264 0 l 264 875 l 14 875 l 14 972 l 653 972 l 653 875 l 403 875 l 403 0 l 264 0 m 285 1056 l 139 1236 l 229 1236 l 333 1146 l 438 1236 l 528 1236 l 382 1056 l 285 1056 z "},"ť":{"ha":667,"x_min":28,"x_max":653,"o":"m 500 785 q 522 839 500 817 q 569 861 543 861 q 629 837 606 861 q 653 772 653 813 q 635 677 653 717 q 597 611 618 638 q 542 561 572 581 l 500 604 q 535 635 519 618 q 558 669 547 650 q 569 708 569 688 q 522 731 543 708 q 500 785 500 753 m 271 208 q 299 115 271 146 q 375 83 328 83 q 419 92 399 83 q 457 111 440 100 q 493 139 476 124 l 507 139 l 556 56 q 500 21 531 36 q 438 -3 474 7 q 361 -14 403 -14 q 267 2 308 -14 q 194 47 225 18 q 148 117 164 76 q 132 208 132 158 l 132 597 l 28 597 l 28 681 l 208 861 l 271 861 l 271 694 l 444 694 l 444 597 l 271 597 l 271 208 z "},"Ū":{"ha":861,"x_min":118,"x_max":743,"o":"m 118 0 m 431 83 q 557 137 510 83 q 604 306 604 190 l 604 972 l 743 972 l 743 306 q 663 67 743 149 q 431 -14 582 -14 q 199 67 279 -14 q 118 306 118 149 l 118 972 l 257 972 l 257 306 q 304 137 257 190 q 431 83 351 83 m 618 1181 l 618 1083 l 243 1083 l 243 1181 l 618 1181 z "},"ū":{"ha":764,"x_min":104,"x_max":660,"o":"m 104 0 m 375 90 q 433 103 407 90 q 479 132 460 117 q 521 174 503 150 l 521 694 l 660 694 l 660 0 l 563 0 l 549 83 l 542 83 q 493 35 522 56 q 431 1 468 15 q 340 -14 393 -14 q 244 3 288 -14 q 170 52 201 21 q 122 126 139 83 q 104 222 104 169 l 104 694 l 243 694 l 243 222 q 280 127 243 164 q 375 90 317 90 m 569 904 l 569 807 l 194 807 l 194 904 l 569 904 z "},"Ů":{"ha":861,"x_min":118,"x_max":743,"o":"m 118 0 m 431 83 q 557 137 510 83 q 604 306 604 190 l 604 972 l 743 972 l 743 306 q 663 67 743 149 q 431 -14 582 -14 q 199 67 279 -14 q 118 306 118 149 l 118 972 l 257 972 l 257 306 q 304 137 257 190 q 431 83 351 83 m 431 1208 q 392 1193 410 1208 q 375 1146 375 1178 q 392 1099 375 1114 q 431 1083 410 1083 q 469 1099 451 1083 q 486 1146 486 1114 q 469 1193 486 1178 q 431 1208 451 1208 m 431 1278 q 531 1241 493 1278 q 569 1146 569 1204 q 531 1051 569 1088 q 431 1014 493 1014 q 330 1051 368 1014 q 292 1146 292 1088 q 330 1241 292 1204 q 431 1278 368 1278 z "},"ů":{"ha":764,"x_min":104,"x_max":660,"o":"m 104 0 m 375 90 q 433 103 407 90 q 479 132 460 117 q 521 174 503 150 l 521 694 l 660 694 l 660 0 l 563 0 l 549 83 l 542 83 q 493 35 522 56 q 431 1 468 15 q 340 -14 393 -14 q 244 3 288 -14 q 170 52 201 21 q 122 126 139 83 q 104 222 104 169 l 104 694 l 243 694 l 243 222 q 280 127 243 164 q 375 90 317 90 m 382 958 q 344 943 361 958 q 326 896 326 928 q 344 849 326 864 q 382 833 361 833 q 420 849 403 833 q 438 896 438 864 q 420 943 438 928 q 382 958 403 958 m 382 1028 q 483 991 444 1028 q 521 896 521 954 q 483 801 521 838 q 382 764 444 764 q 281 801 319 764 q 243 896 243 838 q 281 991 243 954 q 382 1028 319 1028 z "},"Ű":{"ha":861,"x_min":118,"x_max":743,"o":"m 118 0 m 431 83 q 557 137 510 83 q 604 306 604 190 l 604 972 l 743 972 l 743 306 q 663 67 743 149 q 431 -14 582 -14 q 199 67 279 -14 q 118 306 118 149 l 118 972 l 257 972 l 257 306 q 304 137 257 190 q 431 83 351 83 m 489 1236 l 371 1028 l 294 1028 l 357 1236 l 489 1236 m 676 1236 l 558 1028 l 482 1028 l 544 1236 l 676 1236 z "},"ű":{"ha":764,"x_min":104,"x_max":660,"o":"m 104 0 m 375 90 q 433 103 407 90 q 479 132 460 117 q 521 174 503 150 l 521 694 l 660 694 l 660 0 l 563 0 l 549 83 l 542 83 q 493 35 522 56 q 431 1 468 15 q 340 -14 393 -14 q 244 3 288 -14 q 170 52 201 21 q 122 126 139 83 q 104 222 104 169 l 104 694 l 243 694 l 243 222 q 280 127 243 164 q 375 90 317 90 m 440 960 l 322 751 l 246 751 l 308 960 l 440 960 m 628 960 l 510 751 l 433 751 l 496 960 l 628 960 z "},"Ų":{"ha":861,"x_min":118,"x_max":743,"o":"m 118 0 m 431 83 q 557 137 510 83 q 604 306 604 190 l 604 972 l 743 972 l 743 306 q 663 67 743 149 q 431 -14 582 -14 q 199 67 279 -14 q 118 306 118 149 l 118 972 l 257 972 l 257 306 q 304 137 257 190 q 431 83 351 83 m 472 -139 q 502 -134 488 -139 q 527 -124 517 -129 q 544 -113 538 -118 q 550 -108 550 -108 l 563 -108 l 563 -181 q 533 -199 550 -192 q 498 -210 518 -206 q 451 -215 478 -215 q 358 -187 389 -215 q 326 -111 326 -158 q 337 -67 326 -87 q 361 -32 347 -47 q 396 0 376 -15 l 493 0 q 458 -26 474 -11 q 434 -56 444 -39 q 424 -90 424 -72 q 438 -125 424 -111 q 472 -139 451 -139 z "},"ų":{"ha":757,"x_min":104,"x_max":736,"o":"m 104 0 m 375 90 q 433 103 407 90 q 479 132 460 117 q 521 174 503 150 l 521 694 l 660 694 l 660 0 l 563 0 l 549 83 l 542 83 q 493 35 522 56 q 431 1 468 15 q 340 -14 393 -14 q 244 3 288 -14 q 170 52 201 21 q 122 126 139 83 q 104 222 104 169 l 104 694 l 243 694 l 243 222 q 280 127 243 164 q 375 90 317 90 m 646 -139 q 676 -134 661 -139 q 701 -124 690 -129 q 717 -113 711 -118 q 724 -108 724 -108 l 736 -108 l 736 -181 q 707 -199 724 -192 q 672 -210 692 -206 q 625 -215 651 -215 q 531 -187 563 -215 q 500 -111 500 -158 q 510 -67 500 -87 q 535 -32 521 -47 q 569 0 550 -15 l 667 0 q 632 -26 647 -11 q 608 -56 618 -39 q 597 -90 597 -72 q 611 -125 597 -111 q 646 -139 625 -139 z "},"Ÿ":{"ha":736,"x_min":0,"x_max":736,"o":"m 0 0 m 590 972 l 736 972 l 438 319 l 438 0 l 299 0 l 299 319 l 0 972 l 146 972 l 340 549 q 351 521 346 535 q 358 494 356 507 q 365 465 363 479 l 371 465 q 378 494 374 479 q 385 521 381 507 q 396 549 389 535 l 590 972 m 319 1139 q 298 1084 319 1106 q 243 1063 276 1063 q 188 1084 210 1063 q 167 1139 167 1106 q 188 1194 167 1172 q 243 1215 210 1215 q 298 1194 276 1215 q 319 1139 319 1172 m 563 1139 q 541 1084 563 1106 q 486 1063 519 1063 q 431 1084 453 1063 q 410 1139 410 1106 q 431 1194 410 1172 q 486 1215 453 1215 q 541 1194 519 1215 q 563 1139 563 1172 z "},"Ź":{"ha":674,"x_min":35,"x_max":639,"o":"m 35 0 m 35 0 l 35 104 l 465 875 l 35 875 l 35 972 l 632 972 l 632 868 l 201 97 l 639 97 l 639 0 l 35 0 m 486 1250 l 361 1042 l 271 1042 l 333 1250 l 486 1250 z "},"ź":{"ha":611,"x_min":49,"x_max":563,"o":"m 49 0 m 49 0 l 49 104 l 389 597 l 49 597 l 49 694 l 556 694 l 556 590 l 215 97 l 563 97 l 563 0 l 49 0 m 454 972 l 329 764 l 239 764 l 301 972 l 454 972 z "},"Ż":{"ha":674,"x_min":35,"x_max":639,"o":"m 35 0 m 35 0 l 35 104 l 465 875 l 35 875 l 35 972 l 632 972 l 632 868 l 201 97 l 639 97 l 639 0 l 35 0 m 419 1139 q 396 1079 419 1103 q 336 1056 372 1056 q 276 1079 300 1056 q 253 1139 253 1103 q 276 1199 253 1175 q 336 1222 300 1222 q 396 1199 372 1222 q 419 1139 419 1175 z "},"ż":{"ha":611,"x_min":49,"x_max":563,"o":"m 49 0 m 49 0 l 49 104 l 389 597 l 49 597 l 49 694 l 556 694 l 556 590 l 215 97 l 563 97 l 563 0 l 49 0 m 389 861 q 365 801 389 825 q 306 778 342 778 q 246 801 269 778 q 222 861 222 825 q 246 921 222 897 q 306 944 269 944 q 365 921 342 944 q 389 861 389 897 z "},"Ž":{"ha":674,"x_min":35,"x_max":639,"o":"m 35 0 m 35 0 l 35 104 l 465 875 l 35 875 l 35 972 l 632 972 l 632 868 l 201 97 l 639 97 l 639 0 l 35 0 m 288 1056 l 142 1236 l 232 1236 l 336 1146 l 440 1236 l 531 1236 l 385 1056 l 288 1056 z "},"ž":{"ha":611,"x_min":49,"x_max":563,"o":"m 49 0 m 49 0 l 49 104 l 389 597 l 49 597 l 49 694 l 556 694 l 556 590 l 215 97 l 563 97 l 563 0 l 49 0 m 257 778 l 111 958 l 201 958 l 306 868 l 410 958 l 500 958 l 354 778 l 257 778 z "},"ƒ":{"ha":543,"x_min":-125,"x_max":633,"o":"m 176 597 l 86 597 l 94 694 l 185 694 l 190 764 q 263 925 199 864 q 439 986 326 986 q 519 974 483 986 q 581 947 556 963 q 633 910 610 931 l 576 826 l 563 826 q 526 857 546 843 q 489 878 510 868 q 444 889 468 889 q 365 858 397 889 q 329 764 333 826 l 324 694 l 511 694 l 503 597 l 315 597 l 256 -56 q 181 -217 246 -156 q 8 -278 117 -278 q -47 -272 -24 -278 q -89 -257 -71 -265 q -125 -236 -110 -249 l -82 -146 l -68 -146 q -47 -164 -58 -157 q -25 -176 -37 -171 q 3 -181 -12 -181 q 81 -149 51 -181 q 117 -56 111 -118 l 176 597 z "},"Ș":{"ha":701,"x_min":49,"x_max":653,"o":"m 49 0 m 354 986 q 472 974 422 986 q 557 947 522 963 q 625 910 596 931 l 576 826 l 563 826 q 513 857 542 843 q 451 878 488 868 q 368 889 415 889 q 301 876 332 889 q 249 843 271 864 q 214 794 226 822 q 201 736 201 767 q 235 645 201 681 q 318 583 268 610 q 427 531 368 556 q 536 473 486 507 q 619 390 586 439 q 653 264 653 340 q 632 150 653 201 q 571 63 611 99 q 471 6 531 26 q 333 -14 411 -14 q 213 -3 265 -14 q 124 24 160 8 q 49 63 81 40 l 97 146 l 111 146 q 168 114 136 128 q 234 93 196 103 q 319 83 272 83 q 464 130 414 83 q 514 250 514 176 q 481 341 514 306 q 397 403 447 376 q 288 455 347 431 q 179 513 229 479 q 96 597 129 547 q 63 722 63 646 q 83 828 63 779 q 140 912 103 876 q 232 967 178 947 q 354 986 286 986 m 285 -151 q 306 -97 285 -119 q 354 -75 328 -75 q 414 -99 390 -75 q 438 -164 438 -124 q 420 -259 438 -219 q 382 -325 403 -299 q 326 -375 357 -356 l 285 -332 q 319 -301 304 -318 q 343 -267 332 -286 q 354 -228 354 -249 q 306 -206 328 -228 q 285 -151 285 -183 z "},"ș":{"ha":639,"x_min":49,"x_max":590,"o":"m 49 0 m 306 -14 q 194 -3 243 -14 q 114 24 146 8 q 49 63 76 40 l 97 146 l 111 146 q 160 114 132 128 q 217 93 183 103 q 292 83 250 83 q 416 111 381 83 q 451 181 451 139 q 423 241 451 218 q 351 281 394 264 q 257 313 307 297 q 163 351 207 328 q 91 411 119 375 q 63 507 63 447 q 126 652 63 596 q 326 708 190 708 q 429 697 385 708 q 506 669 474 685 q 569 632 542 653 l 521 549 l 507 549 q 460 579 485 565 q 407 601 438 590 q 340 611 376 611 q 234 584 267 611 q 201 521 201 557 q 230 460 201 483 q 302 421 258 438 q 396 389 346 404 q 490 350 446 374 q 562 290 533 326 q 590 194 590 253 q 574 109 590 147 q 524 44 558 71 q 435 1 489 17 q 306 -14 381 -14 m 257 -151 q 278 -97 257 -119 q 326 -75 300 -75 q 386 -99 363 -75 q 410 -164 410 -124 q 392 -259 410 -219 q 354 -325 375 -299 q 299 -375 329 -356 l 257 -332 q 292 -301 276 -318 q 315 -267 304 -286 q 326 -228 326 -249 q 278 -206 300 -228 q 257 -151 257 -183 z "},"ˆ":{"ha":444,"x_min":28,"x_max":417,"o":"m 271 958 l 417 778 l 326 778 l 222 868 l 118 778 l 28 778 l 174 958 l 271 958 z "},"ˇ":{"ha":444,"x_min":28,"x_max":417,"o":"m 174 778 l 28 958 l 118 958 l 222 868 l 326 958 l 417 958 l 271 778 l 174 778 z "},"˘":{"ha":444,"x_min":14,"x_max":431,"o":"m 222 861 q 285 883 264 861 q 306 958 306 906 l 431 958 q 378 826 431 875 q 222 778 326 778 q 66 826 118 778 q 14 958 14 875 l 139 958 q 160 883 139 906 q 222 861 181 861 z "},"˙":{"ha":194,"x_min":14,"x_max":181,"o":"m 181 861 q 157 801 181 825 q 97 778 133 778 q 38 801 61 778 q 14 861 14 825 q 38 921 14 897 q 97 944 61 944 q 157 921 133 944 q 181 861 181 897 z "},"˚":{"ha":306,"x_min":14,"x_max":292,"o":"m 153 944 q 115 929 132 944 q 97 882 97 914 q 115 835 97 850 q 153 819 132 819 q 191 835 174 819 q 208 882 208 850 q 191 929 208 914 q 153 944 174 944 m 153 1014 q 253 977 215 1014 q 292 882 292 940 q 253 787 292 824 q 153 750 215 750 q 52 787 90 750 q 14 882 14 824 q 52 977 14 940 q 153 1014 90 1014 z "},"˛":{"ha":264,"x_min":14,"x_max":250,"o":"m 160 -139 q 190 -134 175 -139 q 215 -124 204 -129 q 231 -113 225 -118 q 238 -108 238 -108 l 250 -108 l 250 -181 q 221 -199 238 -192 q 185 -210 206 -206 q 139 -215 165 -215 q 45 -187 76 -215 q 14 -111 14 -158 q 24 -67 14 -87 q 49 -32 35 -47 q 83 0 64 -15 l 181 0 q 146 -26 161 -11 q 122 -56 132 -39 q 111 -90 111 -72 q 125 -125 111 -111 q 160 -139 139 -139 z "},"˜":{"ha":410,"x_min":14,"x_max":396,"o":"m 340 958 l 396 924 q 351 841 381 876 q 271 806 322 806 q 228 815 244 806 q 198 837 211 825 q 173 858 185 849 q 146 868 161 868 q 118 859 131 868 q 97 840 106 850 q 85 821 89 829 q 82 813 82 813 l 69 813 l 14 847 q 33 892 22 871 q 58 930 43 914 q 93 956 74 946 q 139 965 113 965 q 182 956 165 965 q 212 934 199 946 q 237 913 225 922 q 264 903 249 903 q 292 911 279 903 q 313 930 304 919 q 324 949 321 940 q 328 958 328 958 l 340 958 z "},"˝":{"ha":410,"x_min":14,"x_max":396,"o":"m 208 972 l 90 764 l 14 764 l 76 972 l 208 972 m 396 972 l 278 764 l 201 764 l 264 972 l 396 972 z "},"Ё":{"ha":708,"x_min":125,"x_max":667,"o":"m 125 0 l 125 972 l 667 972 l 667 875 l 264 875 l 264 556 l 583 556 l 583 458 l 264 458 l 264 97 l 667 97 l 667 0 l 125 0 m 347 1139 q 326 1084 347 1106 q 271 1063 304 1063 q 216 1084 238 1063 q 194 1139 194 1106 q 216 1194 194 1172 q 271 1215 238 1215 q 326 1194 304 1215 q 347 1139 347 1172 m 604 1139 q 583 1084 604 1106 q 528 1063 561 1063 q 473 1084 494 1063 q 451 1139 451 1106 q 473 1194 451 1172 q 528 1215 494 1215 q 583 1194 561 1215 q 604 1139 604 1172 z "},"Ђ":{"ha":889,"x_min":0,"x_max":819,"o":"m 819 181 q 803 90 819 131 q 759 19 788 49 q 691 -26 731 -10 q 604 -42 651 -42 q 560 -39 581 -42 q 522 -32 539 -36 q 486 -21 503 -26 l 500 69 l 514 69 q 535 63 524 65 q 576 56 556 56 q 652 87 624 56 q 681 181 681 118 l 681 354 q 631 481 681 433 q 493 528 582 528 q 430 524 458 528 q 379 517 401 521 q 333 507 354 511 l 333 0 l 194 0 l 194 875 l 0 875 l 0 972 l 583 972 l 583 875 l 333 875 l 333 604 q 389 614 358 608 q 451 622 415 618 q 528 625 486 625 q 650 605 596 625 q 742 549 704 585 q 799 464 779 514 q 819 354 819 414 l 819 181 z "},"Ѓ":{"ha":681,"x_min":125,"x_max":667,"o":"m 125 0 l 125 972 l 667 972 l 667 875 l 264 875 l 264 0 l 125 0 m 563 1250 l 438 1042 l 347 1042 l 410 1250 l 563 1250 z "},"Є":{"ha":715,"x_min":76,"x_max":681,"o":"m 76 486 q 101 716 76 621 q 172 872 126 811 q 282 959 218 932 q 424 986 346 986 q 526 974 482 986 q 603 947 571 963 q 667 910 639 931 l 618 826 l 604 826 q 557 857 582 843 q 504 878 535 868 q 438 889 474 889 q 355 872 393 889 q 288 814 317 854 q 240 707 258 774 q 217 542 221 640 l 542 542 l 542 444 l 215 444 q 237 274 218 343 q 287 162 256 204 q 360 101 318 119 q 451 83 401 83 q 518 93 488 83 q 571 114 549 103 q 618 146 596 128 l 632 146 l 681 63 q 617 24 653 40 q 540 -3 585 8 q 438 -14 496 -14 q 288 13 354 -14 q 174 101 221 40 q 101 256 126 161 q 76 486 76 350 z "},"Ѕ":{"ha":701,"x_min":49,"x_max":653,"o":"m 354 986 q 472 974 422 986 q 557 947 522 963 q 625 910 596 931 l 576 826 l 563 826 q 513 857 542 843 q 451 878 488 868 q 368 889 415 889 q 301 876 332 889 q 249 843 271 864 q 214 794 226 822 q 201 736 201 767 q 235 645 201 681 q 318 583 268 610 q 427 531 368 556 q 536 473 486 507 q 619 390 586 439 q 653 264 653 340 q 632 150 653 201 q 571 63 611 99 q 471 6 531 26 q 333 -14 411 -14 q 213 -3 265 -14 q 124 24 160 8 q 49 63 81 40 l 97 146 l 111 146 q 168 114 136 128 q 234 93 196 103 q 319 83 272 83 q 464 130 414 83 q 514 250 514 176 q 481 341 514 306 q 397 403 447 376 q 288 455 347 431 q 179 513 229 479 q 96 597 129 547 q 63 722 63 646 q 83 828 63 779 q 140 912 103 876 q 232 967 178 947 q 354 986 286 986 z "},"І":{"ha":389,"x_min":125,"x_max":264,"o":"m 125 972 l 264 972 l 264 0 l 125 0 l 125 972 z "},"Ї":{"ha":347,"x_min":-35,"x_max":382,"o":"m 111 972 l 250 972 l 250 0 l 111 0 l 111 972 m 132 1167 q 108 1107 132 1131 q 49 1083 85 1083 q -11 1107 13 1083 q -35 1167 -35 1131 q -11 1226 -35 1203 q 49 1250 13 1250 q 108 1226 85 1250 q 132 1167 132 1203 m 382 1167 q 358 1107 382 1131 q 299 1083 335 1083 q 239 1107 263 1083 q 215 1167 215 1131 q 239 1226 215 1203 q 299 1250 263 1250 q 358 1226 335 1250 q 382 1167 382 1203 z "},"Ј":{"ha":590,"x_min":0,"x_max":472,"o":"m 174 83 q 293 126 253 83 q 333 264 333 169 l 333 972 l 472 972 l 472 264 q 401 57 472 128 q 188 -14 329 -14 q 111 -4 146 -14 q 51 17 76 6 q 0 49 22 31 l 42 139 l 56 139 q 92 111 72 124 q 129 92 108 100 q 174 83 150 83 z "},"Љ":{"ha":1224,"x_min":14,"x_max":1175,"o":"m 835 611 q 1092 532 1008 611 q 1175 306 1175 453 q 1092 79 1175 158 q 835 0 1008 0 l 569 0 l 569 875 l 313 875 l 278 222 q 220 44 271 101 q 90 -14 169 -14 q 36 -7 60 -14 q 14 0 24 -4 l 21 90 l 35 90 q 43 86 38 88 q 63 83 54 83 q 112 114 89 83 q 139 222 135 144 l 181 972 l 710 972 l 710 611 l 835 611 m 710 514 l 710 97 l 835 97 q 1036 306 1036 97 q 835 514 1036 514 l 710 514 z "},"Њ":{"ha":1250,"x_min":125,"x_max":1201,"o":"m 861 583 q 1117 505 1033 583 q 1201 292 1201 426 q 1117 78 1201 156 q 861 0 1033 0 l 597 0 l 597 486 l 264 486 l 264 0 l 125 0 l 125 972 l 264 972 l 264 583 l 597 583 l 597 972 l 736 972 l 736 583 l 861 583 m 736 486 l 736 97 l 861 97 q 1012 147 961 97 q 1063 292 1063 197 q 1012 436 1063 386 q 861 486 961 486 l 736 486 z "},"Ћ":{"ha":903,"x_min":0,"x_max":819,"o":"m 333 0 l 194 0 l 194 875 l 0 875 l 0 972 l 583 972 l 583 875 l 333 875 l 333 604 q 389 614 358 608 q 451 622 415 618 q 528 625 486 625 q 650 605 596 625 q 742 549 704 585 q 799 464 779 514 q 819 354 819 414 l 819 0 l 681 0 l 681 354 q 631 481 681 433 q 493 528 582 528 q 430 524 458 528 q 379 517 401 521 q 333 507 354 511 l 333 0 z "},"Ќ":{"ha":813,"x_min":125,"x_max":778,"o":"m 563 1236 l 438 1028 l 347 1028 l 410 1236 l 563 1236 m 486 507 q 546 482 518 499 q 592 440 569 467 q 625 368 614 413 l 674 146 q 729 83 688 83 q 749 86 738 83 q 757 90 754 88 l 764 90 l 778 0 q 757 -7 769 -4 q 694 -14 733 -14 q 588 24 626 -14 q 535 125 549 63 l 486 347 q 444 423 475 394 q 361 451 414 451 l 264 451 l 264 0 l 125 0 l 125 972 l 264 972 l 264 549 l 347 549 q 438 577 406 549 q 479 653 471 606 l 514 847 q 565 948 525 910 q 674 986 606 986 q 710 984 694 986 q 736 979 725 982 q 757 972 749 975 l 743 882 l 736 882 q 728 885 733 883 q 719 888 724 886 q 708 889 714 889 q 673 874 688 889 q 653 826 658 858 l 618 632 q 590 565 611 590 q 544 528 568 540 q 486 507 518 513 z "},"Ў":{"ha":744,"x_min":14,"x_max":731,"o":"m 376 1111 q 439 1133 418 1111 q 460 1208 460 1156 l 585 1208 q 533 1076 585 1125 q 376 1028 481 1028 q 220 1076 272 1028 q 168 1208 168 1125 l 293 1208 q 314 1133 293 1156 q 376 1111 335 1111 m 363 465 q 374 434 368 451 q 383 400 379 417 l 393 361 l 399 361 q 407 400 401 381 q 416 433 411 415 q 425 465 421 451 l 592 972 l 731 972 l 474 174 q 438 99 461 135 q 384 38 415 64 q 314 -5 353 11 q 231 -21 275 -21 q 169 -15 196 -21 q 124 0 143 -8 q 85 21 101 8 l 119 111 l 133 111 q 157 93 143 100 q 183 81 168 86 q 217 76 197 76 q 290 104 258 76 q 335 174 321 132 l 363 257 l 300 257 l 14 972 l 160 972 l 363 465 z "},"Џ":{"ha":875,"x_min":125,"x_max":750,"o":"m 125 0 l 125 972 l 264 972 l 264 97 l 611 97 l 611 972 l 750 972 l 750 0 l 507 0 l 493 -208 l 382 -208 l 368 0 l 125 0 z "},"А":{"ha":792,"x_min":21,"x_max":771,"o":"m 632 0 l 556 250 l 236 250 l 160 0 l 21 0 l 306 972 l 486 972 l 771 0 l 632 0 m 264 347 l 528 347 l 417 729 q 408 762 411 744 q 403 794 406 779 q 399 826 400 811 l 393 826 q 389 793 392 810 q 383 761 386 778 q 375 729 379 744 l 264 347 z "},"Б":{"ha":792,"x_min":125,"x_max":729,"o":"m 389 583 q 645 505 561 583 q 729 292 729 426 q 645 78 729 156 q 389 0 561 0 l 125 0 l 125 972 l 667 972 l 667 875 l 264 875 l 264 583 l 389 583 m 264 486 l 264 97 l 389 97 q 540 147 489 97 q 590 292 590 197 q 540 436 590 386 q 389 486 489 486 l 264 486 z "},"В":{"ha":799,"x_min":125,"x_max":729,"o":"m 535 514 q 632 469 589 501 q 667 437 650 456 q 699 393 685 418 q 721 336 713 368 q 729 264 729 304 q 709 156 729 204 q 647 72 689 107 q 542 19 606 38 q 389 0 478 0 l 125 0 l 125 972 l 389 972 q 522 953 464 972 q 617 903 579 935 q 675 826 656 871 q 694 729 694 781 q 669 619 694 661 q 614 554 644 578 q 535 514 578 526 m 264 556 l 389 556 q 512 599 468 556 q 556 715 556 642 q 512 832 556 789 q 389 875 468 875 l 264 875 l 264 556 m 264 458 l 264 97 l 389 97 q 542 143 493 97 q 590 278 590 189 q 542 413 590 367 q 389 458 493 458 l 264 458 z "},"Г":{"ha":681,"x_min":125,"x_max":667,"o":"m 125 0 l 125 972 l 667 972 l 667 875 l 264 875 l 264 0 l 125 0 z "},"Д":{"ha":861,"x_min":14,"x_max":806,"o":"m 715 972 l 715 97 l 806 97 l 806 -208 l 694 -208 l 674 0 l 153 0 l 132 -208 l 14 -208 l 14 97 l 83 97 q 118 157 103 121 q 144 234 132 188 q 160 347 156 281 l 194 972 l 715 972 m 576 97 l 576 875 l 326 875 l 299 347 q 283 234 294 281 q 257 157 271 188 q 222 97 242 121 l 576 97 z "},"Е":{"ha":708,"x_min":125,"x_max":667,"o":"m 125 0 l 125 972 l 667 972 l 667 875 l 264 875 l 264 556 l 583 556 l 583 458 l 264 458 l 264 97 l 667 97 l 667 0 l 125 0 z "},"Ж":{"ha":1194,"x_min":35,"x_max":1160,"o":"m 667 549 l 729 549 q 820 577 788 549 q 861 653 853 606 l 896 847 q 947 948 907 910 q 1056 986 988 986 q 1092 984 1076 986 q 1118 979 1107 982 q 1139 972 1131 975 l 1125 882 l 1118 882 q 1110 885 1115 883 q 1101 888 1106 886 q 1090 889 1096 889 q 1055 874 1069 889 q 1035 826 1040 858 l 1000 632 q 970 565 993 590 q 924 528 947 540 q 861 507 896 513 q 924 482 894 499 q 972 440 949 467 q 1007 368 996 413 l 1056 146 q 1111 83 1069 83 q 1131 86 1119 83 q 1139 90 1136 88 l 1146 90 l 1160 0 q 1139 -7 1151 -4 q 1076 -14 1115 -14 q 969 24 1008 -14 q 917 125 931 63 l 868 347 q 826 423 857 394 q 743 451 796 451 l 667 451 l 667 0 l 528 0 l 528 451 l 451 451 q 368 423 399 451 q 326 347 338 394 l 278 125 q 225 24 264 63 q 118 -14 186 -14 q 56 -7 79 -14 q 35 0 43 -4 l 49 90 l 56 90 q 64 86 58 88 q 83 83 75 83 q 139 146 124 83 l 188 368 q 222 440 197 413 q 271 482 246 467 q 333 507 300 499 q 271 528 299 513 q 224 565 247 540 q 194 632 201 590 l 160 826 q 104 889 149 889 q 94 888 99 889 q 85 885 89 886 q 76 882 79 883 l 69 882 l 56 972 q 76 979 64 975 q 103 984 88 982 q 139 986 118 986 q 247 948 207 986 q 299 847 288 910 l 333 653 q 374 577 342 606 q 465 549 407 549 l 528 549 l 528 972 l 667 972 l 667 549 z "},"З":{"ha":722,"x_min":28,"x_max":653,"o":"m 299 889 q 224 878 257 889 q 167 857 190 868 q 118 826 139 843 l 104 826 l 56 910 q 121 947 83 931 q 201 974 153 963 q 313 986 250 986 q 450 967 390 986 q 550 913 510 947 q 611 833 590 879 q 632 736 632 788 q 604 625 632 668 q 544 557 576 582 q 458 514 507 528 q 556 468 513 500 q 591 435 574 454 q 622 391 608 417 q 644 332 636 365 q 653 257 653 299 q 632 147 653 197 q 567 62 611 97 q 457 6 524 26 q 299 -14 390 -14 q 180 -3 231 -14 q 96 24 129 8 q 28 63 56 40 l 76 146 l 90 146 q 140 114 111 128 q 201 93 165 103 q 285 83 238 83 q 460 133 406 83 q 514 271 514 182 q 463 409 514 360 q 313 458 413 458 l 188 458 l 188 556 l 313 556 q 444 602 396 556 q 493 722 493 649 q 443 842 493 796 q 299 889 393 889 z "},"И":{"ha":875,"x_min":125,"x_max":750,"o":"m 264 0 l 125 0 l 125 972 l 264 972 l 264 354 q 263 318 264 339 q 261 279 263 297 q 258 236 260 257 l 264 236 q 276 279 269 257 q 290 318 283 297 q 306 354 297 339 l 611 972 l 750 972 l 750 0 l 611 0 l 611 618 q 612 653 611 633 q 614 693 613 674 q 617 736 615 714 l 611 736 q 599 693 606 714 q 584 653 592 674 q 569 618 576 633 l 264 0 z "},"Й":{"ha":875,"x_min":125,"x_max":750,"o":"m 264 0 l 125 0 l 125 972 l 264 972 l 264 354 q 263 318 264 339 q 261 279 263 297 q 258 236 260 257 l 264 236 q 276 279 269 257 q 290 318 283 297 q 306 354 297 339 l 611 972 l 750 972 l 750 0 l 611 0 l 611 618 q 612 653 611 633 q 614 693 613 674 q 617 736 615 714 l 611 736 q 599 693 606 714 q 584 653 592 674 q 569 618 576 633 l 264 0 m 438 1125 q 500 1147 479 1125 q 521 1222 521 1169 l 646 1222 q 594 1090 646 1139 q 438 1042 542 1042 q 281 1090 333 1042 q 229 1222 229 1139 l 354 1222 q 375 1147 354 1169 q 438 1125 396 1125 z "},"К":{"ha":813,"x_min":125,"x_max":778,"o":"m 479 507 q 542 482 513 499 q 590 440 567 467 q 625 368 614 413 l 674 146 q 729 83 688 83 q 749 86 738 83 q 757 90 754 88 l 764 90 l 778 0 q 757 -7 769 -4 q 694 -14 733 -14 q 588 24 626 -14 q 535 125 549 63 l 486 347 q 444 423 475 394 q 361 451 414 451 l 264 451 l 264 0 l 125 0 l 125 972 l 264 972 l 264 549 l 347 549 q 438 577 406 549 q 479 653 471 606 l 514 847 q 565 948 525 910 q 674 986 606 986 q 710 984 694 986 q 736 979 725 982 q 757 972 749 975 l 743 882 l 736 882 q 728 885 733 883 q 719 888 724 886 q 708 889 714 889 q 673 874 688 889 q 653 826 658 858 l 618 632 q 588 565 611 590 q 542 528 565 540 q 479 507 514 513 z "},"Л":{"ha":847,"x_min":14,"x_max":722,"o":"m 63 83 q 112 114 89 83 q 139 222 135 144 l 181 972 l 722 972 l 722 0 l 583 0 l 583 875 l 313 875 l 278 222 q 220 44 271 101 q 90 -14 169 -14 q 36 -7 60 -14 q 14 0 24 -4 l 21 90 l 35 90 q 43 86 38 88 q 63 83 54 83 z "},"М":{"ha":1167,"x_min":125,"x_max":1042,"o":"m 556 382 q 566 362 561 374 q 574 339 571 350 q 581 313 578 325 l 586 313 q 593 339 589 325 q 601 362 596 350 q 611 382 606 374 l 903 972 l 1042 972 l 1042 0 l 903 0 l 903 583 q 903 619 903 599 q 906 658 904 639 q 908 701 907 679 l 903 701 q 890 658 897 679 q 876 619 883 639 q 861 583 868 599 l 653 174 l 514 174 l 306 583 q 290 619 297 599 q 276 658 283 639 q 264 701 269 679 l 258 701 q 261 658 260 679 q 263 619 263 639 q 264 583 264 599 l 264 0 l 125 0 l 125 972 l 264 972 l 556 382 z "},"Н":{"ha":875,"x_min":125,"x_max":750,"o":"m 750 972 l 750 0 l 611 0 l 611 444 l 264 444 l 264 0 l 125 0 l 125 972 l 264 972 l 264 542 l 611 542 l 611 972 l 750 972 z "},"О":{"ha":833,"x_min":76,"x_max":757,"o":"m 215 486 q 232 294 215 371 q 277 170 249 217 q 342 103 306 124 q 417 83 378 83 q 492 103 456 83 q 556 170 528 124 q 601 294 585 217 q 618 486 618 371 q 601 678 618 600 q 556 802 585 756 q 492 869 528 849 q 417 889 456 889 q 342 869 378 889 q 277 802 306 849 q 232 678 249 756 q 215 486 215 600 m 757 486 q 732 256 757 350 q 663 101 707 161 q 555 13 618 40 q 417 -14 492 -14 q 278 13 342 -14 q 171 101 215 40 q 101 256 126 161 q 76 486 76 350 q 101 716 76 621 q 171 872 126 811 q 278 959 215 932 q 417 986 342 986 q 555 959 492 986 q 663 872 618 932 q 732 716 707 811 q 757 486 757 621 z "},"П":{"ha":875,"x_min":125,"x_max":750,"o":"m 750 972 l 750 0 l 611 0 l 611 875 l 264 875 l 264 0 l 125 0 l 125 972 l 750 972 z "},"Р":{"ha":785,"x_min":125,"x_max":722,"o":"m 375 431 q 531 484 479 431 q 583 653 583 538 q 531 822 583 768 q 375 875 479 875 l 264 875 l 264 431 l 375 431 m 264 333 l 264 0 l 125 0 l 125 972 l 375 972 q 638 891 553 972 q 722 653 722 810 q 638 415 722 496 q 375 333 553 333 l 264 333 z "},"С":{"ha":715,"x_min":76,"x_max":681,"o":"m 76 486 q 101 716 76 621 q 172 872 126 811 q 282 959 218 932 q 424 986 346 986 q 526 974 482 986 q 603 947 571 963 q 667 910 639 931 l 618 826 l 604 826 q 557 857 582 843 q 504 878 535 868 q 438 889 474 889 q 350 869 390 889 q 280 802 310 849 q 233 678 250 756 q 215 486 215 600 q 233 294 215 371 q 281 170 250 217 q 356 103 313 124 q 451 83 399 83 q 518 93 488 83 q 571 114 549 103 q 618 146 596 128 l 632 146 l 681 63 q 617 24 653 40 q 540 -3 585 8 q 438 -14 496 -14 q 288 13 354 -14 q 174 101 221 40 q 101 256 126 161 q 76 486 76 350 z "},"Т":{"ha":667,"x_min":14,"x_max":653,"o":"m 264 0 l 264 875 l 14 875 l 14 972 l 653 972 l 653 875 l 403 875 l 403 0 l 264 0 z "},"У":{"ha":744,"x_min":14,"x_max":731,"o":"m 363 465 q 374 434 368 451 q 383 400 379 417 l 393 361 l 399 361 q 407 400 401 381 q 416 433 411 415 q 425 465 421 451 l 592 972 l 731 972 l 474 174 q 438 99 461 135 q 384 38 415 64 q 314 -5 353 11 q 231 -21 275 -21 q 169 -15 196 -21 q 124 0 143 -8 q 85 21 101 8 l 119 111 l 133 111 q 157 93 143 100 q 183 81 168 86 q 217 76 197 76 q 290 104 258 76 q 335 174 321 132 l 363 257 l 300 257 l 14 972 l 160 972 l 363 465 z "},"Ф":{"ha":1069,"x_min":63,"x_max":1007,"o":"m 604 153 q 796 244 724 163 q 868 486 868 325 q 849 627 868 567 q 796 728 831 688 q 713 792 761 769 q 604 819 664 814 l 604 153 m 465 1014 l 604 1014 l 604 917 q 903 798 799 906 q 1007 486 1007 690 q 903 174 1007 282 q 604 56 799 67 l 604 -42 l 465 -42 l 465 56 q 167 174 271 67 q 63 486 63 282 q 167 798 63 690 q 465 917 271 906 l 465 1014 m 465 819 q 357 792 406 814 q 274 728 308 769 q 220 627 239 688 q 201 486 201 567 q 274 244 201 325 q 465 153 346 163 l 465 819 z "},"Х":{"ha":736,"x_min":21,"x_max":715,"o":"m 340 660 q 349 640 344 650 q 357 619 354 629 q 365 597 361 608 l 371 597 q 379 619 375 608 q 386 640 382 629 q 396 660 390 650 l 556 972 l 708 972 l 458 493 l 715 0 l 563 0 l 396 326 q 386 346 390 335 q 379 367 382 357 q 371 389 375 378 l 365 389 q 357 367 361 378 q 340 326 350 346 l 174 0 l 21 0 l 278 493 l 28 972 l 181 972 l 340 660 z "},"Ц":{"ha":882,"x_min":125,"x_max":826,"o":"m 125 0 l 125 972 l 264 972 l 264 97 l 597 97 l 597 972 l 736 972 l 736 97 l 826 97 l 826 -208 l 715 -208 l 694 0 l 125 0 z "},"Ч":{"ha":833,"x_min":83,"x_max":708,"o":"m 569 972 l 708 972 l 708 0 l 569 0 l 569 382 q 514 371 544 376 q 452 364 488 367 q 375 361 417 361 q 253 381 307 361 q 161 437 199 401 q 103 522 124 472 q 83 632 83 572 l 83 972 l 222 972 l 222 632 q 272 506 222 553 q 410 458 321 458 q 472 461 443 458 q 524 468 501 464 q 569 479 549 474 l 569 972 z "},"Ш":{"ha":1278,"x_min":125,"x_max":1153,"o":"m 1153 0 l 125 0 l 125 972 l 264 972 l 264 97 l 569 97 l 569 972 l 708 972 l 708 97 l 1014 97 l 1014 972 l 1153 972 l 1153 0 z "},"Щ":{"ha":1299,"x_min":125,"x_max":1243,"o":"m 125 0 l 125 972 l 264 972 l 264 97 l 569 97 l 569 972 l 708 972 l 708 97 l 1014 97 l 1014 972 l 1153 972 l 1153 97 l 1243 97 l 1243 -208 l 1132 -208 l 1111 0 l 125 0 z "},"Ъ":{"ha":861,"x_min":14,"x_max":813,"o":"m 14 972 l 347 972 l 347 611 l 472 611 q 729 532 646 611 q 813 306 813 453 q 729 79 813 158 q 472 0 646 0 l 208 0 l 208 875 l 14 875 l 14 972 m 347 514 l 347 97 l 472 97 q 674 306 674 97 q 472 514 674 514 l 347 514 z "},"Ы":{"ha":1111,"x_min":125,"x_max":986,"o":"m 847 972 l 986 972 l 986 0 l 847 0 l 847 972 m 375 611 q 632 532 549 611 q 715 306 715 453 q 632 79 715 158 q 375 0 549 0 l 125 0 l 125 972 l 264 972 l 264 611 l 375 611 m 264 514 l 264 97 l 375 97 q 576 306 576 97 q 375 514 576 514 l 264 514 z "},"Ь":{"ha":778,"x_min":125,"x_max":729,"o":"m 389 611 q 646 532 563 611 q 729 306 729 453 q 646 79 729 158 q 389 0 563 0 l 125 0 l 125 972 l 264 972 l 264 611 l 389 611 m 264 514 l 264 97 l 389 97 q 590 306 590 97 q 389 514 590 514 l 264 514 z "},"Э":{"ha":715,"x_min":35,"x_max":639,"o":"m 639 486 q 614 256 639 350 q 542 101 589 161 q 428 13 494 40 q 278 -14 361 -14 q 175 -3 219 -14 q 99 24 131 8 q 35 63 63 40 l 83 146 l 97 146 q 144 114 119 128 q 197 93 167 103 q 264 83 228 83 q 356 101 314 83 q 428 162 397 119 q 478 274 460 204 q 500 444 497 343 l 174 444 l 174 542 l 499 542 q 476 707 494 640 q 428 814 457 774 q 360 872 399 854 q 278 889 322 889 q 211 878 242 889 q 158 857 181 868 q 111 826 133 843 l 97 826 l 49 910 q 113 947 76 931 q 189 974 144 963 q 292 986 233 986 q 433 959 369 986 q 543 872 497 932 q 614 716 589 811 q 639 486 639 621 z "},"Ю":{"ha":1125,"x_min":125,"x_max":1049,"o":"m 722 986 q 853 959 793 986 q 956 872 913 932 q 1024 716 1000 811 q 1049 486 1049 621 q 1024 256 1049 350 q 956 101 1000 161 q 853 13 913 40 q 722 -14 793 -14 q 597 11 654 -14 q 497 90 539 36 q 428 232 454 144 q 396 444 401 319 l 264 444 l 264 0 l 125 0 l 125 972 l 264 972 l 264 542 l 396 542 q 428 746 401 661 q 497 884 454 831 q 597 962 539 938 q 722 986 654 986 m 722 83 q 790 103 756 83 q 850 170 824 124 q 893 294 876 217 q 910 486 910 371 q 893 678 910 600 q 850 802 876 756 q 790 869 824 849 q 722 889 756 889 q 655 869 689 889 q 594 802 621 849 q 551 678 568 756 q 535 486 535 600 q 551 294 535 371 q 594 170 568 217 q 655 103 621 124 q 722 83 689 83 z "},"Я":{"ha":792,"x_min":28,"x_max":667,"o":"m 438 375 q 358 347 390 375 q 313 271 326 318 l 271 125 q 213 22 251 57 q 111 -14 174 -14 q 49 -7 72 -14 q 28 0 36 -4 l 42 90 l 49 90 q 57 86 51 88 q 76 83 68 83 q 108 99 92 83 q 132 146 124 114 l 174 292 q 202 351 185 328 q 239 388 219 374 q 285 410 260 403 q 208 437 246 415 q 142 492 171 458 q 94 573 113 526 q 76 674 76 619 q 161 894 76 815 q 424 972 246 972 l 667 972 l 667 0 l 528 0 l 528 375 l 438 375 m 528 472 l 528 875 l 424 875 q 215 674 215 875 q 424 472 215 472 l 528 472 z "},"а":{"ha":708,"x_min":63,"x_max":611,"o":"m 472 444 q 433 569 472 528 q 326 611 394 611 q 267 601 294 611 q 218 579 239 590 q 174 549 193 565 l 160 549 l 111 632 q 174 669 138 653 q 246 697 204 685 q 340 708 288 708 q 450 689 400 708 q 535 634 500 669 q 591 550 571 599 q 611 444 611 501 l 611 0 l 514 0 l 500 83 l 493 83 q 444 35 474 56 q 382 1 419 15 q 292 -14 344 -14 q 122 44 182 -14 q 63 201 63 101 q 79 287 63 249 q 131 352 96 325 q 224 394 167 379 q 361 410 281 410 l 472 410 l 472 444 m 472 313 l 361 313 q 240 281 278 313 q 201 201 201 249 q 233 119 201 149 q 326 90 264 90 q 385 103 358 90 q 431 132 411 117 q 472 174 454 150 l 472 313 z "},"б":{"ha":729,"x_min":76,"x_max":660,"o":"m 458 840 q 342 806 390 828 q 262 749 293 785 q 216 663 231 714 q 201 542 201 613 q 284 624 233 594 q 403 653 335 653 q 501 631 454 653 q 583 567 549 610 q 639 463 618 525 q 660 319 660 400 q 639 176 660 239 q 579 72 618 114 q 487 8 540 29 q 368 -14 433 -14 q 249 8 303 -14 q 157 72 196 29 q 97 176 118 114 q 76 319 76 239 l 76 451 q 98 674 76 585 q 163 822 119 764 q 275 910 207 879 q 438 958 343 942 l 632 993 l 653 875 l 458 840 m 368 549 q 260 494 306 549 q 215 319 215 439 q 260 139 215 194 q 368 83 306 83 q 476 139 431 83 q 521 319 521 194 q 476 494 521 439 q 368 549 431 549 z "},"в":{"ha":708,"x_min":104,"x_max":646,"o":"m 486 361 q 565 332 529 353 q 621 279 596 313 q 646 188 646 246 q 630 115 646 149 q 580 55 614 81 q 493 15 546 29 q 368 0 440 0 l 104 0 l 104 694 l 368 694 q 477 680 431 694 q 555 640 524 665 q 602 583 586 615 q 618 514 618 550 q 597 437 618 467 q 551 390 576 407 q 486 361 522 371 m 243 597 l 243 403 l 368 403 q 450 431 421 403 q 479 500 479 458 q 450 569 479 542 q 368 597 421 597 l 243 597 m 243 306 l 243 97 l 368 97 q 474 126 442 97 q 507 201 507 154 q 474 277 507 249 q 368 306 442 306 l 243 306 z "},"г":{"ha":576,"x_min":104,"x_max":563,"o":"m 563 597 l 243 597 l 243 0 l 104 0 l 104 694 l 563 694 l 563 597 z "},"д":{"ha":778,"x_min":7,"x_max":729,"o":"m 639 694 l 639 97 l 729 97 l 729 -194 l 618 -194 l 597 0 l 146 0 l 125 -194 l 7 -194 l 7 97 l 76 97 q 113 151 97 119 q 138 217 126 179 q 153 306 150 256 l 174 694 l 639 694 m 500 97 l 500 597 l 306 597 l 292 306 q 277 217 289 256 q 251 151 265 179 q 215 97 236 119 l 500 97 z "},"е":{"ha":701,"x_min":69,"x_max":639,"o":"m 354 708 q 469 686 417 708 q 559 619 521 664 q 618 506 597 574 q 639 347 639 439 l 639 326 l 611 299 l 208 299 q 257 136 208 189 q 389 83 306 83 q 448 93 421 83 q 496 114 475 103 q 542 146 521 128 l 556 146 l 604 63 q 542 24 578 40 q 469 -3 511 8 q 375 -14 428 -14 q 152 76 235 -14 q 69 347 69 165 q 90 506 69 439 q 149 619 111 574 q 240 686 188 664 q 354 708 292 708 m 354 611 q 250 561 292 611 q 208 396 208 511 l 500 396 q 458 561 500 511 q 354 611 417 611 z "},"ж":{"ha":1028,"x_min":35,"x_max":993,"o":"m 854 451 q 831 405 847 422 q 796 378 814 388 q 763 365 778 368 q 743 361 747 361 q 763 356 746 361 q 800 340 779 351 q 840 309 821 329 q 868 257 860 289 l 903 125 q 944 83 913 83 q 964 86 953 83 q 972 90 969 88 l 979 90 l 993 0 q 969 -7 983 -4 q 910 -14 944 -14 q 819 17 851 -14 q 771 104 786 47 l 736 236 q 705 287 728 268 q 646 306 682 306 l 583 306 l 583 0 l 444 0 l 444 306 l 382 306 q 323 287 346 306 q 292 236 300 268 l 257 104 q 209 17 242 47 q 118 -14 176 -14 q 58 -7 83 -14 q 35 0 44 -4 l 49 90 l 56 90 q 64 86 58 88 q 83 83 75 83 q 125 125 114 83 l 160 257 q 187 308 168 288 q 226 339 206 328 q 263 355 246 350 q 285 361 281 360 q 267 364 282 361 q 233 376 251 367 q 197 404 214 386 q 174 451 181 422 l 146 569 q 104 611 135 611 q 94 610 99 611 q 85 607 89 608 q 76 604 79 606 l 69 604 l 56 694 q 79 701 65 697 q 105 706 90 704 q 139 708 119 708 q 231 678 199 708 q 278 590 264 649 l 306 472 q 334 422 313 440 q 396 403 356 403 l 444 403 l 444 694 l 583 694 l 583 403 l 632 403 q 694 422 672 403 q 722 472 715 440 l 750 590 q 797 678 764 649 q 889 708 829 708 q 922 706 907 708 q 949 701 938 704 q 972 694 963 697 l 958 604 l 951 604 q 943 607 949 606 q 934 610 939 608 q 924 611 929 611 q 882 569 892 611 l 854 451 l 854 451 z "},"з":{"ha":625,"x_min":21,"x_max":563,"o":"m 278 708 q 399 694 349 708 q 483 653 450 679 q 533 594 517 628 q 549 521 549 560 q 526 443 549 474 q 475 394 503 413 q 403 361 443 372 q 482 331 446 353 q 538 276 513 311 q 563 181 563 240 q 547 103 563 139 q 496 42 531 68 q 407 1 461 15 q 278 -14 353 -14 q 167 -3 215 -14 q 86 24 118 8 q 21 63 49 40 l 69 146 l 83 146 q 132 114 104 128 q 189 93 156 103 q 264 83 222 83 q 388 113 353 83 q 424 194 424 142 q 391 276 424 247 q 285 306 358 306 l 167 306 l 167 403 l 285 403 q 378 431 347 403 q 410 507 410 460 q 376 583 410 554 q 264 611 343 611 q 198 601 228 611 q 147 579 168 590 q 104 549 122 565 l 90 549 l 42 632 q 103 669 67 653 q 176 697 133 685 q 278 708 219 708 z "},"и":{"ha":764,"x_min":104,"x_max":660,"o":"m 243 0 l 104 0 l 104 694 l 243 694 l 243 299 q 242 267 243 283 q 240 235 242 250 q 238 201 239 218 l 243 201 q 254 235 249 218 q 285 299 265 267 l 521 694 l 660 694 l 660 0 l 521 0 l 521 396 q 522 428 521 411 q 524 460 522 444 q 526 493 525 476 l 521 493 q 510 460 515 476 q 479 396 499 428 l 243 0 z "},"й":{"ha":764,"x_min":104,"x_max":660,"o":"m 243 0 l 104 0 l 104 694 l 243 694 l 243 299 q 242 267 243 283 q 240 235 242 250 q 238 201 239 218 l 243 201 q 254 235 249 218 q 285 299 265 267 l 521 694 l 660 694 l 660 0 l 521 0 l 521 396 q 522 428 521 411 q 524 460 522 444 q 526 493 525 476 l 521 493 q 510 460 515 476 q 479 396 499 428 l 243 0 m 382 847 q 444 869 424 847 q 465 944 465 892 l 590 944 q 538 813 590 861 q 382 764 486 764 q 226 813 278 764 q 174 944 174 861 l 299 944 q 319 869 299 892 q 382 847 340 847 z "},"к":{"ha":708,"x_min":104,"x_max":674,"o":"m 424 361 q 478 343 453 357 q 519 311 499 332 q 549 257 539 290 l 583 125 q 625 83 593 83 q 644 86 633 83 q 653 90 650 88 l 660 90 l 674 0 q 650 -7 664 -4 q 590 -14 625 -14 q 499 17 532 -14 q 451 104 467 47 l 417 236 q 385 287 408 268 q 326 306 363 306 l 243 306 l 243 0 l 104 0 l 104 694 l 243 694 l 243 403 l 313 403 q 374 422 353 403 q 403 472 396 440 l 431 590 q 477 678 444 649 q 569 708 510 708 q 603 706 588 708 q 629 701 618 704 q 653 694 643 697 l 639 604 l 632 604 q 624 607 629 606 q 615 610 619 608 q 604 611 610 611 q 563 569 572 611 l 535 451 q 510 402 528 419 q 472 375 492 385 q 424 361 450 364 z "},"л":{"ha":750,"x_min":14,"x_max":646,"o":"m 63 83 q 108 111 89 83 q 132 222 126 139 l 160 694 l 646 694 l 646 0 l 507 0 l 507 597 l 292 597 l 271 222 q 216 42 264 97 q 90 -14 168 -14 q 36 -7 60 -14 q 14 0 24 -4 l 21 90 l 35 90 q 43 86 38 88 q 63 83 54 83 z "},"м":{"ha":972,"x_min":104,"x_max":868,"o":"m 417 118 l 285 368 q 256 433 267 401 q 243 465 249 450 l 238 465 q 240 432 239 449 q 242 400 242 417 q 243 368 243 383 l 243 0 l 104 0 l 104 694 l 250 694 l 458 306 q 476 269 469 288 q 483 250 481 260 l 489 250 q 496 269 492 260 q 514 306 503 288 l 722 694 l 868 694 l 868 0 l 729 0 l 729 368 q 730 400 729 383 q 732 432 731 417 q 735 465 733 449 l 729 465 q 717 433 722 450 q 703 401 710 418 q 688 368 696 383 l 556 118 l 417 118 z "},"н":{"ha":764,"x_min":104,"x_max":660,"o":"m 660 0 l 521 0 l 521 306 l 243 306 l 243 0 l 104 0 l 104 694 l 243 694 l 243 403 l 521 403 l 521 694 l 660 694 l 660 0 z "},"о":{"ha":736,"x_min":69,"x_max":667,"o":"m 667 347 q 645 188 667 256 q 585 76 624 121 q 491 8 546 31 q 368 -14 436 -14 q 151 76 232 -14 q 69 347 69 165 q 151 619 69 529 q 368 708 232 708 q 491 686 436 708 q 585 619 546 664 q 645 506 624 574 q 667 347 667 439 m 528 347 q 515 470 528 419 q 481 552 503 521 q 431 597 460 583 q 368 611 401 611 q 306 597 335 611 q 255 552 276 583 q 221 470 233 521 q 208 347 208 419 q 221 224 208 274 q 255 142 233 174 q 306 97 276 111 q 368 83 335 83 q 431 97 401 83 q 481 142 460 111 q 515 224 503 174 q 528 347 528 274 z "},"п":{"ha":764,"x_min":104,"x_max":660,"o":"m 660 0 l 521 0 l 521 597 l 243 597 l 243 0 l 104 0 l 104 694 l 660 694 l 660 0 z "},"р":{"ha":743,"x_min":104,"x_max":674,"o":"m 243 111 q 281 97 260 103 q 322 88 299 92 q 375 83 346 83 q 438 97 408 83 q 488 142 467 111 q 522 224 510 174 q 535 347 535 274 q 523 467 535 418 q 491 546 511 515 q 444 590 471 576 q 389 604 418 604 q 331 591 357 604 q 285 563 304 578 q 243 521 261 544 l 243 111 m 201 -278 l 104 -278 l 104 694 l 201 694 l 215 611 l 222 611 q 271 660 242 638 q 333 693 296 678 q 424 708 371 708 q 519 686 474 708 q 598 619 564 664 q 653 506 632 574 q 674 347 674 439 q 653 188 674 256 q 594 76 632 121 q 506 8 557 31 q 396 -14 456 -14 q 336 -8 364 -14 q 288 7 308 -1 q 243 28 263 15 l 243 -236 l 201 -278 z "},"с":{"ha":632,"x_min":69,"x_max":604,"o":"m 375 611 q 308 597 339 611 q 256 552 278 583 q 221 470 233 521 q 208 347 208 419 q 257 142 208 201 q 389 83 306 83 q 448 93 421 83 q 496 114 475 103 q 542 146 521 128 l 556 146 l 604 63 q 542 24 578 40 q 469 -3 511 8 q 375 -14 428 -14 q 152 76 235 -14 q 69 347 69 165 q 90 506 69 439 q 150 619 111 574 q 242 686 189 664 q 361 708 296 708 q 456 697 414 708 q 528 669 497 685 q 590 632 564 653 l 542 549 l 528 549 q 482 579 507 565 q 434 601 461 590 q 375 611 407 611 z "},"т":{"ha":583,"x_min":14,"x_max":569,"o":"m 569 597 l 361 597 l 361 0 l 222 0 l 222 597 l 14 597 l 14 694 l 569 694 l 569 597 z "},"у":{"ha":660,"x_min":21,"x_max":639,"o":"m 174 -194 q 238 -167 210 -194 q 278 -97 267 -139 l 306 0 l 250 0 l 21 694 l 160 694 l 313 236 q 323 201 318 221 q 332 165 328 182 q 342 125 338 146 l 347 125 q 356 165 350 146 q 365 201 360 182 q 374 236 369 221 l 500 694 l 639 694 l 417 -97 q 335 -236 393 -181 q 188 -292 276 -292 q 130 -285 156 -292 q 86 -271 104 -279 q 49 -250 64 -262 l 83 -160 l 97 -160 q 119 -178 107 -171 q 144 -190 131 -185 q 174 -194 158 -194 z "},"ф":{"ha":944,"x_min":63,"x_max":882,"o":"m 542 83 q 690 150 636 89 q 743 347 743 211 q 690 544 743 483 q 542 611 636 606 l 542 83 m 403 931 l 444 972 l 542 972 l 542 708 q 793 612 704 703 q 882 347 882 521 q 793 83 882 174 q 542 -14 704 -8 l 542 -278 l 403 -278 l 403 -14 q 151 83 240 -8 q 63 347 63 174 q 151 612 63 521 q 403 708 240 703 l 403 931 m 403 611 q 255 544 308 606 q 201 347 201 483 q 255 150 201 211 q 403 83 308 89 l 403 611 z "},"х":{"ha":639,"x_min":21,"x_max":618,"o":"m 317 257 q 310 238 314 247 q 292 201 303 219 l 174 0 l 21 0 l 236 354 l 28 694 l 181 694 l 292 500 q 301 482 296 492 q 308 464 306 472 q 317 444 313 454 l 322 444 q 331 464 326 454 q 338 482 333 472 q 347 500 342 492 l 458 694 l 611 694 l 403 354 l 618 0 l 465 0 l 347 201 q 329 238 336 219 q 322 257 325 247 l 317 257 z "},"ц":{"ha":785,"x_min":104,"x_max":736,"o":"m 104 0 l 104 694 l 243 694 l 243 97 l 507 97 l 507 694 l 646 694 l 646 97 l 736 97 l 736 -194 l 625 -194 l 604 0 l 104 0 z "},"ч":{"ha":722,"x_min":76,"x_max":618,"o":"m 319 236 q 220 253 265 236 q 143 301 175 271 q 94 374 111 332 q 76 465 76 415 l 76 694 l 215 694 l 215 465 q 253 370 215 407 q 354 333 292 333 q 403 336 381 333 q 443 343 426 339 q 479 354 463 349 l 479 694 l 618 694 l 618 0 l 479 0 l 479 257 q 433 246 458 251 q 382 239 411 242 q 319 236 353 236 z "},"ш":{"ha":1097,"x_min":104,"x_max":993,"o":"m 993 0 l 104 0 l 104 694 l 243 694 l 243 97 l 479 97 l 479 694 l 618 694 l 618 97 l 854 97 l 854 694 l 993 694 l 993 0 z "},"щ":{"ha":1132,"x_min":104,"x_max":1083,"o":"m 104 0 l 104 694 l 243 694 l 243 97 l 479 97 l 479 694 l 618 694 l 618 97 l 854 97 l 854 694 l 993 694 l 993 97 l 1083 97 l 1083 -194 l 972 -194 l 951 0 l 104 0 z "},"ъ":{"ha":771,"x_min":14,"x_max":736,"o":"m 458 458 q 670 399 604 458 q 736 229 736 339 q 670 60 736 119 q 458 0 604 0 l 194 0 l 194 597 l 14 597 l 14 694 l 333 694 l 333 458 l 458 458 m 333 361 l 333 97 l 458 97 q 565 129 532 97 q 597 229 597 161 q 565 329 597 297 q 458 361 532 361 l 333 361 z "},"ы":{"ha":986,"x_min":104,"x_max":882,"o":"m 882 0 l 743 0 l 743 694 l 882 694 l 882 0 m 354 458 q 566 399 500 458 q 632 229 632 339 q 566 60 632 119 q 354 0 500 0 l 104 0 l 104 694 l 243 694 l 243 458 l 354 458 m 243 361 l 243 97 l 354 97 q 460 129 428 97 q 493 229 493 161 q 460 329 493 297 q 354 361 428 361 l 243 361 z "},"ь":{"ha":681,"x_min":104,"x_max":646,"o":"m 368 458 q 580 399 514 458 q 646 229 646 339 q 580 60 646 119 q 368 0 514 0 l 104 0 l 104 694 l 243 694 l 243 458 l 368 458 m 243 361 l 243 97 l 368 97 q 474 129 442 97 q 507 229 507 161 q 474 329 507 297 q 368 361 442 361 l 243 361 z "},"э":{"ha":632,"x_min":28,"x_max":563,"o":"m 257 611 q 197 601 225 611 q 149 579 169 590 q 104 549 124 565 l 90 549 l 42 632 q 104 669 68 653 q 176 697 135 685 q 271 708 218 708 q 390 686 336 708 q 482 619 443 664 q 542 506 521 574 q 563 347 563 439 q 480 76 563 165 q 257 -14 397 -14 q 163 -3 204 -14 q 90 24 121 8 q 28 63 54 40 l 76 146 l 90 146 q 135 114 110 128 q 183 93 156 103 q 243 83 211 83 q 368 135 319 83 q 422 306 417 186 l 172 306 l 172 403 l 422 403 q 367 565 411 518 q 257 611 324 611 z "},"ю":{"ha":993,"x_min":104,"x_max":924,"o":"m 924 347 q 903 188 924 256 q 844 76 882 121 q 753 8 806 31 q 639 -14 701 -14 q 442 65 518 -14 q 354 306 365 143 l 243 306 l 243 0 l 104 0 l 104 694 l 243 694 l 243 403 l 354 403 q 383 538 360 481 q 444 633 407 596 q 532 690 482 671 q 639 708 582 708 q 753 686 701 708 q 844 619 806 664 q 903 506 882 574 q 924 347 924 439 m 785 347 q 773 470 785 419 q 741 552 761 521 q 694 597 721 583 q 639 611 668 611 q 583 597 610 611 q 537 552 557 583 q 505 470 517 521 q 493 347 493 419 q 505 224 493 274 q 537 142 517 174 q 583 97 557 111 q 639 83 610 83 q 694 97 668 83 q 741 142 721 111 q 773 224 761 174 q 785 347 785 274 z "},"я":{"ha":708,"x_min":35,"x_max":604,"o":"m 368 264 q 315 245 336 264 q 285 194 294 226 l 257 104 q 208 16 239 46 q 118 -14 176 -14 q 58 -7 83 -14 q 35 0 44 -4 l 49 90 l 56 90 q 64 86 58 88 q 83 83 75 83 q 125 125 113 83 l 153 215 q 174 255 160 239 q 201 281 188 271 q 236 299 217 292 q 153 329 189 307 q 95 383 121 349 q 69 479 69 418 q 135 636 69 578 q 347 694 201 694 l 604 694 l 604 0 l 465 0 l 465 264 l 368 264 m 465 361 l 465 597 l 347 597 q 241 567 274 597 q 208 479 208 538 q 241 391 208 421 q 347 361 274 361 l 465 361 z "},"ё":{"ha":701,"x_min":69,"x_max":639,"o":"m 354 708 q 469 686 417 708 q 559 619 521 664 q 618 506 597 574 q 639 347 639 439 l 639 326 l 611 299 l 208 299 q 257 136 208 189 q 389 83 306 83 q 448 93 421 83 q 496 114 475 103 q 542 146 521 128 l 556 146 l 604 63 q 542 24 578 40 q 469 -3 511 8 q 375 -14 428 -14 q 152 76 235 -14 q 69 347 69 165 q 90 506 69 439 q 149 619 111 574 q 240 686 188 664 q 354 708 292 708 m 354 611 q 250 561 292 611 q 208 396 208 511 l 500 396 q 458 561 500 511 q 354 611 417 611 m 314 861 q 292 806 314 828 q 238 785 271 785 q 183 806 204 785 q 161 861 161 828 q 183 916 161 894 q 238 938 204 938 q 292 916 271 938 q 314 861 314 894 m 556 861 q 534 806 556 828 q 479 785 513 785 q 424 806 446 785 q 403 861 403 828 q 424 916 403 894 q 479 938 446 938 q 534 916 513 938 q 556 861 556 894 z "},"ђ":{"ha":771,"x_min":35,"x_max":681,"o":"m 438 -97 q 513 -66 485 -97 q 542 28 542 -35 l 542 389 q 505 484 542 447 q 410 521 468 521 q 351 508 378 521 q 306 479 325 494 q 264 438 282 461 l 264 0 l 125 0 l 125 722 l 35 722 l 35 819 l 125 819 l 125 931 l 167 972 l 264 972 l 264 819 l 451 819 l 451 722 l 264 722 l 264 556 q 310 590 283 575 q 367 614 333 603 q 444 625 400 625 q 540 608 496 625 q 615 559 583 590 q 663 484 646 528 q 681 389 681 440 l 681 28 q 665 -63 681 -22 q 620 -133 649 -104 q 552 -178 592 -162 q 465 -194 513 -194 q 422 -192 442 -194 q 386 -185 401 -189 q 354 -174 369 -179 l 368 -83 l 382 -83 q 399 -90 389 -87 q 438 -97 415 -97 z "},"ѓ":{"ha":576,"x_min":104,"x_max":563,"o":"m 563 597 l 243 597 l 243 0 l 104 0 l 104 694 l 563 694 l 563 597 m 486 972 l 361 764 l 271 764 l 333 972 l 486 972 z "},"є":{"ha":632,"x_min":69,"x_max":604,"o":"m 375 611 q 265 565 308 611 q 210 403 221 518 l 460 403 l 460 306 l 210 306 q 263 135 215 186 q 389 83 311 83 q 448 93 421 83 q 496 114 475 103 q 542 146 521 128 l 556 146 l 604 63 q 542 24 578 40 q 469 -3 511 8 q 375 -14 428 -14 q 152 76 235 -14 q 69 347 69 165 q 90 506 69 439 q 150 619 111 574 q 242 686 189 664 q 361 708 296 708 q 456 697 414 708 q 528 669 497 685 q 590 632 564 653 l 542 549 l 528 549 q 482 579 507 565 q 434 601 461 590 q 375 611 407 611 z "},"ѕ":{"ha":639,"x_min":49,"x_max":590,"o":"m 306 -14 q 194 -3 243 -14 q 114 24 146 8 q 49 63 76 40 l 97 146 l 111 146 q 160 114 132 128 q 217 93 183 103 q 292 83 250 83 q 416 111 381 83 q 451 181 451 139 q 423 241 451 218 q 351 281 394 264 q 257 313 307 297 q 163 351 207 328 q 91 411 119 375 q 63 507 63 447 q 126 652 63 596 q 326 708 190 708 q 429 697 385 708 q 506 669 474 685 q 569 632 542 653 l 521 549 l 507 549 q 460 579 485 565 q 407 601 438 590 q 340 611 376 611 q 234 584 267 611 q 201 521 201 557 q 230 460 201 483 q 302 421 258 438 q 396 389 346 404 q 490 350 446 374 q 562 290 533 326 q 590 194 590 253 q 574 109 590 147 q 524 44 558 71 q 435 1 489 17 q 306 -14 381 -14 z "},"і":{"ha":347,"x_min":90,"x_max":257,"o":"m 243 694 l 243 0 l 104 0 l 104 694 l 243 694 m 257 889 q 233 829 257 853 q 174 806 210 806 q 114 829 138 806 q 90 889 90 853 q 114 949 90 925 q 174 972 138 972 q 233 949 210 972 q 257 889 257 925 z "},"ї":{"ha":347,"x_min":-35,"x_max":382,"o":"m 243 694 l 243 0 l 104 0 l 104 694 l 243 694 m 132 889 q 108 829 132 853 q 49 806 85 806 q -11 829 13 806 q -35 889 -35 853 q -11 949 -35 925 q 49 972 13 972 q 108 949 85 972 q 132 889 132 925 m 382 889 q 358 829 382 853 q 299 806 335 806 q 239 829 263 806 q 215 889 215 853 q 239 949 215 925 q 299 972 263 972 q 358 949 335 972 q 382 889 382 925 z "},"ј":{"ha":347,"x_min":-125,"x_max":257,"o":"m 257 889 q 233 829 257 853 q 174 806 210 806 q 114 829 138 806 q 90 889 90 853 q 114 949 90 925 q 174 972 138 972 q 233 949 210 972 q 257 889 257 925 m 0 -181 q 76 -149 47 -181 q 104 -56 104 -118 l 104 694 l 243 694 l 243 -56 q 227 -147 243 -106 q 181 -217 211 -187 q 108 -262 150 -246 q 14 -278 65 -278 q -44 -272 -18 -278 q -87 -257 -69 -265 q -125 -236 -110 -249 l -90 -146 l -76 -146 q -54 -164 -67 -157 q -29 -176 -43 -171 q 0 -181 -15 -181 z "},"љ":{"ha":1056,"x_min":14,"x_max":1021,"o":"m 743 458 q 955 399 889 458 q 1021 229 1021 339 q 955 60 1021 119 q 743 0 889 0 l 479 0 l 479 597 l 292 597 l 271 222 q 216 42 264 97 q 90 -14 168 -14 q 36 -7 60 -14 q 14 0 24 -4 l 21 90 l 35 90 q 43 86 38 88 q 63 83 54 83 q 108 111 89 83 q 132 222 126 139 l 160 694 l 618 694 l 618 458 l 743 458 m 618 361 l 618 97 l 743 97 q 849 129 817 97 q 882 229 882 161 q 849 329 882 297 q 743 361 817 361 l 618 361 z "},"њ":{"ha":1069,"x_min":104,"x_max":1035,"o":"m 757 431 q 969 372 903 431 q 1035 215 1035 314 q 969 58 1035 117 q 757 0 903 0 l 493 0 l 493 333 l 243 333 l 243 0 l 104 0 l 104 694 l 243 694 l 243 431 l 493 431 l 493 694 l 632 694 l 632 431 l 757 431 m 632 333 l 632 97 l 757 97 q 863 127 831 97 q 896 215 896 157 q 863 303 896 274 q 757 333 831 333 l 632 333 z "},"ћ":{"ha":778,"x_min":35,"x_max":681,"o":"m 125 819 l 125 931 l 167 972 l 264 972 l 264 819 l 451 819 l 451 722 l 264 722 l 264 556 q 310 590 283 575 q 367 614 333 603 q 444 625 400 625 q 540 608 496 625 q 615 559 583 590 q 663 484 646 528 q 681 389 681 440 l 681 0 l 542 0 l 542 389 q 505 484 542 447 q 410 521 468 521 q 351 508 378 521 q 306 479 325 494 q 264 438 282 461 l 264 0 l 125 0 l 125 722 l 35 722 l 35 819 l 125 819 z "},"ќ":{"ha":708,"x_min":104,"x_max":674,"o":"m 431 361 q 481 343 457 357 q 519 311 500 332 q 549 257 539 290 l 583 125 q 625 83 593 83 q 644 86 633 83 q 653 90 650 88 l 660 90 l 674 0 q 650 -7 664 -4 q 590 -14 625 -14 q 499 17 532 -14 q 451 104 467 47 l 417 236 q 385 287 408 268 q 326 306 363 306 l 243 306 l 243 0 l 104 0 l 104 694 l 243 694 l 243 403 l 313 403 q 374 422 353 403 q 403 472 396 440 l 431 590 q 477 678 444 649 q 569 708 510 708 q 603 706 588 708 q 629 701 618 704 q 653 694 643 697 l 639 604 l 632 604 q 624 607 629 606 q 615 610 619 608 q 604 611 610 611 q 563 569 572 611 l 535 451 q 510 402 528 419 q 475 375 493 385 q 431 361 454 364 m 514 958 l 389 750 l 299 750 l 361 958 l 514 958 z "},"ў":{"ha":660,"x_min":21,"x_max":639,"o":"m 174 -194 q 238 -167 210 -194 q 278 -97 267 -139 l 306 0 l 250 0 l 21 694 l 160 694 l 313 236 q 323 201 318 221 q 332 165 328 182 q 342 125 338 146 l 347 125 q 356 165 350 146 q 365 201 360 182 q 374 236 369 221 l 500 694 l 639 694 l 417 -97 q 335 -236 393 -181 q 188 -292 276 -292 q 130 -285 156 -292 q 86 -271 104 -279 q 49 -250 64 -262 l 83 -160 l 97 -160 q 119 -178 107 -171 q 144 -190 131 -185 q 174 -194 158 -194 m 333 833 q 396 856 375 833 q 417 931 417 878 l 542 931 q 490 799 542 847 q 333 750 438 750 q 177 799 229 750 q 125 931 125 847 l 250 931 q 271 856 250 878 q 333 833 292 833 z "},"џ":{"ha":764,"x_min":104,"x_max":660,"o":"m 104 0 l 104 694 l 243 694 l 243 97 l 521 97 l 521 694 l 660 694 l 660 0 l 451 0 l 438 -194 l 326 -194 l 313 0 l 104 0 z "},"Ґ":{"ha":681,"x_min":125,"x_max":667,"o":"m 667 1111 l 667 875 l 264 875 l 264 0 l 125 0 l 125 972 l 542 972 l 556 1111 l 667 1111 z "},"ґ":{"ha":576,"x_min":104,"x_max":563,"o":"m 104 694 l 438 694 l 451 819 l 563 819 l 563 597 l 243 597 l 243 0 l 104 0 l 104 694 z "},"–":{"ha":708,"x_min":42,"x_max":667,"o":"m 42 347 l 42 458 l 667 458 l 667 347 l 42 347 z "},"—":{"ha":1000,"x_min":42,"x_max":958,"o":"m 42 347 l 42 458 l 958 458 l 958 347 l 42 347 z "},"‘":{"ha":278,"x_min":56,"x_max":222,"o":"m 222 736 q 200 676 222 700 q 146 653 178 653 q 80 678 104 653 q 56 750 56 703 q 75 854 56 810 q 118 928 94 899 q 181 986 144 963 l 222 938 q 183 901 200 921 q 157 864 168 885 q 146 819 146 843 q 200 796 178 819 q 222 736 222 772 z "},"’":{"ha":278,"x_min":56,"x_max":222,"o":"m 56 903 q 78 963 56 939 q 132 986 100 986 q 198 961 174 986 q 222 889 222 936 q 203 784 222 828 q 160 711 183 740 q 97 653 132 676 l 56 701 q 93 738 76 718 q 120 775 108 754 q 132 819 132 796 q 78 843 100 819 q 56 903 56 867 z "},"‚":{"ha":278,"x_min":56,"x_max":222,"o":"m 56 69 q 78 129 56 106 q 132 153 100 153 q 198 128 174 153 q 222 56 222 103 q 203 -49 222 -6 q 160 -122 183 -93 q 97 -181 132 -157 l 56 -132 q 93 -96 76 -115 q 120 -58 108 -79 q 132 -14 132 -37 q 78 10 100 -14 q 56 69 56 33 z "},"“":{"ha":500,"x_min":56,"x_max":444,"o":"m 444 736 q 422 676 444 700 q 368 653 400 653 q 302 678 326 653 q 278 750 278 703 q 297 854 278 810 q 340 928 317 899 q 403 986 367 963 l 444 938 q 406 901 422 921 q 379 864 390 885 q 368 819 368 843 q 422 796 400 819 q 444 736 444 772 m 222 736 q 200 676 222 700 q 146 653 178 653 q 80 678 104 653 q 56 750 56 703 q 75 854 56 810 q 118 928 94 899 q 181 986 144 963 l 222 938 q 183 901 200 921 q 157 864 168 885 q 146 819 146 843 q 200 796 178 819 q 222 736 222 772 z "},"”":{"ha":500,"x_min":56,"x_max":444,"o":"m 56 903 q 78 963 56 939 q 132 986 100 986 q 198 961 174 986 q 222 889 222 936 q 203 784 222 828 q 160 711 183 740 q 97 653 132 676 l 56 701 q 93 738 76 718 q 120 775 108 754 q 132 819 132 796 q 78 843 100 819 q 56 903 56 867 m 278 903 q 300 963 278 939 q 354 986 322 986 q 420 961 396 986 q 444 889 444 936 q 425 784 444 828 q 382 711 406 740 q 319 653 354 676 l 278 701 q 315 738 299 718 q 342 775 331 754 q 354 819 354 796 q 300 843 322 819 q 278 903 278 867 z "},"„":{"ha":500,"x_min":56,"x_max":444,"o":"m 56 69 q 78 129 56 106 q 132 153 100 153 q 198 128 174 153 q 222 56 222 103 q 203 -49 222 -6 q 160 -122 183 -93 q 97 -181 132 -157 l 56 -132 q 93 -96 76 -115 q 120 -58 108 -79 q 132 -14 132 -37 q 78 10 100 -14 q 56 69 56 33 m 278 69 q 300 129 278 106 q 354 153 322 153 q 420 128 396 153 q 444 56 444 103 q 425 -49 444 -6 q 382 -122 406 -93 q 319 -181 354 -157 l 278 -132 q 315 -96 299 -115 q 342 -58 331 -79 q 354 -14 354 -37 q 300 10 322 -14 q 278 69 278 33 z "},"†":{"ha":639,"x_min":28,"x_max":611,"o":"m 250 569 l 28 569 l 28 667 l 250 667 l 250 972 l 389 972 l 389 667 l 611 667 l 611 569 l 389 569 l 389 -278 l 250 -278 l 250 569 z "},"‡":{"ha":639,"x_min":28,"x_max":611,"o":"m 250 569 l 28 569 l 28 667 l 250 667 l 250 972 l 389 972 l 389 667 l 611 667 l 611 569 l 389 569 l 389 125 l 611 125 l 611 28 l 389 28 l 389 -278 l 250 -278 l 250 28 l 28 28 l 28 125 l 250 125 l 250 569 z "},"•":{"ha":514,"x_min":90,"x_max":424,"o":"m 424 431 q 377 310 424 357 q 257 264 331 264 q 137 310 183 264 q 90 431 90 357 q 137 551 90 504 q 257 597 183 597 q 377 551 331 597 q 424 431 424 504 z "},"…":{"ha":806,"x_min":56,"x_max":750,"o":"m 56 69 q 79 129 56 106 q 139 153 103 153 q 199 129 175 153 q 222 69 222 106 q 199 10 222 33 q 139 -14 175 -14 q 79 10 103 -14 q 56 69 56 33 m 319 69 q 343 129 319 106 q 403 153 367 153 q 463 129 439 153 q 486 69 486 106 q 463 10 486 33 q 403 -14 439 -14 q 343 10 367 -14 q 319 69 319 33 m 583 69 q 607 129 583 106 q 667 153 631 153 q 726 129 703 153 q 750 69 750 106 q 726 10 750 33 q 667 -14 703 -14 q 607 10 631 -14 q 583 69 583 33 z "},"‰":{"ha":1571,"x_min":28,"x_max":1543,"o":"m 792 972 l 944 972 l 292 0 l 139 0 l 792 972 m 833 403 q 764 366 792 403 q 736 236 736 329 q 744 157 736 189 q 764 106 751 125 q 794 78 776 86 q 833 69 813 69 q 872 78 854 69 q 903 106 890 86 q 923 157 915 125 q 931 236 931 189 q 903 366 931 329 q 833 403 875 403 m 833 486 q 994 422 933 486 q 1056 236 1056 357 q 994 51 1056 115 q 833 -14 933 -14 q 672 51 733 -14 q 611 236 611 115 q 672 422 611 357 q 833 486 733 486 m 1321 403 q 1251 366 1279 403 q 1224 236 1224 329 q 1231 157 1224 189 q 1251 106 1239 125 q 1282 78 1264 86 q 1321 69 1300 69 q 1360 78 1342 69 q 1390 106 1378 86 q 1410 157 1403 125 q 1418 236 1418 189 q 1390 366 1418 329 q 1321 403 1363 403 m 1321 486 q 1482 422 1421 486 q 1543 236 1543 357 q 1482 51 1543 115 q 1321 -14 1421 -14 q 1160 51 1221 -14 q 1099 236 1099 115 q 1160 422 1099 357 q 1321 486 1221 486 m 250 903 q 181 866 208 903 q 153 736 153 829 q 160 657 153 689 q 181 606 168 625 q 211 578 193 586 q 250 569 229 569 q 289 578 271 569 q 319 606 307 586 q 340 657 332 625 q 347 736 347 689 q 319 866 347 829 q 250 903 292 903 m 250 986 q 411 922 350 986 q 472 736 472 857 q 411 551 472 615 q 250 486 350 486 q 89 551 150 486 q 28 736 28 615 q 89 922 28 857 q 250 986 150 986 z "},"‹":{"ha":458,"x_min":14,"x_max":444,"o":"m 278 653 l 444 653 l 181 361 l 444 69 l 278 69 l 14 361 l 278 653 z "},"›":{"ha":472,"x_min":14,"x_max":444,"o":"m 444 361 l 181 69 l 14 69 l 278 361 l 14 653 l 181 653 l 444 361 z "},"€":{"ha":757,"x_min":14,"x_max":722,"o":"m 35 611 l 124 611 q 164 783 135 711 q 237 899 193 854 q 338 965 281 944 q 465 986 396 986 q 568 974 524 986 q 644 947 613 963 q 708 910 681 931 l 660 826 l 646 826 q 599 857 624 843 q 546 878 576 868 q 479 889 515 889 q 403 874 439 889 q 340 827 368 860 q 291 742 311 794 q 263 611 271 689 l 568 611 l 554 528 l 257 528 l 257 444 l 549 444 l 535 361 l 263 361 q 292 230 272 283 q 342 144 313 176 q 410 97 372 111 q 493 83 449 83 q 560 93 529 83 q 613 114 590 103 q 660 146 638 128 l 674 146 l 722 63 q 658 24 694 40 q 582 -3 626 8 q 479 -14 538 -14 q 346 7 406 -14 q 240 73 286 28 q 165 189 194 118 q 124 361 135 260 l 14 361 l 28 444 l 118 444 l 118 528 l 21 528 l 35 611 z "},"№":{"ha":1328,"x_min":125,"x_max":1279,"o":"m 863 403 l 1251 403 l 1251 306 l 863 306 l 863 403 m 306 618 q 292 653 299 633 q 278 693 285 674 q 264 736 271 714 l 258 736 q 261 693 260 714 q 263 653 263 674 q 264 618 264 633 l 264 0 l 125 0 l 125 972 l 278 972 l 569 354 q 583 318 576 339 q 597 279 590 297 q 611 236 604 257 l 617 236 q 614 279 615 257 q 612 318 613 297 q 611 354 611 339 l 611 972 l 750 972 l 750 0 l 597 0 l 306 618 m 1057 903 q 988 866 1015 903 q 960 736 960 829 q 967 657 960 689 q 988 606 975 625 q 1018 578 1000 586 q 1057 569 1036 569 q 1096 578 1078 569 q 1126 606 1114 586 q 1147 657 1139 625 q 1154 736 1154 689 q 1126 866 1154 829 q 1057 903 1099 903 m 1057 986 q 1218 922 1157 986 q 1279 736 1279 857 q 1218 551 1279 615 q 1057 486 1157 486 q 896 551 957 486 q 835 736 835 615 q 896 922 835 857 q 1057 986 957 986 z "},"™":{"ha":1181,"x_min":14,"x_max":1125,"o":"m 472 882 l 306 882 l 306 444 l 181 444 l 181 882 l 14 882 l 14 972 l 472 972 l 472 882 m 829 646 q 833 663 831 654 q 840 678 836 669 q 847 694 843 686 l 993 972 l 1125 972 l 1125 444 l 1000 444 l 1000 694 q 1000 721 1000 707 q 1001 746 1000 735 q 1004 771 1003 760 l 997 771 q 988 744 993 758 q 978 720 983 733 q 965 694 972 707 l 882 535 l 771 535 l 688 694 q 675 720 681 707 q 665 744 669 733 q 656 771 660 758 l 649 771 q 650 746 649 760 q 652 721 651 735 q 653 694 653 707 l 653 444 l 528 444 l 528 972 l 660 972 l 806 694 q 818 663 814 679 q 824 646 821 654 l 829 646 z "}}}
